<svg width="656" height="739" viewBox="0 0 656 739" fill="none" xmlns="http://www.w3.org/2000/svg">
<rect width="656" height="739" rx="30" fill="url(#paint0_linear)"/>
<mask id="mask0" mask-type="alpha" maskUnits="userSpaceOnUse" x="0" y="0" width="656" height="739">
<rect width="656" height="739" rx="30" fill="url(#paint1_linear)"/>
</mask>
<g mask="url(#mask0)">
<rect x="181" y="216" width="296" height="590"/>
</g>
<path d="M99.5 50C97.0329 50 95 52.0535 95 54.5455V98.4848C95 98.8867 95.1581 99.272 95.4394 99.5562C95.7207 99.8403 96.1022 100 96.5 100H159.5C159.898 100 160.279 99.8403 160.561 99.5562C160.842 99.272 161 98.8867 161 98.4848V54.5455C161 52.0535 158.967 50 156.5 50H99.5ZM99.5 53.0303H156.5C157.357 53.0303 158 53.6798 158 54.5455V60.6061H98V54.5455C98 53.6798 98.643 53.0303 99.5 53.0303ZM101.75 55.303C100.922 55.303 100.25 55.9814 100.25 56.8182C100.25 57.655 100.922 58.3333 101.75 58.3333C102.578 58.3333 103.25 57.655 103.25 56.8182C103.25 55.9814 102.578 55.303 101.75 55.303ZM107 55.303C106.172 55.303 105.5 55.9814 105.5 56.8182C105.5 57.655 106.172 58.3333 107 58.3333C107.828 58.3333 108.5 57.655 108.5 56.8182C108.5 55.9814 107.828 55.303 107 55.303ZM112.25 55.303C111.422 55.303 110.75 55.9814 110.75 56.8182C110.75 57.655 111.422 58.3333 112.25 58.3333C113.078 58.3333 113.75 57.655 113.75 56.8182C113.75 55.9814 113.078 55.303 112.25 55.303ZM98 63.6364H158V96.9697H98V63.6364ZM132.312 67.4006C132.045 67.4388 131.793 67.5491 131.583 67.7199C131.372 67.8908 131.212 68.1158 131.117 68.3712L122.117 91.0985C122.014 91.2867 121.953 91.4948 121.936 91.7091C121.918 91.9233 121.947 92.1388 122.019 92.3411C122.09 92.5434 122.204 92.7281 122.352 92.8827C122.499 93.0373 122.678 93.1584 122.876 93.2379C123.073 93.3175 123.286 93.3536 123.498 93.344C123.711 93.3343 123.919 93.2791 124.109 93.182C124.298 93.0849 124.466 92.9481 124.599 92.7807C124.733 92.6133 124.829 92.4192 124.883 92.2112L133.883 69.4839C133.983 69.2391 134.018 68.972 133.984 68.7092C133.951 68.4465 133.849 68.1973 133.69 67.9865C133.531 67.7757 133.321 67.6106 133.079 67.5078C132.837 67.405 132.573 67.368 132.312 67.4006ZM117.359 71.1884C117.125 71.2142 116.9 71.2953 116.703 71.4252L104.703 79.0009C104.485 79.1366 104.305 79.3264 104.18 79.5523C104.055 79.7781 103.99 80.0325 103.99 80.2912C103.99 80.5499 104.055 80.8043 104.18 81.0301C104.305 81.256 104.485 81.4458 104.703 81.5814L116.703 89.1572C117.042 89.3685 117.45 89.4356 117.837 89.344C118.225 89.2523 118.561 89.0093 118.771 88.6682C118.982 88.327 119.051 87.9154 118.962 87.5235C118.873 87.1315 118.634 86.7911 118.297 86.5767L108.336 80.303L118.297 74.0057C118.598 73.8312 118.83 73.5568 118.953 73.2291C119.076 72.9015 119.083 72.5408 118.972 72.2086C118.862 71.8764 118.64 71.5932 118.346 71.4072C118.052 71.2212 117.704 71.1439 117.359 71.1884ZM138.43 71.1884C138.105 71.1972 137.791 71.3124 137.537 71.5167C137.282 71.7211 137.1 72.0034 137.018 72.3212C136.936 72.639 136.959 72.9752 137.082 73.279C137.206 73.5828 137.424 73.8378 137.703 74.0057L147.664 80.303L137.703 86.5767C137.366 86.7911 137.127 87.1315 137.038 87.5235C136.949 87.9154 137.018 88.327 137.229 88.6682C137.439 89.0093 137.775 89.2523 138.163 89.344C138.55 89.4356 138.958 89.3685 139.297 89.1572L151.297 81.5814C151.515 81.4458 151.695 81.256 151.82 81.0301C151.945 80.8043 152.01 80.5499 152.01 80.2912C152.01 80.0325 151.945 79.7781 151.82 79.5523C151.695 79.3264 151.515 79.1366 151.297 79.0009L139.297 71.4252C139.039 71.2587 138.736 71.176 138.43 71.1884Z" fill="white"/>
<path d="M193.934 87V61.4062H201.492C203.754 61.4062 205.758 61.9102 207.504 62.918C209.262 63.9258 210.621 65.3555 211.582 67.207C212.543 69.0586 213.023 71.1797 213.023 73.5703V74.8535C213.023 77.2793 212.537 79.4121 211.564 81.252C210.604 83.0918 209.227 84.5098 207.434 85.5059C205.652 86.502 203.607 87 201.299 87H193.934ZM198.381 64.9922V83.4492H201.281C203.613 83.4492 205.4 82.7227 206.643 81.2695C207.896 79.8047 208.535 77.707 208.559 74.9766V73.5527C208.559 70.7754 207.955 68.6543 206.748 67.1895C205.541 65.7246 203.789 64.9922 201.492 64.9922H198.381ZM222.146 87H217.717V61.4062H222.146V87ZM247.23 83.6777C246.305 84.8848 245.021 85.7988 243.381 86.4199C241.74 87.041 239.877 87.3516 237.791 87.3516C235.646 87.3516 233.748 86.8652 232.096 85.8926C230.443 84.9199 229.166 83.5312 228.264 81.7266C227.373 79.9102 226.91 77.7949 226.875 75.3809V73.377C226.875 69.5098 227.801 66.4922 229.652 64.3242C231.504 62.1445 234.088 61.0547 237.404 61.0547C240.252 61.0547 242.514 61.7578 244.189 63.1641C245.865 64.5703 246.873 66.5977 247.213 69.2461H242.854C242.361 66.1641 240.574 64.623 237.492 64.623C235.5 64.623 233.982 65.3438 232.939 66.7852C231.908 68.2148 231.375 70.3184 231.34 73.0957V75.0645C231.34 77.8301 231.92 79.9805 233.08 81.5156C234.252 83.0391 235.875 83.8008 237.949 83.8008C240.223 83.8008 241.84 83.2852 242.801 82.2539V77.2441H237.527V73.8691H247.23V83.6777ZM256.811 87H252.381V61.4062H256.811V87ZM280.242 64.9922H272.262V87H267.85V64.9922H259.939V61.4062H280.242V64.9922ZM295.834 81.041H285.92L283.846 87H279.223L288.891 61.4062H292.881L302.566 87H297.926L295.834 81.041ZM287.168 77.4551H294.586L290.877 66.8379L287.168 77.4551ZM309.932 83.4492H321.551V87H305.484V61.4062H309.932V83.4492ZM351.363 64.9922H343.383V87H338.971V64.9922H331.061V61.4062H351.363V64.9922ZM369.697 75.5742H359.186V83.4492H371.473V87H354.738V61.4062H371.35V64.9922H359.186V72.0586H369.697V75.5742ZM394.623 78.668C394.365 81.3984 393.357 83.5312 391.6 85.0664C389.842 86.5898 387.504 87.3516 384.586 87.3516C382.547 87.3516 380.748 86.8711 379.189 85.9102C377.643 84.9375 376.447 83.5605 375.604 81.7793C374.76 79.998 374.32 77.9297 374.285 75.5742V73.1836C374.285 70.7695 374.713 68.6426 375.568 66.8027C376.424 64.9629 377.648 63.5449 379.242 62.5488C380.848 61.5527 382.699 61.0547 384.797 61.0547C387.621 61.0547 389.895 61.8223 391.617 63.3574C393.34 64.8926 394.342 67.0605 394.623 69.8613H390.193C389.982 68.0215 389.443 66.6973 388.576 65.8887C387.721 65.0684 386.461 64.6582 384.797 64.6582C382.863 64.6582 381.375 65.3672 380.332 66.7852C379.301 68.1914 378.773 70.2598 378.75 72.9902V75.2578C378.75 78.0234 379.242 80.1328 380.227 81.5859C381.223 83.0391 382.676 83.7656 384.586 83.7656C386.332 83.7656 387.645 83.373 388.523 82.5879C389.402 81.8027 389.959 80.4961 390.193 78.668H394.623ZM418.934 87H414.504V75.627H403.061V87H398.613V61.4062H403.061V72.0586H414.504V61.4062H418.934V87ZM444.51 87H440.062L428.654 68.8418V87H424.207V61.4062H428.654L440.098 79.6348V61.4062H444.51V87ZM470.191 74.8711C470.191 77.3789 469.758 79.582 468.891 81.4805C468.023 83.3672 466.781 84.8203 465.164 85.8398C463.559 86.8477 461.707 87.3516 459.609 87.3516C457.535 87.3516 455.684 86.8477 454.055 85.8398C452.438 84.8203 451.184 83.373 450.293 81.498C449.414 79.623 448.969 77.4609 448.957 75.0117V73.5703C448.957 71.0742 449.396 68.8711 450.275 66.9609C451.166 65.0508 452.414 63.5918 454.02 62.584C455.637 61.5645 457.488 61.0547 459.574 61.0547C461.66 61.0547 463.506 61.5586 465.111 62.5664C466.729 63.5625 467.977 65.0039 468.855 66.8906C469.734 68.7656 470.18 70.9512 470.191 73.4473V74.8711ZM465.744 73.5352C465.744 70.6992 465.205 68.5254 464.127 67.0137C463.061 65.502 461.543 64.7461 459.574 64.7461C457.652 64.7461 456.146 65.502 455.057 67.0137C453.979 68.5137 453.428 70.6406 453.404 73.3945V74.8711C453.404 77.6836 453.949 79.8574 455.039 81.3926C456.141 82.9277 457.664 83.6953 459.609 83.6953C461.578 83.6953 463.09 82.9453 464.145 81.4453C465.211 79.9453 465.744 77.7539 465.744 74.8711V73.5352ZM479.068 83.4492H490.688V87H474.621V61.4062H479.068V83.4492ZM513.398 74.8711C513.398 77.3789 512.965 79.582 512.098 81.4805C511.23 83.3672 509.988 84.8203 508.371 85.8398C506.766 86.8477 504.914 87.3516 502.816 87.3516C500.742 87.3516 498.891 86.8477 497.262 85.8398C495.645 84.8203 494.391 83.373 493.5 81.498C492.621 79.623 492.176 77.4609 492.164 75.0117V73.5703C492.164 71.0742 492.604 68.8711 493.482 66.9609C494.373 65.0508 495.621 63.5918 497.227 62.584C498.844 61.5645 500.695 61.0547 502.781 61.0547C504.867 61.0547 506.713 61.5586 508.318 62.5664C509.936 63.5625 511.184 65.0039 512.062 66.8906C512.941 68.7656 513.387 70.9512 513.398 73.4473V74.8711ZM508.951 73.5352C508.951 70.6992 508.412 68.5254 507.334 67.0137C506.268 65.502 504.75 64.7461 502.781 64.7461C500.859 64.7461 499.354 65.502 498.264 67.0137C497.186 68.5137 496.635 70.6406 496.611 73.3945V74.8711C496.611 77.6836 497.156 79.8574 498.246 81.3926C499.348 82.9277 500.871 83.6953 502.816 83.6953C504.785 83.6953 506.297 82.9453 507.352 81.4453C508.418 79.9453 508.951 77.7539 508.951 74.8711V73.5352ZM537.445 83.6777C536.52 84.8848 535.236 85.7988 533.596 86.4199C531.955 87.041 530.092 87.3516 528.006 87.3516C525.861 87.3516 523.963 86.8652 522.311 85.8926C520.658 84.9199 519.381 83.5312 518.479 81.7266C517.588 79.9102 517.125 77.7949 517.09 75.3809V73.377C517.09 69.5098 518.016 66.4922 519.867 64.3242C521.719 62.1445 524.303 61.0547 527.619 61.0547C530.467 61.0547 532.729 61.7578 534.404 63.1641C536.08 64.5703 537.088 66.5977 537.428 69.2461H533.068C532.576 66.1641 530.789 64.623 527.707 64.623C525.715 64.623 524.197 65.3438 523.154 66.7852C522.123 68.2148 521.59 70.3184 521.555 73.0957V75.0645C521.555 77.8301 522.135 79.9805 523.295 81.5156C524.467 83.0391 526.09 83.8008 528.164 83.8008C530.438 83.8008 532.055 83.2852 533.016 82.2539V77.2441H527.742V73.8691H537.445V83.6777ZM550.682 73.5352L556.57 61.4062H561.492L552.914 77.5781V87H548.449V77.5781L539.854 61.4062H544.793L550.682 73.5352Z" fill="white"/>
<path d="M149.016 138.422C148.839 140.87 147.932 142.797 146.297 144.203C144.672 145.609 142.526 146.312 139.859 146.312C136.943 146.312 134.646 145.333 132.969 143.375C131.302 141.406 130.469 138.708 130.469 135.281V133.891C130.469 131.703 130.854 129.776 131.625 128.109C132.396 126.443 133.495 125.167 134.922 124.281C136.359 123.385 138.026 122.938 139.922 122.938C142.547 122.938 144.661 123.641 146.266 125.047C147.87 126.453 148.797 128.427 149.047 130.969H144.359C144.245 129.5 143.833 128.438 143.125 127.781C142.427 127.115 141.359 126.781 139.922 126.781C138.359 126.781 137.188 127.344 136.406 128.469C135.635 129.583 135.24 131.318 135.219 133.672V135.391C135.219 137.849 135.589 139.646 136.328 140.781C137.078 141.917 138.255 142.484 139.859 142.484C141.307 142.484 142.385 142.156 143.094 141.5C143.812 140.833 144.224 139.807 144.328 138.422H149.016ZM161.297 133.328C160.682 133.245 160.141 133.203 159.672 133.203C157.964 133.203 156.844 133.781 156.312 134.938V146H151.797V129.094H156.062L156.188 131.109C157.094 129.557 158.349 128.781 159.953 128.781C160.453 128.781 160.922 128.849 161.359 128.984L161.297 133.328ZM170.953 146.312C168.474 146.312 166.453 145.552 164.891 144.031C163.339 142.51 162.562 140.484 162.562 137.953V137.516C162.562 135.818 162.891 134.302 163.547 132.969C164.203 131.625 165.13 130.594 166.328 129.875C167.536 129.146 168.911 128.781 170.453 128.781C172.766 128.781 174.583 129.51 175.906 130.969C177.24 132.427 177.906 134.495 177.906 137.172V139.016H167.141C167.286 140.12 167.724 141.005 168.453 141.672C169.193 142.339 170.125 142.672 171.25 142.672C172.99 142.672 174.349 142.042 175.328 140.781L177.547 143.266C176.87 144.224 175.953 144.974 174.797 145.516C173.641 146.047 172.359 146.312 170.953 146.312ZM170.438 132.438C169.542 132.438 168.812 132.74 168.25 133.344C167.698 133.948 167.344 134.812 167.188 135.938H173.469V135.578C173.448 134.578 173.177 133.807 172.656 133.266C172.135 132.714 171.396 132.438 170.438 132.438ZM190.281 146C190.073 145.594 189.922 145.089 189.828 144.484C188.734 145.703 187.312 146.312 185.562 146.312C183.906 146.312 182.531 145.833 181.438 144.875C180.354 143.917 179.812 142.708 179.812 141.25C179.812 139.458 180.474 138.083 181.797 137.125C183.13 136.167 185.052 135.682 187.562 135.672H189.641V134.703C189.641 133.922 189.438 133.297 189.031 132.828C188.635 132.359 188.005 132.125 187.141 132.125C186.38 132.125 185.781 132.307 185.344 132.672C184.917 133.036 184.703 133.536 184.703 134.172H180.188C180.188 133.193 180.49 132.286 181.094 131.453C181.698 130.62 182.552 129.969 183.656 129.5C184.76 129.021 186 128.781 187.375 128.781C189.458 128.781 191.109 129.307 192.328 130.359C193.557 131.401 194.172 132.87 194.172 134.766V142.094C194.182 143.698 194.406 144.911 194.844 145.734V146H190.281ZM186.547 142.859C187.214 142.859 187.828 142.714 188.391 142.422C188.953 142.12 189.37 141.719 189.641 141.219V138.312H187.953C185.693 138.312 184.49 139.094 184.344 140.656L184.328 140.922C184.328 141.484 184.526 141.948 184.922 142.312C185.318 142.677 185.859 142.859 186.547 142.859ZM203.047 124.938V129.094H205.938V132.406H203.047V140.844C203.047 141.469 203.167 141.917 203.406 142.188C203.646 142.458 204.104 142.594 204.781 142.594C205.281 142.594 205.724 142.557 206.109 142.484V145.906C205.224 146.177 204.312 146.312 203.375 146.312C200.208 146.312 198.594 144.714 198.531 141.516V132.406H196.062V129.094H198.531V124.938H203.047ZM216.234 146.312C213.755 146.312 211.734 145.552 210.172 144.031C208.62 142.51 207.844 140.484 207.844 137.953V137.516C207.844 135.818 208.172 134.302 208.828 132.969C209.484 131.625 210.411 130.594 211.609 129.875C212.818 129.146 214.193 128.781 215.734 128.781C218.047 128.781 219.865 129.51 221.188 130.969C222.521 132.427 223.188 134.495 223.188 137.172V139.016H212.422C212.568 140.12 213.005 141.005 213.734 141.672C214.474 142.339 215.406 142.672 216.531 142.672C218.271 142.672 219.63 142.042 220.609 140.781L222.828 143.266C222.151 144.224 221.234 144.974 220.078 145.516C218.922 146.047 217.641 146.312 216.234 146.312ZM215.719 132.438C214.823 132.438 214.094 132.74 213.531 133.344C212.979 133.948 212.625 134.812 212.469 135.938H218.75V135.578C218.729 134.578 218.458 133.807 217.938 133.266C217.417 132.714 216.677 132.438 215.719 132.438ZM243.859 144.281C242.745 145.635 241.203 146.312 239.234 146.312C237.422 146.312 236.036 145.792 235.078 144.75C234.13 143.708 233.646 142.182 233.625 140.172V129.094H238.141V140.016C238.141 141.776 238.943 142.656 240.547 142.656C242.078 142.656 243.13 142.125 243.703 141.062V129.094H248.234V146H243.984L243.859 144.281ZM260.797 141.328C260.797 140.776 260.521 140.344 259.969 140.031C259.427 139.708 258.552 139.422 257.344 139.172C253.323 138.328 251.312 136.62 251.312 134.047C251.312 132.547 251.932 131.297 253.172 130.297C254.422 129.286 256.052 128.781 258.062 128.781C260.208 128.781 261.922 129.286 263.203 130.297C264.495 131.307 265.141 132.62 265.141 134.234H260.625C260.625 133.589 260.417 133.057 260 132.641C259.583 132.214 258.932 132 258.047 132C257.286 132 256.698 132.172 256.281 132.516C255.865 132.859 255.656 133.297 255.656 133.828C255.656 134.328 255.891 134.734 256.359 135.047C256.839 135.349 257.641 135.615 258.766 135.844C259.891 136.062 260.839 136.312 261.609 136.594C263.995 137.469 265.188 138.984 265.188 141.141C265.188 142.682 264.526 143.932 263.203 144.891C261.88 145.839 260.172 146.312 258.078 146.312C256.661 146.312 255.401 146.062 254.297 145.562C253.203 145.052 252.344 144.359 251.719 143.484C251.094 142.599 250.781 141.646 250.781 140.625H255.062C255.104 141.427 255.401 142.042 255.953 142.469C256.505 142.896 257.245 143.109 258.172 143.109C259.036 143.109 259.688 142.948 260.125 142.625C260.573 142.292 260.797 141.859 260.797 141.328ZM275.891 146.312C273.411 146.312 271.391 145.552 269.828 144.031C268.276 142.51 267.5 140.484 267.5 137.953V137.516C267.5 135.818 267.828 134.302 268.484 132.969C269.141 131.625 270.068 130.594 271.266 129.875C272.474 129.146 273.849 128.781 275.391 128.781C277.703 128.781 279.521 129.51 280.844 130.969C282.177 132.427 282.844 134.495 282.844 137.172V139.016H272.078C272.224 140.12 272.661 141.005 273.391 141.672C274.13 142.339 275.062 142.672 276.188 142.672C277.927 142.672 279.286 142.042 280.266 140.781L282.484 143.266C281.807 144.224 280.891 144.974 279.734 145.516C278.578 146.047 277.297 146.312 275.891 146.312ZM275.375 132.438C274.479 132.438 273.75 132.74 273.188 133.344C272.635 133.948 272.281 134.812 272.125 135.938H278.406V135.578C278.385 134.578 278.115 133.807 277.594 133.266C277.073 132.714 276.333 132.438 275.375 132.438ZM294.922 133.328C294.307 133.245 293.766 133.203 293.297 133.203C291.589 133.203 290.469 133.781 289.938 134.938V146H285.422V129.094H289.688L289.812 131.109C290.719 129.557 291.974 128.781 293.578 128.781C294.078 128.781 294.547 128.849 294.984 128.984L294.922 133.328ZM312.109 142.672C312.943 142.672 313.62 142.443 314.141 141.984C314.661 141.526 314.932 140.917 314.953 140.156H319.188C319.177 141.302 318.865 142.354 318.25 143.312C317.635 144.26 316.792 145 315.719 145.531C314.656 146.052 313.479 146.312 312.188 146.312C309.771 146.312 307.865 145.547 306.469 144.016C305.073 142.474 304.375 140.349 304.375 137.641V137.344C304.375 134.74 305.068 132.661 306.453 131.109C307.839 129.557 309.74 128.781 312.156 128.781C314.271 128.781 315.964 129.385 317.234 130.594C318.516 131.792 319.167 133.391 319.188 135.391H314.953C314.932 134.516 314.661 133.807 314.141 133.266C313.62 132.714 312.932 132.438 312.078 132.438C311.026 132.438 310.229 132.823 309.688 133.594C309.156 134.354 308.891 135.594 308.891 137.312V137.781C308.891 139.521 309.156 140.771 309.688 141.531C310.219 142.292 311.026 142.672 312.109 142.672ZM329.547 146.312C327.068 146.312 325.047 145.552 323.484 144.031C321.932 142.51 321.156 140.484 321.156 137.953V137.516C321.156 135.818 321.484 134.302 322.141 132.969C322.797 131.625 323.724 130.594 324.922 129.875C326.13 129.146 327.505 128.781 329.047 128.781C331.359 128.781 333.177 129.51 334.5 130.969C335.833 132.427 336.5 134.495 336.5 137.172V139.016H325.734C325.88 140.12 326.318 141.005 327.047 141.672C327.786 142.339 328.719 142.672 329.844 142.672C331.583 142.672 332.943 142.042 333.922 140.781L336.141 143.266C335.464 144.224 334.547 144.974 333.391 145.516C332.234 146.047 330.953 146.312 329.547 146.312ZM329.031 132.438C328.135 132.438 327.406 132.74 326.844 133.344C326.292 133.948 325.938 134.812 325.781 135.938H332.062V135.578C332.042 134.578 331.771 133.807 331.25 133.266C330.729 132.714 329.99 132.438 329.031 132.438ZM343.234 129.094L343.375 131.047C344.583 129.536 346.203 128.781 348.234 128.781C350.026 128.781 351.359 129.307 352.234 130.359C353.109 131.411 353.557 132.984 353.578 135.078V146H349.062V135.188C349.062 134.229 348.854 133.536 348.438 133.109C348.021 132.672 347.328 132.453 346.359 132.453C345.089 132.453 344.135 132.995 343.5 134.078V146H338.984V129.094H343.234ZM362.422 124.938V129.094H365.312V132.406H362.422V140.844C362.422 141.469 362.542 141.917 362.781 142.188C363.021 142.458 363.479 142.594 364.156 142.594C364.656 142.594 365.099 142.557 365.484 142.484V145.906C364.599 146.177 363.688 146.312 362.75 146.312C359.583 146.312 357.969 144.714 357.906 141.516V132.406H355.438V129.094H357.906V124.938H362.422ZM375.609 146.312C373.13 146.312 371.109 145.552 369.547 144.031C367.995 142.51 367.219 140.484 367.219 137.953V137.516C367.219 135.818 367.547 134.302 368.203 132.969C368.859 131.625 369.786 130.594 370.984 129.875C372.193 129.146 373.568 128.781 375.109 128.781C377.422 128.781 379.24 129.51 380.562 130.969C381.896 132.427 382.562 134.495 382.562 137.172V139.016H371.797C371.943 140.12 372.38 141.005 373.109 141.672C373.849 142.339 374.781 142.672 375.906 142.672C377.646 142.672 379.005 142.042 379.984 140.781L382.203 143.266C381.526 144.224 380.609 144.974 379.453 145.516C378.297 146.047 377.016 146.312 375.609 146.312ZM375.094 132.438C374.198 132.438 373.469 132.74 372.906 133.344C372.354 133.948 372 134.812 371.844 135.938H378.125V135.578C378.104 134.578 377.833 133.807 377.312 133.266C376.792 132.714 376.052 132.438 375.094 132.438ZM394.641 133.328C394.026 133.245 393.484 133.203 393.016 133.203C391.307 133.203 390.188 133.781 389.656 134.938V146H385.141V129.094H389.406L389.531 131.109C390.438 129.557 391.693 128.781 393.297 128.781C393.797 128.781 394.266 128.849 394.703 128.984L394.641 133.328ZM404.297 146.312C401.818 146.312 399.797 145.552 398.234 144.031C396.682 142.51 395.906 140.484 395.906 137.953V137.516C395.906 135.818 396.234 134.302 396.891 132.969C397.547 131.625 398.474 130.594 399.672 129.875C400.88 129.146 402.255 128.781 403.797 128.781C406.109 128.781 407.927 129.51 409.25 130.969C410.583 132.427 411.25 134.495 411.25 137.172V139.016H400.484C400.63 140.12 401.068 141.005 401.797 141.672C402.536 142.339 403.469 142.672 404.594 142.672C406.333 142.672 407.693 142.042 408.672 140.781L410.891 143.266C410.214 144.224 409.297 144.974 408.141 145.516C406.984 146.047 405.703 146.312 404.297 146.312ZM403.781 132.438C402.885 132.438 402.156 132.74 401.594 133.344C401.042 133.948 400.688 134.812 400.531 135.938H406.812V135.578C406.792 134.578 406.521 133.807 406 133.266C405.479 132.714 404.74 132.438 403.781 132.438ZM413.125 137.422C413.125 134.786 413.714 132.688 414.891 131.125C416.078 129.562 417.698 128.781 419.75 128.781C421.396 128.781 422.755 129.396 423.828 130.625V122H428.359V146H424.281L424.062 144.203C422.938 145.609 421.49 146.312 419.719 146.312C417.729 146.312 416.13 145.531 414.922 143.969C413.724 142.396 413.125 140.214 413.125 137.422ZM417.641 137.75C417.641 139.333 417.917 140.547 418.469 141.391C419.021 142.234 419.823 142.656 420.875 142.656C422.271 142.656 423.255 142.068 423.828 140.891V134.219C423.266 133.042 422.292 132.453 420.906 132.453C418.729 132.453 417.641 134.219 417.641 137.75ZM439.125 137.422C439.125 134.786 439.714 132.688 440.891 131.125C442.078 129.562 443.698 128.781 445.75 128.781C447.396 128.781 448.755 129.396 449.828 130.625V122H454.359V146H450.281L450.062 144.203C448.938 145.609 447.49 146.312 445.719 146.312C443.729 146.312 442.13 145.531 440.922 143.969C439.724 142.396 439.125 140.214 439.125 137.422ZM443.641 137.75C443.641 139.333 443.917 140.547 444.469 141.391C445.021 142.234 445.823 142.656 446.875 142.656C448.271 142.656 449.255 142.068 449.828 140.891V134.219C449.266 133.042 448.292 132.453 446.906 132.453C444.729 132.453 443.641 134.219 443.641 137.75ZM462.625 146H458.094V129.094H462.625V146ZM457.828 124.719C457.828 124.042 458.052 123.484 458.5 123.047C458.958 122.609 459.578 122.391 460.359 122.391C461.13 122.391 461.745 122.609 462.203 123.047C462.661 123.484 462.891 124.042 462.891 124.719C462.891 125.406 462.656 125.969 462.188 126.406C461.729 126.844 461.12 127.062 460.359 127.062C459.599 127.062 458.984 126.844 458.516 126.406C458.057 125.969 457.828 125.406 457.828 124.719ZM465.703 137.422C465.703 134.828 466.318 132.74 467.547 131.156C468.786 129.573 470.453 128.781 472.547 128.781C474.401 128.781 475.844 129.417 476.875 130.688L477.062 129.094H481.156V145.438C481.156 146.917 480.818 148.203 480.141 149.297C479.474 150.391 478.531 151.224 477.312 151.797C476.094 152.37 474.667 152.656 473.031 152.656C471.792 152.656 470.583 152.406 469.406 151.906C468.229 151.417 467.339 150.781 466.734 150L468.734 147.25C469.859 148.51 471.224 149.141 472.828 149.141C474.026 149.141 474.958 148.818 475.625 148.172C476.292 147.536 476.625 146.63 476.625 145.453V144.547C475.583 145.724 474.214 146.312 472.516 146.312C470.484 146.312 468.839 145.521 467.578 143.938C466.328 142.344 465.703 140.234 465.703 137.609V137.422ZM470.219 137.75C470.219 139.281 470.526 140.484 471.141 141.359C471.755 142.224 472.599 142.656 473.672 142.656C475.047 142.656 476.031 142.141 476.625 141.109V134C476.021 132.969 475.047 132.453 473.703 132.453C472.62 132.453 471.766 132.896 471.141 133.781C470.526 134.667 470.219 135.99 470.219 137.75ZM489.406 146H484.875V129.094H489.406V146ZM484.609 124.719C484.609 124.042 484.833 123.484 485.281 123.047C485.74 122.609 486.359 122.391 487.141 122.391C487.911 122.391 488.526 122.609 488.984 123.047C489.443 123.484 489.672 124.042 489.672 124.719C489.672 125.406 489.438 125.969 488.969 126.406C488.51 126.844 487.901 127.062 487.141 127.062C486.38 127.062 485.766 126.844 485.297 126.406C484.839 125.969 484.609 125.406 484.609 124.719ZM498.547 124.938V129.094H501.438V132.406H498.547V140.844C498.547 141.469 498.667 141.917 498.906 142.188C499.146 142.458 499.604 142.594 500.281 142.594C500.781 142.594 501.224 142.557 501.609 142.484V145.906C500.724 146.177 499.812 146.312 498.875 146.312C495.708 146.312 494.094 144.714 494.031 141.516V132.406H491.562V129.094H494.031V124.938H498.547ZM513.75 146C513.542 145.594 513.391 145.089 513.297 144.484C512.203 145.703 510.781 146.312 509.031 146.312C507.375 146.312 506 145.833 504.906 144.875C503.823 143.917 503.281 142.708 503.281 141.25C503.281 139.458 503.943 138.083 505.266 137.125C506.599 136.167 508.521 135.682 511.031 135.672H513.109V134.703C513.109 133.922 512.906 133.297 512.5 132.828C512.104 132.359 511.474 132.125 510.609 132.125C509.849 132.125 509.25 132.307 508.812 132.672C508.385 133.036 508.172 133.536 508.172 134.172H503.656C503.656 133.193 503.958 132.286 504.562 131.453C505.167 130.62 506.021 129.969 507.125 129.5C508.229 129.021 509.469 128.781 510.844 128.781C512.927 128.781 514.578 129.307 515.797 130.359C517.026 131.401 517.641 132.87 517.641 134.766V142.094C517.651 143.698 517.875 144.911 518.312 145.734V146H513.75ZM510.016 142.859C510.682 142.859 511.297 142.714 511.859 142.422C512.422 142.12 512.839 141.719 513.109 141.219V138.312H511.422C509.161 138.312 507.958 139.094 507.812 140.656L507.797 140.922C507.797 141.484 507.995 141.948 508.391 142.312C508.786 142.677 509.328 142.859 510.016 142.859ZM525.875 146H521.344V122H525.875V146ZM245.938 184.312C243.458 184.312 241.438 183.552 239.875 182.031C238.323 180.51 237.547 178.484 237.547 175.953V175.516C237.547 173.818 237.875 172.302 238.531 170.969C239.188 169.625 240.115 168.594 241.312 167.875C242.521 167.146 243.896 166.781 245.438 166.781C247.75 166.781 249.568 167.51 250.891 168.969C252.224 170.427 252.891 172.495 252.891 175.172V177.016H242.125C242.271 178.12 242.708 179.005 243.438 179.672C244.177 180.339 245.109 180.672 246.234 180.672C247.974 180.672 249.333 180.042 250.312 178.781L252.531 181.266C251.854 182.224 250.938 182.974 249.781 183.516C248.625 184.047 247.344 184.312 245.938 184.312ZM245.422 170.438C244.526 170.438 243.797 170.74 243.234 171.344C242.682 171.948 242.328 172.812 242.172 173.938H248.453V173.578C248.432 172.578 248.161 171.807 247.641 171.266C247.12 170.714 246.38 170.438 245.422 170.438ZM261.906 172.141L264.75 167.094H269.578L264.766 175.375L269.781 184H264.938L261.922 178.688L258.922 184H254.062L259.078 175.375L254.281 167.094H259.125L261.906 172.141ZM286.969 175.703C286.969 178.307 286.375 180.396 285.188 181.969C284.01 183.531 282.417 184.312 280.406 184.312C278.698 184.312 277.318 183.719 276.266 182.531V190.5H271.75V167.094H275.938L276.094 168.75C277.188 167.438 278.615 166.781 280.375 166.781C282.458 166.781 284.078 167.552 285.234 169.094C286.391 170.635 286.969 172.76 286.969 175.469V175.703ZM282.453 175.375C282.453 173.802 282.172 172.589 281.609 171.734C281.057 170.88 280.25 170.453 279.188 170.453C277.771 170.453 276.797 170.995 276.266 172.078V179C276.818 180.115 277.802 180.672 279.219 180.672C281.375 180.672 282.453 178.906 282.453 175.375ZM297.562 184.312C295.083 184.312 293.062 183.552 291.5 182.031C289.948 180.51 289.172 178.484 289.172 175.953V175.516C289.172 173.818 289.5 172.302 290.156 170.969C290.812 169.625 291.74 168.594 292.938 167.875C294.146 167.146 295.521 166.781 297.062 166.781C299.375 166.781 301.193 167.51 302.516 168.969C303.849 170.427 304.516 172.495 304.516 175.172V177.016H293.75C293.896 178.12 294.333 179.005 295.062 179.672C295.802 180.339 296.734 180.672 297.859 180.672C299.599 180.672 300.958 180.042 301.938 178.781L304.156 181.266C303.479 182.224 302.562 182.974 301.406 183.516C300.25 184.047 298.969 184.312 297.562 184.312ZM297.047 170.438C296.151 170.438 295.422 170.74 294.859 171.344C294.307 171.948 293.953 172.812 293.797 173.938H300.078V173.578C300.057 172.578 299.786 171.807 299.266 171.266C298.745 170.714 298.005 170.438 297.047 170.438ZM316.594 171.328C315.979 171.245 315.438 171.203 314.969 171.203C313.26 171.203 312.141 171.781 311.609 172.938V184H307.094V167.094H311.359L311.484 169.109C312.391 167.557 313.646 166.781 315.25 166.781C315.75 166.781 316.219 166.849 316.656 166.984L316.594 171.328ZM323.547 184H319.016V167.094H323.547V184ZM318.75 162.719C318.75 162.042 318.974 161.484 319.422 161.047C319.88 160.609 320.5 160.391 321.281 160.391C322.052 160.391 322.667 160.609 323.125 161.047C323.583 161.484 323.812 162.042 323.812 162.719C323.812 163.406 323.578 163.969 323.109 164.406C322.651 164.844 322.042 165.062 321.281 165.062C320.521 165.062 319.906 164.844 319.438 164.406C318.979 163.969 318.75 163.406 318.75 162.719ZM335.062 184.312C332.583 184.312 330.562 183.552 329 182.031C327.448 180.51 326.672 178.484 326.672 175.953V175.516C326.672 173.818 327 172.302 327.656 170.969C328.312 169.625 329.24 168.594 330.438 167.875C331.646 167.146 333.021 166.781 334.562 166.781C336.875 166.781 338.693 167.51 340.016 168.969C341.349 170.427 342.016 172.495 342.016 175.172V177.016H331.25C331.396 178.12 331.833 179.005 332.562 179.672C333.302 180.339 334.234 180.672 335.359 180.672C337.099 180.672 338.458 180.042 339.438 178.781L341.656 181.266C340.979 182.224 340.062 182.974 338.906 183.516C337.75 184.047 336.469 184.312 335.062 184.312ZM334.547 170.438C333.651 170.438 332.922 170.74 332.359 171.344C331.807 171.948 331.453 172.812 331.297 173.938H337.578V173.578C337.557 172.578 337.286 171.807 336.766 171.266C336.245 170.714 335.505 170.438 334.547 170.438ZM348.75 167.094L348.891 169.047C350.099 167.536 351.719 166.781 353.75 166.781C355.542 166.781 356.875 167.307 357.75 168.359C358.625 169.411 359.073 170.984 359.094 173.078V184H354.578V173.188C354.578 172.229 354.37 171.536 353.953 171.109C353.536 170.672 352.844 170.453 351.875 170.453C350.604 170.453 349.651 170.995 349.016 172.078V184H344.5V167.094H348.75ZM369.562 180.672C370.396 180.672 371.073 180.443 371.594 179.984C372.115 179.526 372.385 178.917 372.406 178.156H376.641C376.63 179.302 376.318 180.354 375.703 181.312C375.089 182.26 374.245 183 373.172 183.531C372.109 184.052 370.932 184.312 369.641 184.312C367.224 184.312 365.318 183.547 363.922 182.016C362.526 180.474 361.828 178.349 361.828 175.641V175.344C361.828 172.74 362.521 170.661 363.906 169.109C365.292 167.557 367.193 166.781 369.609 166.781C371.724 166.781 373.417 167.385 374.688 168.594C375.969 169.792 376.62 171.391 376.641 173.391H372.406C372.385 172.516 372.115 171.807 371.594 171.266C371.073 170.714 370.385 170.438 369.531 170.438C368.479 170.438 367.682 170.823 367.141 171.594C366.609 172.354 366.344 173.594 366.344 175.312V175.781C366.344 177.521 366.609 178.771 367.141 179.531C367.672 180.292 368.479 180.672 369.562 180.672ZM387 184.312C384.521 184.312 382.5 183.552 380.938 182.031C379.385 180.51 378.609 178.484 378.609 175.953V175.516C378.609 173.818 378.938 172.302 379.594 170.969C380.25 169.625 381.177 168.594 382.375 167.875C383.583 167.146 384.958 166.781 386.5 166.781C388.812 166.781 390.63 167.51 391.953 168.969C393.286 170.427 393.953 172.495 393.953 175.172V177.016H383.188C383.333 178.12 383.771 179.005 384.5 179.672C385.24 180.339 386.172 180.672 387.297 180.672C389.036 180.672 390.396 180.042 391.375 178.781L393.594 181.266C392.917 182.224 392 182.974 390.844 183.516C389.688 184.047 388.406 184.312 387 184.312ZM386.484 170.438C385.589 170.438 384.859 170.74 384.297 171.344C383.745 171.948 383.391 172.812 383.234 173.938H389.516V173.578C389.495 172.578 389.224 171.807 388.703 171.266C388.182 170.714 387.443 170.438 386.484 170.438ZM405.688 179.328C405.688 178.776 405.411 178.344 404.859 178.031C404.318 177.708 403.443 177.422 402.234 177.172C398.214 176.328 396.203 174.62 396.203 172.047C396.203 170.547 396.823 169.297 398.062 168.297C399.312 167.286 400.943 166.781 402.953 166.781C405.099 166.781 406.812 167.286 408.094 168.297C409.385 169.307 410.031 170.62 410.031 172.234H405.516C405.516 171.589 405.307 171.057 404.891 170.641C404.474 170.214 403.823 170 402.938 170C402.177 170 401.589 170.172 401.172 170.516C400.755 170.859 400.547 171.297 400.547 171.828C400.547 172.328 400.781 172.734 401.25 173.047C401.729 173.349 402.531 173.615 403.656 173.844C404.781 174.062 405.729 174.312 406.5 174.594C408.885 175.469 410.078 176.984 410.078 179.141C410.078 180.682 409.417 181.932 408.094 182.891C406.771 183.839 405.062 184.312 402.969 184.312C401.552 184.312 400.292 184.062 399.188 183.562C398.094 183.052 397.234 182.359 396.609 181.484C395.984 180.599 395.672 179.646 395.672 178.625H399.953C399.995 179.427 400.292 180.042 400.844 180.469C401.396 180.896 402.135 181.109 403.062 181.109C403.927 181.109 404.578 180.948 405.016 180.625C405.464 180.292 405.688 179.859 405.688 179.328ZM413.234 181.781C413.234 181.062 413.474 180.479 413.953 180.031C414.443 179.583 415.052 179.359 415.781 179.359C416.521 179.359 417.13 179.583 417.609 180.031C418.099 180.479 418.344 181.062 418.344 181.781C418.344 182.49 418.104 183.068 417.625 183.516C417.146 183.953 416.531 184.172 415.781 184.172C415.042 184.172 414.432 183.953 413.953 183.516C413.474 183.068 413.234 182.49 413.234 181.781Z" fill="white"/>
<defs>
<linearGradient id="paint0_linear" x1="0" y1="0" x2="821.831" y2="353.83" gradientUnits="userSpaceOnUse">
<stop stop-color="#F9930A"/>
<stop offset="1" stop-color="#B01EFF"/>
</linearGradient>
<linearGradient id="paint1_linear" x1="0" y1="0" x2="821.831" y2="353.83" gradientUnits="userSpaceOnUse">
<stop stop-color="#B01EFF"/>
<stop offset="1" stop-color="#E1467C"/>
</linearGradient>
</defs>
</svg>
