<svg width="656" height="739" viewBox="0 0 656 739" fill="none" xmlns="http://www.w3.org/2000/svg">
<rect width="656" height="739" rx="30" fill="url(#paint0_linear)"/>
<mask id="mask0" mask-type="alpha" maskUnits="userSpaceOnUse" x="0" y="0" width="656" height="739">
<rect width="656" height="739" rx="30" fill="url(#paint1_linear)"/>
</mask>
<g mask="url(#mask0)">
<path fill-rule="evenodd" clip-rule="evenodd" d="M645 241H34V774H645V241ZM240.046 330.944L233.384 324.757H225.294C221.488 324.757 213.398 328.564 212.446 330.944C212.119 331.762 211.453 332.581 210.741 333.458C209.382 335.13 207.851 337.013 208.164 339.51C208.498 342.19 208.362 349.585 208.252 355.555C208.205 358.067 208.164 360.327 208.164 361.877V375.678C208.164 376.548 207.765 377.707 207.333 378.964C206.348 381.829 205.187 385.207 208.164 386.861C209.827 387.785 210.885 387.98 211.533 388.1C212.22 388.226 212.446 388.268 212.446 389.003L215.777 393.286L228.15 396.141L240.046 393.286L245.28 389.003L249.563 382.34L252.418 375.678V368.539L242.901 359.021C240.205 350.773 235.858 333.609 240.046 330.944Z"/>
</g>
<path d="M326.367 71.4062L333.75 91.0234L341.115 71.4062H346.863V97H342.434V88.5625L342.873 77.2773L335.314 97H332.133L324.592 77.2949L325.031 88.5625V97H320.602V71.4062H326.367ZM367.096 85.5742H356.584V93.4492H368.871V97H352.137V71.4062H368.748V74.9922H356.584V82.0586H367.096V85.5742ZM372.492 97V71.4062H380.051C382.312 71.4062 384.316 71.9102 386.062 72.918C387.82 73.9258 389.18 75.3555 390.141 77.207C391.102 79.0586 391.582 81.1797 391.582 83.5703V84.8535C391.582 87.2793 391.096 89.4121 390.123 91.252C389.162 93.0918 387.785 94.5098 385.992 95.5059C384.211 96.502 382.166 97 379.857 97H372.492ZM376.939 74.9922V93.4492H379.84C382.172 93.4492 383.959 92.7227 385.201 91.2695C386.455 89.8047 387.094 87.707 387.117 84.9766V83.5527C387.117 80.7754 386.514 78.6543 385.307 77.1895C384.1 75.7246 382.348 74.9922 380.051 74.9922H376.939ZM400.705 97H396.275V71.4062H400.705V97ZM420.814 91.041H410.9L408.826 97H404.203L413.871 71.4062H417.861L427.547 97H422.906L420.814 91.041ZM412.148 87.4551H419.566L415.857 76.8379L412.148 87.4551Z" fill="white"/>
<path d="M231.259 73.3816V109.758C231.26 110.883 231.715 111.961 232.524 112.756C233.333 113.552 234.43 113.999 235.574 114H283.684C284.829 113.999 285.926 113.552 286.735 112.756C287.544 111.961 287.999 110.883 288 109.758V73.2411C288 72.9566 287.885 72.6838 287.68 72.4826C287.476 72.2815 287.198 72.1685 286.909 72.1685H240.643L285.338 60.3966C285.476 60.3602 285.606 60.2973 285.719 60.2115C285.833 60.1257 285.928 60.0188 286 59.8967C286.072 59.7747 286.118 59.64 286.137 59.5004C286.156 59.3607 286.146 59.2188 286.109 59.0827L283.844 50.7947C283.769 50.5201 283.586 50.286 283.336 50.1438C283.085 50.0016 282.787 49.963 282.508 50.0364L229.808 63.9169C229.529 63.9906 229.291 64.1702 229.146 64.4164C229.002 64.6626 228.962 64.9551 229.037 65.2298L231.259 73.3816ZM285.818 109.758C285.817 110.314 285.592 110.847 285.192 111.24C284.792 111.633 284.25 111.854 283.684 111.855H235.574C235.009 111.854 234.466 111.633 234.066 111.24C233.667 110.847 233.442 110.314 233.441 109.758V82.8945H285.818V109.758ZM233.441 80.7493V74.3137H237.354L243.901 80.7493H233.441ZM285.818 74.3137V80.7493H279.722L273.175 74.3137H285.818ZM270.089 74.3137L276.636 80.7493H268.811L262.263 74.3137H270.089ZM259.178 74.3137L265.725 80.7493H257.899L251.352 74.3137H259.178ZM248.266 74.3137L254.813 80.7493H246.987L240.44 74.3137H248.266ZM282.019 52.3854L283.713 58.6065L271.502 61.8243L276.131 53.9342L282.019 52.3854ZM273.15 54.7215L268.52 62.6041L260.962 64.5948L265.592 56.7122L273.15 54.7215ZM262.61 57.4974L257.981 65.38L250.422 67.3707L255.052 59.4881L262.61 57.4974ZM252.07 60.2733L247.441 68.1559L239.879 70.1466L244.508 62.264L252.07 60.2733ZM241.53 63.0513L236.901 70.9328L233.121 71.9282L231.427 65.7071L241.53 63.0513Z" fill="white"/>
<path d="M251.954 102.201H255.009L265.691 107.457C265.858 107.539 266.043 107.577 266.229 107.568C266.415 107.559 266.595 107.504 266.753 107.407C266.911 107.31 267.042 107.175 267.132 107.015C267.222 106.855 267.268 106.675 267.268 106.492V87.1849C267.269 87.0016 267.222 86.8211 267.132 86.6606C267.042 86.5002 266.911 86.3651 266.753 86.2683C266.594 86.1714 266.413 86.1161 266.227 86.1076C266.041 86.0991 265.855 86.1376 265.689 86.2196L255.007 91.4753H251.952C251.094 91.4768 250.272 91.8125 249.666 92.4088C249.059 93.0052 248.718 93.8136 248.718 94.6567V99.02C248.718 99.8635 249.06 100.672 249.666 101.269C250.273 101.865 251.096 102.201 251.954 102.201ZM256.356 93.2108L265.085 88.9204V104.756L256.356 100.466V93.2108ZM250.9 94.6567C250.9 94.382 251.011 94.1186 251.209 93.9243C251.407 93.7301 251.674 93.6208 251.954 93.6205H254.173V100.056H251.954C251.674 100.056 251.407 99.9466 251.209 99.7524C251.011 99.5581 250.9 99.2947 250.9 99.02V94.6567Z" fill="white"/>
<path d="M273.452 88.2957L269.24 89.4229L269.814 91.4927L274.025 90.3656L273.452 88.2957Z" fill="white"/>
<path d="M273.815 95.7656H269.45V97.9108H273.815V95.7656Z" fill="white"/>
<path d="M269.814 102.184L269.24 104.253L273.451 105.382L274.025 103.312L269.814 102.184Z" fill="white"/>
<path d="M145.047 152.422C144.87 154.87 143.964 156.797 142.328 158.203C140.703 159.609 138.557 160.312 135.891 160.312C132.974 160.312 130.677 159.333 129 157.375C127.333 155.406 126.5 152.708 126.5 149.281V147.891C126.5 145.703 126.885 143.776 127.656 142.109C128.427 140.443 129.526 139.167 130.953 138.281C132.391 137.385 134.057 136.938 135.953 136.938C138.578 136.938 140.693 137.641 142.297 139.047C143.901 140.453 144.828 142.427 145.078 144.969H140.391C140.276 143.5 139.865 142.438 139.156 141.781C138.458 141.115 137.391 140.781 135.953 140.781C134.391 140.781 133.219 141.344 132.438 142.469C131.667 143.583 131.271 145.318 131.25 147.672V149.391C131.25 151.849 131.62 153.646 132.359 154.781C133.109 155.917 134.286 156.484 135.891 156.484C137.339 156.484 138.417 156.156 139.125 155.5C139.844 154.833 140.255 153.807 140.359 152.422H145.047ZM157.625 160C157.417 159.594 157.266 159.089 157.172 158.484C156.078 159.703 154.656 160.312 152.906 160.312C151.25 160.312 149.875 159.833 148.781 158.875C147.698 157.917 147.156 156.708 147.156 155.25C147.156 153.458 147.818 152.083 149.141 151.125C150.474 150.167 152.396 149.682 154.906 149.672H156.984V148.703C156.984 147.922 156.781 147.297 156.375 146.828C155.979 146.359 155.349 146.125 154.484 146.125C153.724 146.125 153.125 146.307 152.688 146.672C152.26 147.036 152.047 147.536 152.047 148.172H147.531C147.531 147.193 147.833 146.286 148.438 145.453C149.042 144.62 149.896 143.969 151 143.5C152.104 143.021 153.344 142.781 154.719 142.781C156.802 142.781 158.453 143.307 159.672 144.359C160.901 145.401 161.516 146.87 161.516 148.766V156.094C161.526 157.698 161.75 158.911 162.188 159.734V160H157.625ZM153.891 156.859C154.557 156.859 155.172 156.714 155.734 156.422C156.297 156.12 156.714 155.719 156.984 155.219V152.312H155.297C153.036 152.312 151.833 153.094 151.688 154.656L151.672 154.922C151.672 155.484 151.87 155.948 152.266 156.312C152.661 156.677 153.203 156.859 153.891 156.859ZM180.203 151.703C180.203 154.307 179.609 156.396 178.422 157.969C177.245 159.531 175.651 160.312 173.641 160.312C171.932 160.312 170.552 159.719 169.5 158.531V166.5H164.984V143.094H169.172L169.328 144.75C170.422 143.438 171.849 142.781 173.609 142.781C175.693 142.781 177.312 143.552 178.469 145.094C179.625 146.635 180.203 148.76 180.203 151.469V151.703ZM175.688 151.375C175.688 149.802 175.406 148.589 174.844 147.734C174.292 146.88 173.484 146.453 172.422 146.453C171.005 146.453 170.031 146.995 169.5 148.078V155C170.052 156.115 171.036 156.672 172.453 156.672C174.609 156.672 175.688 154.906 175.688 151.375ZM188.422 138.938V143.094H191.312V146.406H188.422V154.844C188.422 155.469 188.542 155.917 188.781 156.188C189.021 156.458 189.479 156.594 190.156 156.594C190.656 156.594 191.099 156.557 191.484 156.484V159.906C190.599 160.177 189.688 160.312 188.75 160.312C185.583 160.312 183.969 158.714 183.906 155.516V146.406H181.438V143.094H183.906V138.938H188.422ZM203.953 158.281C202.839 159.635 201.297 160.312 199.328 160.312C197.516 160.312 196.13 159.792 195.172 158.75C194.224 157.708 193.74 156.182 193.719 154.172V143.094H198.234V154.016C198.234 155.776 199.036 156.656 200.641 156.656C202.172 156.656 203.224 156.125 203.797 155.062V143.094H208.328V160H204.078L203.953 158.281ZM221.234 147.328C220.62 147.245 220.078 147.203 219.609 147.203C217.901 147.203 216.781 147.781 216.25 148.938V160H211.734V143.094H216L216.125 145.109C217.031 143.557 218.286 142.781 219.891 142.781C220.391 142.781 220.859 142.849 221.297 142.984L221.234 147.328ZM230.891 160.312C228.411 160.312 226.391 159.552 224.828 158.031C223.276 156.51 222.5 154.484 222.5 151.953V151.516C222.5 149.818 222.828 148.302 223.484 146.969C224.141 145.625 225.068 144.594 226.266 143.875C227.474 143.146 228.849 142.781 230.391 142.781C232.703 142.781 234.521 143.51 235.844 144.969C237.177 146.427 237.844 148.495 237.844 151.172V153.016H227.078C227.224 154.12 227.661 155.005 228.391 155.672C229.13 156.339 230.062 156.672 231.188 156.672C232.927 156.672 234.286 156.042 235.266 154.781L237.484 157.266C236.807 158.224 235.891 158.974 234.734 159.516C233.578 160.047 232.297 160.312 230.891 160.312ZM230.375 146.438C229.479 146.438 228.75 146.74 228.188 147.344C227.635 147.948 227.281 148.812 227.125 149.938H233.406V149.578C233.385 148.578 233.115 147.807 232.594 147.266C232.073 146.714 231.333 146.438 230.375 146.438ZM253.797 138.938V143.094H256.688V146.406H253.797V154.844C253.797 155.469 253.917 155.917 254.156 156.188C254.396 156.458 254.854 156.594 255.531 156.594C256.031 156.594 256.474 156.557 256.859 156.484V159.906C255.974 160.177 255.062 160.312 254.125 160.312C250.958 160.312 249.344 158.714 249.281 155.516V146.406H246.812V143.094H249.281V138.938H253.797ZM263.969 160H259.438V143.094H263.969V160ZM259.172 138.719C259.172 138.042 259.396 137.484 259.844 137.047C260.302 136.609 260.922 136.391 261.703 136.391C262.474 136.391 263.089 136.609 263.547 137.047C264.005 137.484 264.234 138.042 264.234 138.719C264.234 139.406 264 139.969 263.531 140.406C263.073 140.844 262.464 141.062 261.703 141.062C260.943 141.062 260.328 140.844 259.859 140.406C259.401 139.969 259.172 139.406 259.172 138.719ZM271.938 143.094L272.078 144.984C273.276 143.516 274.896 142.781 276.938 142.781C279.115 142.781 280.609 143.641 281.422 145.359C282.609 143.641 284.302 142.781 286.5 142.781C288.333 142.781 289.698 143.318 290.594 144.391C291.49 145.453 291.938 147.057 291.938 149.203V160H287.406V149.219C287.406 148.26 287.219 147.562 286.844 147.125C286.469 146.677 285.807 146.453 284.859 146.453C283.505 146.453 282.568 147.099 282.047 148.391L282.062 160H277.547V149.234C277.547 148.255 277.354 147.547 276.969 147.109C276.583 146.672 275.927 146.453 275 146.453C273.719 146.453 272.792 146.984 272.219 148.047V160H267.703V143.094H271.938ZM303.203 160.312C300.724 160.312 298.703 159.552 297.141 158.031C295.589 156.51 294.812 154.484 294.812 151.953V151.516C294.812 149.818 295.141 148.302 295.797 146.969C296.453 145.625 297.38 144.594 298.578 143.875C299.786 143.146 301.161 142.781 302.703 142.781C305.016 142.781 306.833 143.51 308.156 144.969C309.49 146.427 310.156 148.495 310.156 151.172V153.016H299.391C299.536 154.12 299.974 155.005 300.703 155.672C301.443 156.339 302.375 156.672 303.5 156.672C305.24 156.672 306.599 156.042 307.578 154.781L309.797 157.266C309.12 158.224 308.203 158.974 307.047 159.516C305.891 160.047 304.609 160.312 303.203 160.312ZM302.688 146.438C301.792 146.438 301.062 146.74 300.5 147.344C299.948 147.948 299.594 148.812 299.438 149.938H305.719V149.578C305.698 148.578 305.427 147.807 304.906 147.266C304.385 146.714 303.646 146.438 302.688 146.438ZM317.5 160H312.969V136H317.5V160ZM329.016 160.312C326.536 160.312 324.516 159.552 322.953 158.031C321.401 156.51 320.625 154.484 320.625 151.953V151.516C320.625 149.818 320.953 148.302 321.609 146.969C322.266 145.625 323.193 144.594 324.391 143.875C325.599 143.146 326.974 142.781 328.516 142.781C330.828 142.781 332.646 143.51 333.969 144.969C335.302 146.427 335.969 148.495 335.969 151.172V153.016H325.203C325.349 154.12 325.786 155.005 326.516 155.672C327.255 156.339 328.188 156.672 329.312 156.672C331.052 156.672 332.411 156.042 333.391 154.781L335.609 157.266C334.932 158.224 334.016 158.974 332.859 159.516C331.703 160.047 330.422 160.312 329.016 160.312ZM328.5 146.438C327.604 146.438 326.875 146.74 326.312 147.344C325.76 147.948 325.406 148.812 325.25 149.938H331.531V149.578C331.51 148.578 331.24 147.807 330.719 147.266C330.198 146.714 329.458 146.438 328.5 146.438ZM347.703 155.328C347.703 154.776 347.427 154.344 346.875 154.031C346.333 153.708 345.458 153.422 344.25 153.172C340.229 152.328 338.219 150.62 338.219 148.047C338.219 146.547 338.839 145.297 340.078 144.297C341.328 143.286 342.958 142.781 344.969 142.781C347.115 142.781 348.828 143.286 350.109 144.297C351.401 145.307 352.047 146.62 352.047 148.234H347.531C347.531 147.589 347.323 147.057 346.906 146.641C346.49 146.214 345.839 146 344.953 146C344.193 146 343.604 146.172 343.188 146.516C342.771 146.859 342.562 147.297 342.562 147.828C342.562 148.328 342.797 148.734 343.266 149.047C343.745 149.349 344.547 149.615 345.672 149.844C346.797 150.062 347.745 150.312 348.516 150.594C350.901 151.469 352.094 152.984 352.094 155.141C352.094 156.682 351.432 157.932 350.109 158.891C348.786 159.839 347.078 160.312 344.984 160.312C343.568 160.312 342.307 160.062 341.203 159.562C340.109 159.052 339.25 158.359 338.625 157.484C338 156.599 337.688 155.646 337.688 154.625H341.969C342.01 155.427 342.307 156.042 342.859 156.469C343.411 156.896 344.151 157.109 345.078 157.109C345.943 157.109 346.594 156.948 347.031 156.625C347.479 156.292 347.703 155.859 347.703 155.328ZM364.172 155.328C364.172 154.776 363.896 154.344 363.344 154.031C362.802 153.708 361.927 153.422 360.719 153.172C356.698 152.328 354.688 150.62 354.688 148.047C354.688 146.547 355.307 145.297 356.547 144.297C357.797 143.286 359.427 142.781 361.438 142.781C363.583 142.781 365.297 143.286 366.578 144.297C367.87 145.307 368.516 146.62 368.516 148.234H364C364 147.589 363.792 147.057 363.375 146.641C362.958 146.214 362.307 146 361.422 146C360.661 146 360.073 146.172 359.656 146.516C359.24 146.859 359.031 147.297 359.031 147.828C359.031 148.328 359.266 148.734 359.734 149.047C360.214 149.349 361.016 149.615 362.141 149.844C363.266 150.062 364.214 150.312 364.984 150.594C367.37 151.469 368.562 152.984 368.562 155.141C368.562 156.682 367.901 157.932 366.578 158.891C365.255 159.839 363.547 160.312 361.453 160.312C360.036 160.312 358.776 160.062 357.672 159.562C356.578 159.052 355.719 158.359 355.094 157.484C354.469 156.599 354.156 155.646 354.156 154.625H358.438C358.479 155.427 358.776 156.042 359.328 156.469C359.88 156.896 360.62 157.109 361.547 157.109C362.411 157.109 363.062 156.948 363.5 156.625C363.948 156.292 364.172 155.859 364.172 155.328ZM383.688 143.094L383.828 144.984C385.026 143.516 386.646 142.781 388.688 142.781C390.865 142.781 392.359 143.641 393.172 145.359C394.359 143.641 396.052 142.781 398.25 142.781C400.083 142.781 401.448 143.318 402.344 144.391C403.24 145.453 403.688 147.057 403.688 149.203V160H399.156V149.219C399.156 148.26 398.969 147.562 398.594 147.125C398.219 146.677 397.557 146.453 396.609 146.453C395.255 146.453 394.318 147.099 393.797 148.391L393.812 160H389.297V149.234C389.297 148.255 389.104 147.547 388.719 147.109C388.333 146.672 387.677 146.453 386.75 146.453C385.469 146.453 384.542 146.984 383.969 148.047V160H379.453V143.094H383.688ZM414.953 160.312C412.474 160.312 410.453 159.552 408.891 158.031C407.339 156.51 406.562 154.484 406.562 151.953V151.516C406.562 149.818 406.891 148.302 407.547 146.969C408.203 145.625 409.13 144.594 410.328 143.875C411.536 143.146 412.911 142.781 414.453 142.781C416.766 142.781 418.583 143.51 419.906 144.969C421.24 146.427 421.906 148.495 421.906 151.172V153.016H411.141C411.286 154.12 411.724 155.005 412.453 155.672C413.193 156.339 414.125 156.672 415.25 156.672C416.99 156.672 418.349 156.042 419.328 154.781L421.547 157.266C420.87 158.224 419.953 158.974 418.797 159.516C417.641 160.047 416.359 160.312 414.953 160.312ZM414.438 146.438C413.542 146.438 412.812 146.74 412.25 147.344C411.698 147.948 411.344 148.812 411.188 149.938H417.469V149.578C417.448 148.578 417.177 147.807 416.656 147.266C416.135 146.714 415.396 146.438 414.438 146.438ZM428.719 143.094L428.859 144.984C430.057 143.516 431.677 142.781 433.719 142.781C435.896 142.781 437.391 143.641 438.203 145.359C439.391 143.641 441.083 142.781 443.281 142.781C445.115 142.781 446.479 143.318 447.375 144.391C448.271 145.453 448.719 147.057 448.719 149.203V160H444.188V149.219C444.188 148.26 444 147.562 443.625 147.125C443.25 146.677 442.589 146.453 441.641 146.453C440.286 146.453 439.349 147.099 438.828 148.391L438.844 160H434.328V149.234C434.328 148.255 434.135 147.547 433.75 147.109C433.365 146.672 432.708 146.453 431.781 146.453C430.5 146.453 429.573 146.984 429 148.047V160H424.484V143.094H428.719ZM451.5 151.391C451.5 149.714 451.823 148.219 452.469 146.906C453.115 145.594 454.042 144.578 455.25 143.859C456.469 143.141 457.88 142.781 459.484 142.781C461.766 142.781 463.625 143.479 465.062 144.875C466.51 146.271 467.318 148.167 467.484 150.562L467.516 151.719C467.516 154.312 466.792 156.396 465.344 157.969C463.896 159.531 461.953 160.312 459.516 160.312C457.078 160.312 455.13 159.531 453.672 157.969C452.224 156.406 451.5 154.281 451.5 151.594V151.391ZM456.016 151.719C456.016 153.323 456.318 154.552 456.922 155.406C457.526 156.25 458.391 156.672 459.516 156.672C460.609 156.672 461.464 156.255 462.078 155.422C462.693 154.578 463 153.234 463 151.391C463 149.818 462.693 148.599 462.078 147.734C461.464 146.87 460.599 146.438 459.484 146.438C458.38 146.438 457.526 146.87 456.922 147.734C456.318 148.589 456.016 149.917 456.016 151.719ZM479.797 147.328C479.182 147.245 478.641 147.203 478.172 147.203C476.464 147.203 475.344 147.781 474.812 148.938V160H470.297V143.094H474.562L474.688 145.109C475.594 143.557 476.849 142.781 478.453 142.781C478.953 142.781 479.422 142.849 479.859 142.984L479.797 147.328ZM486.75 160H482.219V143.094H486.75V160ZM481.953 138.719C481.953 138.042 482.177 137.484 482.625 137.047C483.083 136.609 483.703 136.391 484.484 136.391C485.255 136.391 485.87 136.609 486.328 137.047C486.786 137.484 487.016 138.042 487.016 138.719C487.016 139.406 486.781 139.969 486.312 140.406C485.854 140.844 485.245 141.062 484.484 141.062C483.724 141.062 483.109 140.844 482.641 140.406C482.182 139.969 481.953 139.406 481.953 138.719ZM498.266 160.312C495.786 160.312 493.766 159.552 492.203 158.031C490.651 156.51 489.875 154.484 489.875 151.953V151.516C489.875 149.818 490.203 148.302 490.859 146.969C491.516 145.625 492.443 144.594 493.641 143.875C494.849 143.146 496.224 142.781 497.766 142.781C500.078 142.781 501.896 143.51 503.219 144.969C504.552 146.427 505.219 148.495 505.219 151.172V153.016H494.453C494.599 154.12 495.036 155.005 495.766 155.672C496.505 156.339 497.438 156.672 498.562 156.672C500.302 156.672 501.661 156.042 502.641 154.781L504.859 157.266C504.182 158.224 503.266 158.974 502.109 159.516C500.953 160.047 499.672 160.312 498.266 160.312ZM497.75 146.438C496.854 146.438 496.125 146.74 495.562 147.344C495.01 147.948 494.656 148.812 494.5 149.938H500.781V149.578C500.76 148.578 500.49 147.807 499.969 147.266C499.448 146.714 498.708 146.438 497.75 146.438ZM516.953 155.328C516.953 154.776 516.677 154.344 516.125 154.031C515.583 153.708 514.708 153.422 513.5 153.172C509.479 152.328 507.469 150.62 507.469 148.047C507.469 146.547 508.089 145.297 509.328 144.297C510.578 143.286 512.208 142.781 514.219 142.781C516.365 142.781 518.078 143.286 519.359 144.297C520.651 145.307 521.297 146.62 521.297 148.234H516.781C516.781 147.589 516.573 147.057 516.156 146.641C515.74 146.214 515.089 146 514.203 146C513.443 146 512.854 146.172 512.438 146.516C512.021 146.859 511.812 147.297 511.812 147.828C511.812 148.328 512.047 148.734 512.516 149.047C512.995 149.349 513.797 149.615 514.922 149.844C516.047 150.062 516.995 150.312 517.766 150.594C520.151 151.469 521.344 152.984 521.344 155.141C521.344 156.682 520.682 157.932 519.359 158.891C518.036 159.839 516.328 160.312 514.234 160.312C512.818 160.312 511.557 160.062 510.453 159.562C509.359 159.052 508.5 158.359 507.875 157.484C507.25 156.599 506.938 155.646 506.938 154.625H511.219C511.26 155.427 511.557 156.042 512.109 156.469C512.661 156.896 513.401 157.109 514.328 157.109C515.193 157.109 515.844 156.948 516.281 156.625C516.729 156.292 516.953 155.859 516.953 155.328ZM524.5 157.781C524.5 157.062 524.74 156.479 525.219 156.031C525.708 155.583 526.318 155.359 527.047 155.359C527.786 155.359 528.396 155.583 528.875 156.031C529.365 156.479 529.609 157.062 529.609 157.781C529.609 158.49 529.37 159.068 528.891 159.516C528.411 159.953 527.797 160.172 527.047 160.172C526.307 160.172 525.698 159.953 525.219 159.516C524.74 159.068 524.5 158.49 524.5 157.781Z" fill="white"/>
<defs>
<linearGradient id="paint0_linear" x1="0" y1="0" x2="821.831" y2="353.83" gradientUnits="userSpaceOnUse">
<stop stop-color="#2BA5EB"/>
<stop offset="1" stop-color="#BB0AF9"/>
</linearGradient>
<linearGradient id="paint1_linear" x1="0" y1="0" x2="821.831" y2="353.83" gradientUnits="userSpaceOnUse">
<stop stop-color="#B01EFF"/>
<stop offset="1" stop-color="#E1467C"/>
</linearGradient>
</defs>
</svg>
