<?xml version="1.0"?>
<svg xmlns="http://www.w3.org/2000/svg" viewBox="0 0 512 512" width="80px" height="80px"><g><g id="Out_line" data-name="Out line"><path d="M296,195.31445l30.34277,30.34278a25.0004,25.0004,0,0,0,35.31446,0l84-84a8.00122,8.00122,0,0,0,0-11.31446l-112-112a8.003,8.003,0,0,0-11.31446,0L264,76.68555,233.65723,46.34277a25.00276,25.00276,0,0,0-35.31446,0L120,124.68555l-18.34277-18.34278a8.003,8.003,0,0,0-11.31446,0l-24,24a8.00122,8.00122,0,0,0,0,11.31446L220.68555,296l-10.34278,10.34277A8.00235,8.00235,0,0,0,208,312v44.68652l-7.99976,7.99927-2.343-2.343a8.003,8.003,0,0,0-11.31446,0l-120,120,11.31446,11.31446L192,379.31348,268.68652,456l-26.34375,26.34277,11.31446,11.31446,32-32a8.00122,8.00122,0,0,0,0-11.31446L275.31445,440,320,395.31445l74.34277,74.34278a8.00181,8.00181,0,0,0,11.31446,0l24-24a8.00122,8.00122,0,0,0,0-11.31446L355.31445,360l10.34278-10.34277a8.00122,8.00122,0,0,0,0-11.31446l-64-64a8.003,8.003,0,0,0-11.31446,0l-.70117.70118a41.62174,41.62174,0,0,0-11.98437-24.70118,8.003,8.003,0,0,0-11.31446,0L256,260.68555,243.31445,248Zm38.34277-12.97168-8,8a24.835,24.835,0,0,0-5.15942,7.52613L307.31445,184l14.34278-14.34277a8.97,8.97,0,0,1,12.68554,12.68554ZM328,35.31348,428.68652,136l-78.34375,78.34277a8.97,8.97,0,0,1-12.68554-12.68554l8-8a24.97439,24.97439,0,0,0,0-35.31446L275.31445,88ZM209.65723,57.65723a8.979,8.979,0,0,1,12.68554,0l95.52149,95.5205a24.86107,24.86107,0,0,0-7.52149,5.165L208,260.68555,107.314,160.00049ZM96,123.31348,108.68555,136l-12.686,12.686L83.31348,136ZM412.68652,440,400,452.68652,331.31445,384,344,371.31445ZM296,291.31348,348.68652,344,320,372.68652,267.31348,320l10.34326-10.34326.00049.00049.01953-.02051Zm-24.88477-23.11524a25.981,25.981,0,0,1-4.77246,30.14453l-16,16a8.00122,8.00122,0,0,0,0,11.31446,37.29483,37.29483,0,0,1,0,52.68554l11.31446,11.31446a53.07235,53.07235,0,0,0,15.56006-37.12549L308.68555,384,264,428.68555,211.31445,376l10.34278-10.34277A8.00235,8.00235,0,0,0,224,360V315.31348ZM244.68555,272,232,284.68555,219.31445,272,232,259.31445Z" data-original="#000000" class="active-path" data-old_color="#000000" fill="#000000"/></g></g> </svg>
