<svg width="64" height="64" viewBox="0 0 64 64" fill="none" xmlns="http://www.w3.org/2000/svg">
<path d="M14.9153 0C6.69111 0 0 6.69111 0 14.916C0 23.1409 6.69111 29.832 14.9153 29.832C23.1401 29.832 29.832 23.1409 29.832 14.916C29.8313 6.69111 23.1401 0 14.9153 0ZM14.9153 26.7723C8.37775 26.7723 3.05971 21.4535 3.05971 14.916C3.05971 8.37846 8.37775 3.06042 14.9153 3.06042C21.4528 3.06042 26.7715 8.37846 26.7715 14.916C26.7715 21.4535 21.4528 26.7723 14.9153 26.7723Z" fill="black"/>
<path d="M49.0839 29.832C53.0687 29.832 56.8138 28.2804 59.6303 25.4632C62.4476 22.646 63.9998 18.9001 63.9998 14.916C63.9998 10.9319 62.4476 7.18672 59.6311 4.36877C56.8138 1.55154 53.0672 0 49.0839 0C45.1005 0 41.3539 1.55225 38.5366 4.36877C32.7209 10.1846 32.7209 19.6474 38.5366 25.4632C41.3539 28.2804 45.0998 29.832 49.0839 29.832ZM37.4814 17.3244L51.4979 3.30645C52.3448 3.48066 53.1661 3.74802 53.949 4.1007L38.2721 19.7775C37.9173 18.9854 37.6535 18.1627 37.4814 17.3244ZM56.6169 5.76033C56.9112 6.0028 57.195 6.25949 57.468 6.53254C57.7403 6.80488 57.9977 7.0893 58.2395 7.38297L41.5501 24.0723C41.2572 23.8299 40.972 23.5725 40.7004 23.3001C40.4259 23.0264 40.17 22.7412 39.9289 22.449L56.6169 5.76033ZM60.6934 12.5012L46.6684 26.5255C45.8215 26.3513 45.0009 26.0832 44.2173 25.7313L59.8991 10.0502C60.2511 10.8338 60.5185 11.6543 60.6934 12.5012ZM57.4673 23.2994C55.6583 25.1084 53.3673 26.2603 50.885 26.6357L60.8036 16.7171C60.4275 19.2001 59.2762 21.4912 57.4673 23.2994ZM40.7004 6.53254C42.5086 4.7236 44.7997 3.57167 47.282 3.19623L37.3726 13.1049C37.7424 10.698 38.8495 8.38273 40.7004 6.53254Z" fill="black"/>
<path d="M14.9153 34.168C6.69111 34.168 0 40.8591 0 49.0839C0 57.3088 6.69111 63.9999 14.9153 63.9999C23.1401 63.9999 29.832 57.3088 29.832 49.0839C29.832 40.8591 23.1401 34.168 14.9153 34.168ZM14.9153 60.9395C8.37775 60.9395 3.05971 55.6208 3.05971 49.0832C3.05971 42.5457 8.37775 37.227 14.9153 37.227C21.4528 37.227 26.7715 42.5457 26.7715 49.0832C26.7715 55.6208 21.4528 60.9395 14.9153 60.9395Z" fill="black"/>
<path d="M49.0839 34.168C40.8591 34.168 34.168 40.8591 34.168 49.0839C34.168 57.3088 40.8584 63.9999 49.0839 63.9999C57.3074 63.9999 63.9999 57.3088 63.9999 49.0839C63.9999 40.8591 57.3074 34.168 49.0839 34.168ZM49.0839 60.9395C42.5464 60.9395 37.2277 55.6208 37.2277 49.0832C37.2277 42.5457 42.5457 37.227 49.0839 37.227C55.6208 37.227 60.9402 42.5457 60.9402 49.0832C60.9402 55.6208 55.6208 60.9395 49.0839 60.9395Z" fill="black"/>
</svg>
