<svg width="75" height="57" viewBox="0 0 75 57" fill="none" xmlns="http://www.w3.org/2000/svg">
<path d="M5.11364 0C2.31017 0 0 2.34097 0 5.18182V55.2727C4.51992e-05 55.7308 0.179645 56.1701 0.4993 56.494C0.818954 56.818 1.25249 57 1.70455 57H73.2955C73.7475 57 74.181 56.818 74.5007 56.494C74.8204 56.1701 75 55.7308 75 55.2727V5.18182C75 2.34097 72.6898 0 69.8864 0H5.11364ZM5.11364 3.45455H69.8864C70.8602 3.45455 71.5909 4.19498 71.5909 5.18182V12.0909H3.40909V5.18182C3.40909 4.19498 4.13978 3.45455 5.11364 3.45455ZM7.67045 6.04545C6.72906 6.04545 5.96591 6.81878 5.96591 7.77273C5.96591 8.72667 6.72906 9.5 7.67045 9.5C8.61185 9.5 9.375 8.72667 9.375 7.77273C9.375 6.81878 8.61185 6.04545 7.67045 6.04545ZM13.6364 6.04545C12.695 6.04545 11.9318 6.81878 11.9318 7.77273C11.9318 8.72667 12.695 9.5 13.6364 9.5C14.5778 9.5 15.3409 8.72667 15.3409 7.77273C15.3409 6.81878 14.5778 6.04545 13.6364 6.04545ZM19.6023 6.04545C18.6609 6.04545 17.8977 6.81878 17.8977 7.77273C17.8977 8.72667 18.6609 9.5 19.6023 9.5C20.5437 9.5 21.3068 8.72667 21.3068 7.77273C21.3068 6.81878 20.5437 6.04545 19.6023 6.04545ZM3.40909 15.5455H71.5909V53.5455H3.40909V15.5455ZM42.4006 19.8366C42.0969 19.8802 41.8104 20.006 41.5713 20.2007C41.3323 20.3955 41.1495 20.652 41.0423 20.9432L30.815 46.8523C30.6982 47.0668 30.6279 47.3041 30.6085 47.5483C30.5892 47.7926 30.6214 48.0382 30.7029 48.2689C30.7844 48.4995 30.9134 48.71 31.0814 48.8863C31.2493 49.0625 31.4524 49.2006 31.677 49.2912C31.9016 49.3819 32.1427 49.4231 32.3843 49.4121C32.6258 49.4011 32.8623 49.3382 33.078 49.2275C33.2937 49.1168 33.4837 48.9609 33.6354 48.77C33.7871 48.5792 33.8969 48.3579 33.9577 48.1207L44.185 22.2116C44.299 21.9326 44.3388 21.6281 44.3004 21.3285C44.262 21.029 44.1468 20.7449 43.9662 20.5046C43.7857 20.2643 43.5461 20.0761 43.2713 19.9589C42.9966 19.8417 42.6964 19.7996 42.4006 19.8366V19.8366ZM25.4084 24.1548C25.1423 24.1842 24.8869 24.2767 24.6626 24.4247L11.0263 33.0611C10.7785 33.2157 10.5739 33.4321 10.4319 33.6896C10.29 33.947 10.2155 34.237 10.2155 34.532C10.2155 34.8269 10.29 35.1169 10.4319 35.3744C10.5739 35.6318 10.7785 35.8482 11.0263 36.0028L24.6626 44.6392C25.0476 44.8801 25.5109 44.9566 25.9514 44.8521C26.3919 44.7477 26.7736 44.4707 27.013 44.0817C27.2525 43.6928 27.3302 43.2236 27.2291 42.7768C27.128 42.3299 26.8564 41.9419 26.4737 41.6974L15.1545 34.5455L26.4737 27.3665C26.8157 27.1676 27.079 26.8548 27.2189 26.4812C27.3589 26.1077 27.3667 25.6966 27.241 25.3179C27.1154 24.9391 26.8641 24.6163 26.53 24.4042C26.1958 24.1922 25.7995 24.104 25.4084 24.1548ZM49.3519 24.1548C48.9826 24.1648 48.6264 24.2962 48.3371 24.5291C48.0478 24.762 47.841 25.0839 47.7478 25.4462C47.6547 25.8085 47.6802 26.1917 47.8206 26.538C47.961 26.8844 48.2087 27.1751 48.5263 27.3665L59.8455 34.5455L48.5263 41.6974C48.1436 41.9419 47.872 42.3299 47.7709 42.7768C47.6698 43.2236 47.7475 43.6928 47.987 44.0817C48.2264 44.4707 48.6081 44.7477 49.0486 44.8521C49.4891 44.9566 49.9524 44.8801 50.3374 44.6392L63.9737 36.0028C64.2215 35.8482 64.4261 35.6318 64.5681 35.3744C64.71 35.1169 64.7845 34.8269 64.7845 34.532C64.7845 34.237 64.71 33.947 64.5681 33.6896C64.4261 33.4321 64.2215 33.2157 63.9737 33.0611L50.3374 24.4247C50.0438 24.2349 49.6999 24.1407 49.3519 24.1548Z" fill="black"/>
</svg>
