<svg width="59" height="64" viewBox="0 0 59 64" fill="none" xmlns="http://www.w3.org/2000/svg">
<path d="M2.25863 23.3816V59.7579C2.25979 60.8826 2.71484 61.9609 3.52392 62.7562C4.33301 63.5516 5.43003 63.9989 6.57425 64H54.6844C55.8286 63.9989 56.9256 63.5516 57.7347 62.7562C58.5438 61.9609 58.9988 60.8826 59 59.7579V23.2411C59 22.9566 58.885 22.6838 58.6804 22.4826C58.4758 22.2815 58.1982 22.1685 57.9088 22.1685H11.6428L56.3375 10.3966C56.476 10.3602 56.6057 10.2973 56.7194 10.2115C56.8331 10.1257 56.9285 10.0188 57.0001 9.89675C57.0718 9.77474 57.1183 9.64004 57.1369 9.50037C57.1556 9.36069 57.1461 9.21877 57.109 9.0827L54.8437 0.79469C54.7688 0.52011 54.586 0.286004 54.3356 0.143811C54.0851 0.00161747 53.7875 -0.0370303 53.5081 0.036359L0.808453 13.9169C0.529118 13.9906 0.290957 14.1702 0.146301 14.4164C0.00164568 14.6626 -0.0376717 14.9551 0.0369887 15.2298L2.25863 23.3816ZM56.8176 59.7579C56.8171 60.3138 56.5921 60.8469 56.1922 61.24C55.7922 61.6331 55.25 61.8542 54.6844 61.8548H6.57425C6.00865 61.8542 5.46638 61.6331 5.06645 61.24C4.66651 60.8469 4.44157 60.3138 4.44099 59.7579V32.8945H56.8176V59.7579ZM4.44099 30.7493V24.3137H8.35396L14.901 30.7493H4.44099ZM56.8176 24.3137V30.7493H50.7223L44.1752 24.3137H56.8176ZM41.0894 24.3137L47.6364 30.7493H39.8105L33.2634 24.3137H41.0894ZM30.1776 24.3137L36.7246 30.7493H28.8987L22.3516 24.3137H30.1776ZM19.2658 24.3137L25.8128 30.7493H17.9869L11.4398 24.3137H19.2658ZM53.0192 2.38536L54.7128 8.60646L42.5024 11.8243L47.1312 3.9342L53.0192 2.38536ZM44.1501 4.72149L39.5203 12.6041L31.9616 14.5948L36.5915 6.71224L44.1501 4.72149ZM33.6104 7.49739L28.9805 15.38L21.4219 17.3707L26.0518 9.48814L33.6104 7.49739ZM23.0696 10.2733L18.4408 18.1559L10.879 20.1466L15.5077 12.264L23.0696 10.2733ZM12.5299 13.0513L7.90112 20.9328L4.12128 21.9282L2.42667 15.7071L12.5299 13.0513Z" fill="black"/>
<path d="M22.9542 52.2014H26.0095L36.6911 57.4571C36.8578 57.5386 37.043 57.5767 37.2289 57.568C37.4149 57.5592 37.5955 57.5038 37.7535 57.407C37.9116 57.3103 38.0418 57.1754 38.1318 57.0152C38.2218 56.855 38.2687 56.6748 38.2678 56.4918V37.1849C38.2689 37.0016 38.2221 36.8211 38.1319 36.6606C38.0418 36.5002 37.9113 36.3651 37.753 36.2683C37.5946 36.1714 37.4137 36.1161 37.2274 36.1076C37.0411 36.0991 36.8557 36.1376 36.6889 36.2196L26.0073 41.4753H22.952C22.0943 41.4768 21.2722 41.8125 20.6659 42.4088C20.0596 43.0052 19.7186 43.8136 19.7178 44.6567V49.02C19.7186 49.8635 20.0599 50.6722 20.6667 51.2686C21.2734 51.8651 22.0961 52.2005 22.9542 52.2014V52.2014ZM27.356 43.2108L36.0855 38.9204V54.7563L27.356 50.4659V43.2108ZM21.9001 44.6567C21.9004 44.382 22.0116 44.1186 22.2092 43.9243C22.4068 43.7301 22.6747 43.6208 22.9542 43.6205H25.1737V50.0562H22.9542C22.6747 50.0559 22.4068 49.9466 22.2092 49.7524C22.0116 49.5581 21.9004 49.2947 21.9001 49.02V44.6567Z" fill="black"/>
<path d="M44.4516 38.2957L40.2402 39.4229L40.8136 41.4927L45.025 40.3656L44.4516 38.2957Z" fill="black"/>
<path d="M44.8149 45.7656H40.4502V47.9108H44.8149V45.7656Z" fill="black"/>
<path d="M40.8133 52.1833L40.2393 54.2529L44.4503 55.3815L45.0243 53.3119L40.8133 52.1833Z" fill="black"/>
</svg>
