<?xml version="1.0" encoding="UTF-8"?>
<svg width="235px" height="233px" viewBox="0 0 235 233" version="1.1" xmlns="http://www.w3.org/2000/svg" xmlns:xlink="http://www.w3.org/1999/xlink">
    <!-- Generator: Sketch 53 (72520) - https://sketchapp.com -->
    <title>Group 2</title>
    <desc>Created with Sketch.</desc>
    <defs>
        <polygon id="path-1" points="0 0.2851 17.8588 0.2851 17.8588 22 0 22"></polygon>
        <polygon id="path-3" points="0.9851 0.5003 7.4851 0.5003 7.4851 7 0.9851 7"></polygon>
        <polygon id="path-5" points="0.9851 0.5003 7.4851 0.5003 7.4851 7 0.9851 7"></polygon>
        <polygon id="path-7" points="0.9851 0.5003 7.4851 0.5003 7.4851 7 0.9851 7"></polygon>
        <polygon id="path-9" points="0.9851 0.5003 7.4851 0.5003 7.4851 7 0.9851 7"></polygon>
        <polygon id="path-11" points="0 0.3542 44.457 0.3542 44.457 27 0 27"></polygon>
        <polygon id="path-13" points="0.4766 0.873155334 23.944 0.873155334 23.944 29.9515 0.4766 29.9515"></polygon>
        <polygon id="path-15" points="0 0.0004 23.279 0.0004 23.279 23.9413 0 23.9413"></polygon>
        <polygon id="path-17" points="0.8382 0.1195 143.963 0.1195 143.963 143.2445 0.8382 143.2445"></polygon>
        <path d="M57.069,0.827 C44.098,0.837 30.827,4.983 18.89,14.928 L18.89,14.928 C-14.311,42.588 4.537,82.122 13.404,96.828 L13.404,96.828 C13.046,99.731 12.839,102.681 12.839,105.682 L12.839,105.682 C12.839,145.204 44.878,177.244 84.401,177.244 L84.401,177.244 C123.924,177.244 155.963,145.204 155.963,105.682 L155.963,105.682 C155.963,79.725 142.143,56.997 121.461,44.452 L121.461,44.452 C113.783,21.629 86.226,0.846 57.153,0.827 L57.153,0.827 L57.069,0.827 Z" id="path-19"></path>
        <path d="M0.43,9.092 C1.389,9.427 2.437,10.628 3.606,12.401 L3.606,12.401 C5.762,11.902 7.881,11.305 9.958,10.616 L9.958,10.616 C9.193,9.176 8.574,8.022 8.125,7.312 L8.125,7.312 C5.212,2.698 2.218,0.784 2.218,0.784 L2.218,0.784 C2.218,0.784 -0.624,5.087 0.43,9.092" id="path-21"></path>
        <linearGradient x1="88.8937131%" y1="90.1224645%" x2="103.916062%" y2="66.9713592%" id="linearGradient-23">
            <stop stop-color="#AC6915" offset="0%"></stop>
            <stop stop-color="#7C3F10" offset="100%"></stop>
        </linearGradient>
        <path d="M57.069,0.827 C44.098,0.837 30.827,4.983 18.89,14.928 L18.89,14.928 C-14.311,42.588 4.537,82.122 13.404,96.828 L13.404,96.828 C13.046,99.731 12.839,102.681 12.839,105.682 L12.839,105.682 C12.839,145.204 44.878,177.244 84.401,177.244 L84.401,177.244 C123.924,177.244 155.963,145.204 155.963,105.682 L155.963,105.682 C155.963,79.725 142.143,56.997 121.461,44.452 L121.461,44.452 C113.783,21.629 86.226,0.846 57.153,0.827 L57.153,0.827" id="path-24"></path>
        <path d="M57.069,0.827 C44.098,0.837 30.827,4.983 18.89,14.928 L18.89,14.928 C-14.311,42.588 4.537,82.122 13.404,96.828 L13.404,96.828 C13.046,99.731 12.839,102.681 12.839,105.682 L12.839,105.682 C12.839,145.204 44.878,177.244 84.401,177.244 L84.401,177.244 C123.924,177.244 155.963,145.204 155.963,105.682 L155.963,105.682 C155.963,79.725 142.143,56.997 121.461,44.452 L121.461,44.452 C113.783,21.629 86.226,0.846 57.153,0.827 L57.153,0.827 L57.069,0.827 Z" id="path-26"></path>
        <path d="M57.069,0.827 C44.098,0.837 30.827,4.983 18.89,14.928 L18.89,14.928 C-14.311,42.588 4.537,82.122 13.404,96.828 L13.404,96.828 C13.046,99.731 12.839,102.681 12.839,105.682 L12.839,105.682 C12.839,145.204 44.878,177.244 84.401,177.244 L84.401,177.244 C123.924,177.244 155.963,145.204 155.963,105.682 L155.963,105.682 C155.963,79.725 142.143,56.997 121.461,44.452 L121.461,44.452 C113.783,21.629 86.226,0.846 57.153,0.827 L57.153,0.827" id="path-28"></path>
        <path d="M57.069,0.827 C44.098,0.837 30.827,4.983 18.89,14.928 L18.89,14.928 C-14.311,42.588 4.537,82.122 13.404,96.828 L13.404,96.828 C13.046,99.731 12.839,102.681 12.839,105.682 L12.839,105.682 C12.839,145.204 44.878,177.244 84.401,177.244 L84.401,177.244 C123.924,177.244 155.963,145.204 155.963,105.682 L155.963,105.682 C155.963,79.725 142.143,56.997 121.461,44.452 L121.461,44.452 C113.783,21.629 86.226,0.846 57.153,0.827 L57.153,0.827" id="path-30"></path>
        <path d="M4.204,5.844 C3.262,7.059 1.915,9.331 0.391,12.402 L0.391,12.402 C2.907,12.79 5.467,13.048 8.062,13.167 L8.062,13.167 C9.419,9.75 10.328,7.646 10.328,7.646 L10.328,7.646 C10.328,7.646 13.135,2.629 13.431,0.484 L13.431,0.484 C13.431,0.484 8.332,0.52 4.204,5.844" id="path-32"></path>
        <linearGradient x1="33.0576196%" y1="126.839953%" x2="49.3975437%" y2="203.653889%" id="linearGradient-34">
            <stop stop-color="#AC6915" offset="0%"></stop>
            <stop stop-color="#7C3F10" offset="100%"></stop>
        </linearGradient>
        <path d="M57.069,0.827 C44.098,0.837 30.827,4.983 18.89,14.928 L18.89,14.928 C-14.311,42.588 4.537,82.122 13.404,96.828 L13.404,96.828 C13.046,99.731 12.839,102.681 12.839,105.682 L12.839,105.682 C12.839,145.204 44.878,177.244 84.401,177.244 L84.401,177.244 C123.924,177.244 155.963,145.204 155.963,105.682 L155.963,105.682 C155.963,79.725 142.143,56.997 121.461,44.452 L121.461,44.452 C113.783,21.629 86.226,0.846 57.153,0.827 L57.153,0.827" id="path-35"></path>
        <path d="M57.069,0.827 C44.098,0.837 30.827,4.983 18.89,14.928 L18.89,14.928 C-14.311,42.588 4.537,82.122 13.404,96.828 L13.404,96.828 C13.046,99.731 12.839,102.681 12.839,105.682 L12.839,105.682 C12.839,145.204 44.878,177.244 84.401,177.244 L84.401,177.244 C123.924,177.244 155.963,145.204 155.963,105.682 L155.963,105.682 C155.963,79.725 142.143,56.997 121.461,44.452 L121.461,44.452 C113.783,21.629 86.226,0.846 57.153,0.827 L57.153,0.827 L57.069,0.827 Z" id="path-37"></path>
        <path d="M0.067,5.708 L1.394,17.086 C1.394,17.086 1.56,17.337 2.301,17.236 L2.301,17.236 C2.525,17.182 2.745,17.128 2.969,17.071 L2.969,17.071 C2.804,11.16 1.008,0.062 1.008,0.062 L1.008,0.062 L0.067,5.708 Z" id="path-39"></path>
        <radialGradient cx="49.9933494%" cy="50.0018454%" fx="49.9933494%" fy="50.0018454%" r="212.490551%" gradientTransform="translate(0.499933,0.500018),scale(1.000000,0.168741),translate(-0.499933,-0.500018)" id="radialGradient-41">
            <stop stop-color="#DB3D42" offset="0%"></stop>
            <stop stop-color="#FF464D" offset="100%"></stop>
        </radialGradient>
        <path d="M57.069,0.827 C44.098,0.837 30.827,4.983 18.89,14.928 L18.89,14.928 C-14.311,42.588 4.537,82.122 13.404,96.828 L13.404,96.828 C13.046,99.731 12.839,102.681 12.839,105.682 L12.839,105.682 C12.839,145.204 44.878,177.244 84.401,177.244 L84.401,177.244 C123.924,177.244 155.963,145.204 155.963,105.682 L155.963,105.682 C155.963,79.725 142.143,56.997 121.461,44.452 L121.461,44.452 C113.783,21.629 86.226,0.846 57.153,0.827 L57.153,0.827" id="path-42"></path>
        <path d="M57.069,0.827 C44.098,0.837 30.827,4.983 18.89,14.928 L18.89,14.928 C-14.311,42.588 4.537,82.122 13.404,96.828 L13.404,96.828 C13.046,99.731 12.839,102.681 12.839,105.682 L12.839,105.682 C12.839,145.204 44.878,177.244 84.401,177.244 L84.401,177.244 C123.924,177.244 155.963,145.204 155.963,105.682 L155.963,105.682 C155.963,79.725 142.143,56.997 121.461,44.452 L121.461,44.452 C113.783,21.629 86.226,0.846 57.153,0.827 L57.153,0.827" id="path-44"></path>
        <path d="M0.913,5.289 C0.913,5.289 -0.216,12.566 6.739,19.967 L6.739,19.967 C8.033,19.853 9.316,19.705 10.59,19.524 L10.59,19.524 C8.427,15.713 4.021,7.043 4.465,0.337 L4.465,0.337 C3.569,0.903 0.913,5.289 0.913,5.289" id="path-46"></path>
        <radialGradient cx="55.9250356%" cy="56.394731%" fx="55.9250356%" fy="56.394731%" r="89.5329183%" gradientTransform="translate(0.559250,0.563947),scale(1.000000,0.496425),translate(-0.559250,-0.563947)" id="radialGradient-48">
            <stop stop-color="#DB3D42" offset="0%"></stop>
            <stop stop-color="#FF464D" offset="100%"></stop>
        </radialGradient>
        <path d="M57.069,0.827 C44.098,0.837 30.827,4.983 18.89,14.928 L18.89,14.928 C-14.311,42.588 4.537,82.122 13.404,96.828 L13.404,96.828 C13.046,99.731 12.839,102.681 12.839,105.682 L12.839,105.682 C12.839,145.204 44.878,177.244 84.401,177.244 L84.401,177.244 C123.924,177.244 155.963,145.204 155.963,105.682 L155.963,105.682 C155.963,79.725 142.143,56.997 121.461,44.452 L121.461,44.452 C113.783,21.629 86.226,0.846 57.153,0.827 L57.153,0.827" id="path-49"></path>
        <path d="M57.069,0.827 C44.098,0.837 30.827,4.983 18.89,14.928 L18.89,14.928 C-14.311,42.588 4.537,82.122 13.404,96.828 L13.404,96.828 C13.046,99.731 12.839,102.681 12.839,105.682 L12.839,105.682 C12.839,145.204 44.878,177.244 84.401,177.244 L84.401,177.244 C123.924,177.244 155.963,145.204 155.963,105.682 L155.963,105.682 C155.963,79.725 142.143,56.997 121.461,44.452 L121.461,44.452 C113.783,21.629 86.226,0.846 57.153,0.827 L57.153,0.827 L57.069,0.827 Z" id="path-51"></path>
        <path d="M57.069,0.827 C44.098,0.837 30.827,4.983 18.89,14.928 L18.89,14.928 C-14.311,42.588 4.537,82.122 13.404,96.828 L13.404,96.828 C13.046,99.731 12.839,102.681 12.839,105.682 L12.839,105.682 C12.839,145.204 44.878,177.244 84.401,177.244 L84.401,177.244 C123.924,177.244 155.963,145.204 155.963,105.682 L155.963,105.682 C155.963,79.725 142.143,56.997 121.461,44.452 L121.461,44.452 C113.783,21.629 86.226,0.846 57.153,0.827 L57.153,0.827" id="path-53"></path>
        <path d="M57.069,0.827 C44.098,0.837 30.827,4.983 18.89,14.928 L18.89,14.928 C-14.311,42.588 4.537,82.122 13.404,96.828 L13.404,96.828 C13.046,99.731 12.839,102.681 12.839,105.682 L12.839,105.682 C12.839,145.204 44.878,177.244 84.401,177.244 L84.401,177.244 C123.924,177.244 155.963,145.204 155.963,105.682 L155.963,105.682 C155.963,79.725 142.143,56.997 121.461,44.452 L121.461,44.452 C113.783,21.629 86.226,0.846 57.153,0.827 L57.153,0.827" id="path-55"></path>
        <path d="M57.069,0.827 C44.098,0.837 30.827,4.983 18.89,14.928 L18.89,14.928 C-14.311,42.588 4.537,82.122 13.404,96.828 L13.404,96.828 C13.046,99.731 12.839,102.681 12.839,105.682 L12.839,105.682 C12.839,145.204 44.878,177.244 84.401,177.244 L84.401,177.244 C123.924,177.244 155.963,145.204 155.963,105.682 L155.963,105.682 C155.963,79.725 142.143,56.997 121.461,44.452 L121.461,44.452 C113.783,21.629 86.226,0.846 57.153,0.827 L57.153,0.827" id="path-57"></path>
        <path d="M57.069,0.827 C44.098,0.837 30.827,4.983 18.89,14.928 L18.89,14.928 C-14.311,42.588 4.537,82.122 13.404,96.828 L13.404,96.828 C13.046,99.731 12.839,102.681 12.839,105.682 L12.839,105.682 C12.839,145.204 44.878,177.244 84.401,177.244 L84.401,177.244 C123.924,177.244 155.963,145.204 155.963,105.682 L155.963,105.682 C155.963,79.725 142.143,56.997 121.461,44.452 L121.461,44.452 C113.783,21.629 86.226,0.846 57.153,0.827 L57.153,0.827" id="path-59"></path>
        <path d="M57.069,0.827 C44.098,0.837 30.827,4.983 18.89,14.928 L18.89,14.928 C-14.311,42.588 4.537,82.122 13.404,96.828 L13.404,96.828 C13.046,99.731 12.839,102.681 12.839,105.682 L12.839,105.682 C12.839,145.204 44.878,177.244 84.401,177.244 L84.401,177.244 C123.924,177.244 155.963,145.204 155.963,105.682 L155.963,105.682 C155.963,79.725 142.143,56.997 121.461,44.452 L121.461,44.452 C113.783,21.629 86.226,0.846 57.153,0.827 L57.153,0.827 L57.069,0.827 Z" id="path-61"></path>
        <path d="M57.069,0.827 C44.098,0.837 30.827,4.983 18.89,14.928 L18.89,14.928 C-14.311,42.588 4.537,82.122 13.404,96.828 L13.404,96.828 C13.046,99.731 12.839,102.681 12.839,105.682 L12.839,105.682 C12.839,145.204 44.878,177.244 84.401,177.244 L84.401,177.244 C123.924,177.244 155.963,145.204 155.963,105.682 L155.963,105.682 C155.963,79.725 142.143,56.997 121.461,44.452 L121.461,44.452 C113.783,21.629 86.226,0.846 57.153,0.827 L57.153,0.827" id="path-63"></path>
        <path d="M57.069,0.827 C44.098,0.837 30.827,4.983 18.89,14.928 L18.89,14.928 C-14.311,42.588 4.537,82.122 13.404,96.828 L13.404,96.828 C13.046,99.731 12.839,102.681 12.839,105.682 L12.839,105.682 C12.839,145.204 44.878,177.244 84.401,177.244 L84.401,177.244 C123.924,177.244 155.963,145.204 155.963,105.682 L155.963,105.682 C155.963,79.725 142.143,56.997 121.461,44.452 L121.461,44.452 C113.783,21.629 86.226,0.846 57.153,0.827 L57.153,0.827 L57.069,0.827 Z" id="path-65"></path>
        <path d="M57.069,0.827 C44.098,0.837 30.827,4.983 18.89,14.928 L18.89,14.928 C-14.311,42.588 4.537,82.122 13.404,96.828 L13.404,96.828 C13.046,99.731 12.839,102.681 12.839,105.682 L12.839,105.682 C12.839,145.204 44.878,177.244 84.401,177.244 L84.401,177.244 C123.924,177.244 155.963,145.204 155.963,105.682 L155.963,105.682 C155.963,79.725 142.143,56.997 121.461,44.452 L121.461,44.452 C113.783,21.629 86.226,0.846 57.153,0.827 L57.153,0.827" id="path-67"></path>
        <path d="M57.069,0.827 C44.098,0.837 30.827,4.983 18.89,14.928 L18.89,14.928 C-14.311,42.588 4.537,82.122 13.404,96.828 L13.404,96.828 C13.046,99.731 12.839,102.681 12.839,105.682 L12.839,105.682 C12.839,145.204 44.878,177.244 84.401,177.244 L84.401,177.244 C123.924,177.244 155.963,145.204 155.963,105.682 L155.963,105.682 C155.963,79.725 142.143,56.997 121.461,44.452 L121.461,44.452 C113.783,21.629 86.226,0.846 57.153,0.827 L57.153,0.827" id="path-69"></path>
        <path d="M57.069,0.827 C44.098,0.837 30.827,4.983 18.89,14.928 L18.89,14.928 C-14.311,42.588 4.537,82.122 13.404,96.828 L13.404,96.828 C13.046,99.731 12.839,102.681 12.839,105.682 L12.839,105.682 C12.839,145.204 44.878,177.244 84.401,177.244 L84.401,177.244 C123.924,177.244 155.963,145.204 155.963,105.682 L155.963,105.682 C155.963,79.725 142.143,56.997 121.461,44.452 L121.461,44.452 C113.783,21.629 86.226,0.846 57.153,0.827 L57.153,0.827 L57.069,0.827 Z" id="path-71"></path>
        <path d="M57.069,0.827 C44.098,0.837 30.827,4.983 18.89,14.928 L18.89,14.928 C-14.311,42.588 4.537,82.122 13.404,96.828 L13.404,96.828 C13.046,99.731 12.839,102.681 12.839,105.682 L12.839,105.682 C12.839,145.204 44.878,177.244 84.401,177.244 L84.401,177.244 C123.924,177.244 155.963,145.204 155.963,105.682 L155.963,105.682 C155.963,79.725 142.143,56.997 121.461,44.452 L121.461,44.452 C113.783,21.629 86.226,0.846 57.153,0.827 L57.153,0.827 L57.069,0.827 Z" id="path-73"></path>
        <path d="M57.069,0.827 C44.098,0.837 30.827,4.983 18.89,14.928 L18.89,14.928 C-14.311,42.588 4.537,82.122 13.404,96.828 L13.404,96.828 C13.046,99.731 12.839,102.681 12.839,105.682 L12.839,105.682 C12.839,145.204 44.878,177.244 84.401,177.244 L84.401,177.244 C123.924,177.244 155.963,145.204 155.963,105.682 L155.963,105.682 C155.963,79.725 142.143,56.997 121.461,44.452 L121.461,44.452 C113.783,21.629 86.226,0.846 57.153,0.827 L57.153,0.827" id="path-75"></path>
        <path d="M57.069,0.827 C44.098,0.837 30.827,4.983 18.89,14.928 L18.89,14.928 C-14.311,42.588 4.537,82.122 13.404,96.828 L13.404,96.828 C13.046,99.731 12.839,102.681 12.839,105.682 L12.839,105.682 C12.839,145.204 44.878,177.244 84.401,177.244 L84.401,177.244 C123.924,177.244 155.963,145.204 155.963,105.682 L155.963,105.682 C155.963,79.725 142.143,56.997 121.461,44.452 L121.461,44.452 C113.783,21.629 86.226,0.846 57.153,0.827 L57.153,0.827" id="path-77"></path>
        <path d="M57.069,0.827 C44.098,0.837 30.827,4.983 18.89,14.928 L18.89,14.928 C-14.311,42.588 4.537,82.122 13.404,96.828 L13.404,96.828 C13.046,99.731 12.839,102.681 12.839,105.682 L12.839,105.682 C12.839,145.204 44.878,177.244 84.401,177.244 L84.401,177.244 C123.924,177.244 155.963,145.204 155.963,105.682 L155.963,105.682 C155.963,79.725 142.143,56.997 121.461,44.452 L121.461,44.452 C113.783,21.629 86.226,0.846 57.153,0.827 L57.153,0.827" id="path-79"></path>
        <path d="M57.069,0.827 C44.098,0.837 30.827,4.983 18.89,14.928 L18.89,14.928 C-14.311,42.588 4.537,82.122 13.404,96.828 L13.404,96.828 C13.046,99.731 12.839,102.681 12.839,105.682 L12.839,105.682 C12.839,145.204 44.878,177.244 84.401,177.244 L84.401,177.244 C123.924,177.244 155.963,145.204 155.963,105.682 L155.963,105.682 C155.963,79.725 142.143,56.997 121.461,44.452 L121.461,44.452 C113.783,21.629 86.226,0.846 57.153,0.827 L57.153,0.827" id="path-81"></path>
        <path d="M57.069,0.827 C44.098,0.837 30.827,4.983 18.89,14.928 L18.89,14.928 C-14.311,42.588 4.537,82.122 13.404,96.828 L13.404,96.828 C13.046,99.731 12.839,102.681 12.839,105.682 L12.839,105.682 C12.839,145.204 44.878,177.244 84.401,177.244 L84.401,177.244 C123.924,177.244 155.963,145.204 155.963,105.682 L155.963,105.682 C155.963,79.725 142.143,56.997 121.461,44.452 L121.461,44.452 C113.783,21.629 86.226,0.846 57.153,0.827 L57.153,0.827" id="path-83"></path>
        <path d="M57.069,0.827 C44.098,0.837 30.827,4.983 18.89,14.928 L18.89,14.928 C-14.311,42.588 4.537,82.122 13.404,96.828 L13.404,96.828 C13.046,99.731 12.839,102.681 12.839,105.682 L12.839,105.682 C12.839,145.204 44.878,177.244 84.401,177.244 L84.401,177.244 C123.924,177.244 155.963,145.204 155.963,105.682 L155.963,105.682 C155.963,79.725 142.143,56.997 121.461,44.452 L121.461,44.452 C113.783,21.629 86.226,0.846 57.153,0.827 L57.153,0.827" id="path-85"></path>
        <path d="M57.069,0.827 C44.098,0.837 30.827,4.983 18.89,14.928 L18.89,14.928 C-14.311,42.588 4.537,82.122 13.404,96.828 L13.404,96.828 C13.046,99.731 12.839,102.681 12.839,105.682 L12.839,105.682 C12.839,145.204 44.878,177.244 84.401,177.244 L84.401,177.244 C123.924,177.244 155.963,145.204 155.963,105.682 L155.963,105.682 C155.963,79.725 142.143,56.997 121.461,44.452 L121.461,44.452 C113.783,21.629 86.226,0.846 57.153,0.827 L57.153,0.827" id="path-87"></path>
        <path d="M57.069,0.827 C44.098,0.837 30.827,4.983 18.89,14.928 L18.89,14.928 C-14.311,42.588 4.537,82.122 13.404,96.828 L13.404,96.828 C13.046,99.731 12.839,102.681 12.839,105.682 L12.839,105.682 C12.839,145.204 44.878,177.244 84.401,177.244 L84.401,177.244 C123.924,177.244 155.963,145.204 155.963,105.682 L155.963,105.682 C155.963,79.725 142.143,56.997 121.461,44.452 L121.461,44.452 C113.783,21.629 86.226,0.846 57.153,0.827 L57.153,0.827" id="path-89"></path>
        <path d="M57.069,0.827 C44.098,0.837 30.827,4.983 18.89,14.928 L18.89,14.928 C-14.311,42.588 4.537,82.122 13.404,96.828 L13.404,96.828 C13.046,99.731 12.839,102.681 12.839,105.682 L12.839,105.682 C12.839,145.204 44.878,177.244 84.401,177.244 L84.401,177.244 C123.924,177.244 155.963,145.204 155.963,105.682 L155.963,105.682 C155.963,79.725 142.143,56.997 121.461,44.452 L121.461,44.452 C113.783,21.629 86.226,0.846 57.153,0.827 L57.153,0.827" id="path-91"></path>
        <path d="M57.069,0.827 C44.098,0.837 30.827,4.983 18.89,14.928 L18.89,14.928 C-14.311,42.588 4.537,82.122 13.404,96.828 L13.404,96.828 C13.046,99.731 12.839,102.681 12.839,105.682 L12.839,105.682 C12.839,145.204 44.878,177.244 84.401,177.244 L84.401,177.244 C123.924,177.244 155.963,145.204 155.963,105.682 L155.963,105.682 C155.963,79.725 142.143,56.997 121.461,44.452 L121.461,44.452 C113.783,21.629 86.226,0.846 57.153,0.827 L57.153,0.827" id="path-93"></path>
        <path d="M57.069,0.827 C44.098,0.837 30.827,4.983 18.89,14.928 L18.89,14.928 C-14.311,42.588 4.537,82.122 13.404,96.828 L13.404,96.828 C13.046,99.731 12.839,102.681 12.839,105.682 L12.839,105.682 C12.839,145.204 44.878,177.244 84.401,177.244 L84.401,177.244 C123.924,177.244 155.963,145.204 155.963,105.682 L155.963,105.682 C155.963,79.725 142.143,56.997 121.461,44.452 L121.461,44.452 C113.783,21.629 86.226,0.846 57.153,0.827 L57.153,0.827" id="path-95"></path>
        <path d="M57.069,0.827 C44.098,0.837 30.827,4.983 18.89,14.928 L18.89,14.928 C-14.311,42.588 4.537,82.122 13.404,96.828 L13.404,96.828 C13.046,99.731 12.839,102.681 12.839,105.682 L12.839,105.682 C12.839,145.204 44.878,177.244 84.401,177.244 L84.401,177.244 C123.924,177.244 155.963,145.204 155.963,105.682 L155.963,105.682 C155.963,79.725 142.143,56.997 121.461,44.452 L121.461,44.452 C113.783,21.629 86.226,0.846 57.153,0.827 L57.153,0.827" id="path-97"></path>
    </defs>
    <g id="Page-2" stroke="none" stroke-width="1" fill="none" fill-rule="evenodd">
        <g id="Artboard" transform="translate(-20.000000, -101.000000)">
            <g id="Group-2" transform="translate(20.000000, 101.000000)">
                <g id="Group-10" transform="translate(176.000000, 40.000000)">
                    <path d="M21.4538,3.0001 C14.8068,3.0001 9.3988,8.4081 9.3988,15.0551 C9.3988,21.7021 14.8068,27.1091 21.4538,27.1091 C28.1008,27.1091 33.5088,21.7021 33.5088,15.0551 C33.5088,8.4081 28.1008,3.0001 21.4538,3.0001 M21.4538,30.1091 C13.1528,30.1091 6.3988,23.3561 6.3988,15.0551 C6.3988,6.7531 13.1528,0.0001 21.4538,0.0001 C29.7548,0.0001 36.5088,6.7531 36.5088,15.0551 C36.5088,23.3561 29.7548,30.1091 21.4538,30.1091" id="Fill-1" fill="#00A6ED"></path>
                    <g id="Group-5" transform="translate(0.000000, 24.039100)">
                        <mask id="mask-2" fill="white">
                            <use xlink:href="#path-1"></use>
                        </mask>
                        <g id="Clip-4"></g>
                        <polygon id="Fill-3" fill="#00A6ED" mask="url(#mask-2)" points="13.1628 22.0001 -0.0002 15.3631 11.2958 0.2851 13.6958 2.0841 4.5468 14.2961 11.1958 17.6481 14.9568 3.2191 17.8588 3.9761"></polygon>
                    </g>
                    <polygon id="Fill-6" fill="#00A6ED" points="12.3786 40.4611 5.4476 34.4531 7.4126 32.1871 14.3436 38.1941"></polygon>
                    <path d="M15.2712,11.3468 L12.7752,9.6828 C12.9182,9.4668 16.3782,4.3878 22.6392,5.4098 L22.1572,8.3698 C17.7962,7.6598 15.2962,11.3098 15.2712,11.3468" id="Fill-8" fill="#00A6ED"></path>
                </g>
                <path d="M218,77 L224.929,91.155 L234.751,77 L218,77 Z M222.809,80 L229.019,80 L225.376,85.247 L222.809,80 Z" id="Fill-1" fill="#0057C3"></path>
                <g id="Group-8" transform="translate(34.000000, 63.000000) rotate(20.000000) translate(-34.000000, -63.000000) translate(22.000000, 33.000000)">
                    <g id="Group-3" transform="translate(4.000000, 52.504700)">
                        <mask id="mask-4" fill="white">
                            <use xlink:href="#path-3"></use>
                        </mask>
                        <g id="Clip-2"></g>
                    </g>
                    <path d="M13.2043,9.5333 L11.1953,7.3053 C11.9363,6.6373 12.7243,5.9823 13.5353,5.3603 L15.3603,7.7413 C14.6113,8.3143 13.8863,8.9183 13.2043,9.5333 L13.2043,9.5333 Z M9.4013,13.6103 L7.0323,11.7693 C7.6503,10.9743 8.3183,10.1913 9.0173,9.4423 L11.2103,11.4903 C10.5723,12.1743 9.9633,12.8873 9.4013,13.6103 L9.4013,13.6103 Z M6.4173,18.2983 L3.7453,16.9343 C4.2073,16.0283 4.7203,15.1333 5.2673,14.2723 L7.7983,15.8843 C7.3013,16.6643 6.8363,17.4763 6.4173,18.2983 L6.4173,18.2983 Z M4.3663,23.4683 L1.4883,22.6213 C1.7773,21.6373 2.1123,20.6643 2.4833,19.7273 L5.2723,20.8333 C4.9343,21.6853 4.6293,22.5723 4.3663,23.4683 L4.3663,23.4683 Z M3.2563,28.9473 L0.2763,28.5953 C0.3963,27.5793 0.5573,26.5673 0.7553,25.5883 L3.6963,26.1803 C3.5143,27.0813 3.3663,28.0123 3.2563,28.9473 L3.2563,28.9473 Z M0.0183,34.6553 C0.0063,34.2383 0.000299999999,33.8173 0.000299999999,33.3933 C0.000299999999,32.8093 0.0113,32.2203 0.0373,31.6233 L3.0343,31.7503 C3.0113,32.3043 3.0003,32.8513 3.0003,33.3933 C3.0003,33.7883 3.0063,34.1793 3.0173,34.5683 L0.0183,34.6553 Z M0.5783,40.6663 C0.4223,39.6643 0.2963,38.6563 0.2033,37.6723 L3.1903,37.3923 C3.2773,38.3163 3.3953,39.2623 3.5423,40.2043 L0.5783,40.6663 Z M1.8433,46.5513 C1.5773,45.5853 1.3363,44.6003 1.1273,43.6273 L4.0593,42.9953 C4.2573,43.9153 4.4853,44.8443 4.7353,45.7573 L1.8433,46.5513 Z M3.8213,52.3093 C3.8013,52.2663 3.3303,51.2213 2.7253,49.4343 L5.5653,48.4713 C6.1203,50.1043 6.5503,51.0643 6.5553,51.0733 L3.8213,52.3093 Z M11.4851,56.255 C11.4851,58.05 10.0301,59.505 8.2351,59.505 C6.4401,59.505 4.9851,58.05 4.9851,56.255 C4.9851,54.46 6.4401,53.005 8.2351,53.005 C10.0301,53.005 11.4851,54.46 11.4851,56.255 Z M23.032,3.2501 C23.032,5.0451 21.577,6.5001 19.782,6.5001 C17.987,6.5001 16.532,5.0451 16.532,3.2501 C16.532,1.4551 17.987,0.0001 19.782,0.0001 C21.577,0.0001 23.032,1.4551 23.032,3.2501 Z" id="Fill-6" fill="#E3E8F2"></path>
                </g>
                <g id="Group-8-Copy-4" transform="translate(148.839368, 35.975122) rotate(102.000000) translate(-148.839368, -35.975122) translate(136.839368, 5.975122)">
                    <g id="Group-3" transform="translate(4.000000, 52.504700)">
                        <mask id="mask-6" fill="white">
                            <use xlink:href="#path-5"></use>
                        </mask>
                        <g id="Clip-2"></g>
                    </g>
                    <path d="M13.2043,9.5333 L11.1953,7.3053 C11.9363,6.6373 12.7243,5.9823 13.5353,5.3603 L15.3603,7.7413 C14.6113,8.3143 13.8863,8.9183 13.2043,9.5333 L13.2043,9.5333 Z M9.4013,13.6103 L7.0323,11.7693 C7.6503,10.9743 8.3183,10.1913 9.0173,9.4423 L11.2103,11.4903 C10.5723,12.1743 9.9633,12.8873 9.4013,13.6103 L9.4013,13.6103 Z M6.4173,18.2983 L3.7453,16.9343 C4.2073,16.0283 4.7203,15.1333 5.2673,14.2723 L7.7983,15.8843 C7.3013,16.6643 6.8363,17.4763 6.4173,18.2983 L6.4173,18.2983 Z M4.3663,23.4683 L1.4883,22.6213 C1.7773,21.6373 2.1123,20.6643 2.4833,19.7273 L5.2723,20.8333 C4.9343,21.6853 4.6293,22.5723 4.3663,23.4683 L4.3663,23.4683 Z M3.2563,28.9473 L0.2763,28.5953 C0.3963,27.5793 0.5573,26.5673 0.7553,25.5883 L3.6963,26.1803 C3.5143,27.0813 3.3663,28.0123 3.2563,28.9473 L3.2563,28.9473 Z M0.0183,34.6553 C0.0063,34.2383 0.000299999999,33.8173 0.000299999999,33.3933 C0.000299999999,32.8093 0.0113,32.2203 0.0373,31.6233 L3.0343,31.7503 C3.0113,32.3043 3.0003,32.8513 3.0003,33.3933 C3.0003,33.7883 3.0063,34.1793 3.0173,34.5683 L0.0183,34.6553 Z M0.5783,40.6663 C0.4223,39.6643 0.2963,38.6563 0.2033,37.6723 L3.1903,37.3923 C3.2773,38.3163 3.3953,39.2623 3.5423,40.2043 L0.5783,40.6663 Z M1.8433,46.5513 C1.5773,45.5853 1.3363,44.6003 1.1273,43.6273 L4.0593,42.9953 C4.2573,43.9153 4.4853,44.8443 4.7353,45.7573 L1.8433,46.5513 Z M3.8213,52.3093 C3.8013,52.2663 3.3303,51.2213 2.7253,49.4343 L5.5653,48.4713 C6.1203,50.1043 6.5503,51.0643 6.5553,51.0733 L3.8213,52.3093 Z M11.4851,56.255 C11.4851,58.05 10.0301,59.505 8.2351,59.505 C6.4401,59.505 4.9851,58.05 4.9851,56.255 C4.9851,54.46 6.4401,53.005 8.2351,53.005 C10.0301,53.005 11.4851,54.46 11.4851,56.255 Z M23.032,3.2501 C23.032,5.0451 21.577,6.5001 19.782,6.5001 C17.987,6.5001 16.532,5.0451 16.532,3.2501 C16.532,1.4551 17.987,0.0001 19.782,0.0001 C21.577,0.0001 23.032,1.4551 23.032,3.2501 Z" id="Fill-6" fill="#E3E8F2"></path>
                </g>
                <g id="Group-8-Copy-5" transform="translate(210.767992, 116.303919) rotate(157.000000) translate(-210.767992, -116.303919) translate(198.767992, 86.303919)">
                    <g id="Group-3" transform="translate(4.000000, 52.504700)">
                        <mask id="mask-8" fill="white">
                            <use xlink:href="#path-7"></use>
                        </mask>
                        <g id="Clip-2"></g>
                    </g>
                    <path d="M13.2043,9.5333 L11.1953,7.3053 C11.9363,6.6373 12.7243,5.9823 13.5353,5.3603 L15.3603,7.7413 C14.6113,8.3143 13.8863,8.9183 13.2043,9.5333 L13.2043,9.5333 Z M9.4013,13.6103 L7.0323,11.7693 C7.6503,10.9743 8.3183,10.1913 9.0173,9.4423 L11.2103,11.4903 C10.5723,12.1743 9.9633,12.8873 9.4013,13.6103 L9.4013,13.6103 Z M6.4173,18.2983 L3.7453,16.9343 C4.2073,16.0283 4.7203,15.1333 5.2673,14.2723 L7.7983,15.8843 C7.3013,16.6643 6.8363,17.4763 6.4173,18.2983 L6.4173,18.2983 Z M4.3663,23.4683 L1.4883,22.6213 C1.7773,21.6373 2.1123,20.6643 2.4833,19.7273 L5.2723,20.8333 C4.9343,21.6853 4.6293,22.5723 4.3663,23.4683 L4.3663,23.4683 Z M3.2563,28.9473 L0.2763,28.5953 C0.3963,27.5793 0.5573,26.5673 0.7553,25.5883 L3.6963,26.1803 C3.5143,27.0813 3.3663,28.0123 3.2563,28.9473 L3.2563,28.9473 Z M0.0183,34.6553 C0.0063,34.2383 0.000299999999,33.8173 0.000299999999,33.3933 C0.000299999999,32.8093 0.0113,32.2203 0.0373,31.6233 L3.0343,31.7503 C3.0113,32.3043 3.0003,32.8513 3.0003,33.3933 C3.0003,33.7883 3.0063,34.1793 3.0173,34.5683 L0.0183,34.6553 Z M0.5783,40.6663 C0.4223,39.6643 0.2963,38.6563 0.2033,37.6723 L3.1903,37.3923 C3.2773,38.3163 3.3953,39.2623 3.5423,40.2043 L0.5783,40.6663 Z M1.8433,46.5513 C1.5773,45.5853 1.3363,44.6003 1.1273,43.6273 L4.0593,42.9953 C4.2573,43.9153 4.4853,44.8443 4.7353,45.7573 L1.8433,46.5513 Z M3.8213,52.3093 C3.8013,52.2663 3.3303,51.2213 2.7253,49.4343 L5.5653,48.4713 C6.1203,50.1043 6.5503,51.0643 6.5553,51.0733 L3.8213,52.3093 Z M11.4851,56.255 C11.4851,58.05 10.0301,59.505 8.2351,59.505 C6.4401,59.505 4.9851,58.05 4.9851,56.255 C4.9851,54.46 6.4401,53.005 8.2351,53.005 C10.0301,53.005 11.4851,54.46 11.4851,56.255 Z M23.032,3.2501 C23.032,5.0451 21.577,6.5001 19.782,6.5001 C17.987,6.5001 16.532,5.0451 16.532,3.2501 C16.532,1.4551 17.987,0.0001 19.782,0.0001 C21.577,0.0001 23.032,1.4551 23.032,3.2501 Z" id="Fill-6" fill="#E3E8F2"></path>
                </g>
                <g id="Group-8-Copy-6" transform="translate(15.767992, 162.303919) scale(-1, 1) rotate(187.000000) translate(-15.767992, -162.303919) translate(3.767992, 132.303919)">
                    <g id="Group-3" transform="translate(4.000000, 52.504700)">
                        <mask id="mask-10" fill="white">
                            <use xlink:href="#path-9"></use>
                        </mask>
                        <g id="Clip-2"></g>
                    </g>
                    <path d="M13.2043,9.5333 L11.1953,7.3053 C11.9363,6.6373 12.7243,5.9823 13.5353,5.3603 L15.3603,7.7413 C14.6113,8.3143 13.8863,8.9183 13.2043,9.5333 L13.2043,9.5333 Z M9.4013,13.6103 L7.0323,11.7693 C7.6503,10.9743 8.3183,10.1913 9.0173,9.4423 L11.2103,11.4903 C10.5723,12.1743 9.9633,12.8873 9.4013,13.6103 L9.4013,13.6103 Z M6.4173,18.2983 L3.7453,16.9343 C4.2073,16.0283 4.7203,15.1333 5.2673,14.2723 L7.7983,15.8843 C7.3013,16.6643 6.8363,17.4763 6.4173,18.2983 L6.4173,18.2983 Z M4.3663,23.4683 L1.4883,22.6213 C1.7773,21.6373 2.1123,20.6643 2.4833,19.7273 L5.2723,20.8333 C4.9343,21.6853 4.6293,22.5723 4.3663,23.4683 L4.3663,23.4683 Z M3.2563,28.9473 L0.2763,28.5953 C0.3963,27.5793 0.5573,26.5673 0.7553,25.5883 L3.6963,26.1803 C3.5143,27.0813 3.3663,28.0123 3.2563,28.9473 L3.2563,28.9473 Z M0.0183,34.6553 C0.0063,34.2383 0.000299999999,33.8173 0.000299999999,33.3933 C0.000299999999,32.8093 0.0113,32.2203 0.0373,31.6233 L3.0343,31.7503 C3.0113,32.3043 3.0003,32.8513 3.0003,33.3933 C3.0003,33.7883 3.0063,34.1793 3.0173,34.5683 L0.0183,34.6553 Z M0.5783,40.6663 C0.4223,39.6643 0.2963,38.6563 0.2033,37.6723 L3.1903,37.3923 C3.2773,38.3163 3.3953,39.2623 3.5423,40.2043 L0.5783,40.6663 Z M1.8433,46.5513 C1.5773,45.5853 1.3363,44.6003 1.1273,43.6273 L4.0593,42.9953 C4.2573,43.9153 4.4853,44.8443 4.7353,45.7573 L1.8433,46.5513 Z M3.8213,52.3093 C3.8013,52.2663 3.3303,51.2213 2.7253,49.4343 L5.5653,48.4713 C6.1203,50.1043 6.5503,51.0643 6.5553,51.0733 L3.8213,52.3093 Z M11.4851,56.255 C11.4851,58.05 10.0301,59.505 8.2351,59.505 C6.4401,59.505 4.9851,58.05 4.9851,56.255 C4.9851,54.46 6.4401,53.005 8.2351,53.005 C10.0301,53.005 11.4851,54.46 11.4851,56.255 Z M23.032,3.2501 C23.032,5.0451 21.577,6.5001 19.782,6.5001 C17.987,6.5001 16.532,5.0451 16.532,3.2501 C16.532,1.4551 17.987,0.0001 19.782,0.0001 C21.577,0.0001 23.032,1.4551 23.032,3.2501 Z" id="Fill-6" fill="#E3E8F2"></path>
                </g>
                <g id="Group-14" transform="translate(190.000000, 156.000000)">
                    <path d="M15.6276,22.543 C17.9356,22.543 20.4246,23.088 22.7736,24.68 C27.1356,22.327 33.1116,23.46 36.1396,24.29 L37.3146,3.062 C34.6686,2.821 28.4416,2.927 24.0476,8.289 L23.1276,9.411 L21.9756,8.529 C16.4676,4.311 10.1906,4.087 7.5066,4.227 L8.6336,24.043 C10.3206,23.337 12.8416,22.543 15.6276,22.543 L15.6276,22.543 Z M5.9086,28.961 L4.3526,1.607 L5.6836,1.388 C6.0626,1.324 14.7266,-0.019 22.6636,5.331 C29.4106,-1.696 38.7906,0.214 39.2036,0.301 L40.4576,0.57 L38.9156,28.41 L37.0086,27.702 C36.9196,27.669 28.1546,24.474 23.5616,27.713 L22.6376,28.364 L21.7566,27.656 C15.9326,22.969 8.1216,27.618 8.0426,27.666 L5.9086,28.961 Z" id="Fill-1" fill="#00A6ED"></path>
                    <g id="Group-5" transform="translate(0.000000, 4.630200)">
                        <mask id="mask-12" fill="white">
                            <use xlink:href="#path-11"></use>
                        </mask>
                        <g id="Clip-4"></g>
                        <polygon id="Fill-3" fill="#00A6ED" mask="url(#mask-12)" points="1.6032 27.0002 -0.0008 2.4382 6.1472 2.0922 6.3152 5.0872 3.1912 5.2642 4.3942 23.7012 22.8092 21.8322 40.9342 23.6182 41.4002 4.0342 38.2732 3.2672 38.9882 0.3542 44.4572 1.6952 43.8562 26.9212 22.8132 24.8462"></polygon>
                    </g>
                    <path d="M20.2887,14.0967 C20.1817,13.9617 17.5897,10.8127 12.4657,11.1217 L12.2777,8.1277 C19.0187,7.7027 22.5037,12.0587 22.6477,12.2437 L20.2887,14.0967 Z" id="Fill-6" fill="#00A6ED"></path>
                    <path d="M19.6139,19.1943 C19.5949,19.1743 17.7799,17.2773 12.6089,18.1053 L12.1349,15.1433 C19.0359,14.0363 21.6319,16.9253 21.9059,17.2583 L19.5879,19.1633 L20.7469,18.2113 L19.6139,19.1943 Z" id="Fill-8" fill="#00A6ED"></path>
                    <path d="M26.9753,14.0273 L24.5183,12.3053 C24.6803,12.0743 28.5473,6.6783 34.0153,7.5163 L33.5623,10.4823 C29.9403,9.9263 27.0033,13.9853 26.9753,14.0273" id="Fill-10" fill="#00A6ED"></path>
                    <path d="M28.2057,19.6372 L25.7877,17.8622 C25.9307,17.6672 29.3407,13.1152 34.2687,14.0242 L33.7247,16.9742 C30.6727,16.4032 28.2287,19.6052 28.2057,19.6372" id="Fill-12" fill="#00A6ED"></path>
                </g>
                <g id="Group-5" transform="translate(0.000000, 91.000000)">
                    <path d="M0,18.9399 L4.576,32.1269 L14.292,29.3249 L7.019,15.5849 L0,18.9399 Z M3.712,20.4899 L5.715,19.5329 L9.913,27.4659 L6.478,28.4559 L3.712,20.4899 Z" id="Fill-1" fill="#00A6ED"></path>
                    <g id="Group-4" transform="translate(4.000000, 0.126700)">
                        <mask id="mask-14" fill="white">
                            <use xlink:href="#path-13"></use>
                        </mask>
                        <g id="Clip-3"></g>
                        <path d="M4.2576,17.7975 L8.9086,26.5855 L20.4226,24.3655 L18.0766,12.3705 L11.2786,14.8925 L10.6546,14.5075 C10.2186,14.2385 8.0866,12.6025 8.9496,6.8415 C9.1496,5.5105 8.8996,4.6185 8.2066,4.1895 C7.6956,3.8725 6.9476,3.7975 6.2096,3.9375 C9.2556,9.1215 7.1326,14.9335 7.0306,15.2025 L6.8936,15.5685 L4.2576,17.7975 Z M7.2956,29.9515 L0.4766,17.0675 L4.3306,13.8055 C4.7086,12.5155 5.7856,7.8245 2.7766,4.2645 L1.7156,3.0095 L3.0616,2.0675 C5.0766,0.6545 7.9046,0.4745 9.7846,1.6385 C10.8036,2.2685 12.4336,3.8395 11.9166,7.2855 C11.5826,9.5135 11.7916,10.7655 12.0196,11.4185 L20.3426,8.3295 L23.9446,26.7415 L7.2956,29.9515 Z" id="Fill-2" fill="#00A6ED" mask="url(#mask-14)"></path>
                    </g>
                </g>
                <g id="Group-8" transform="translate(54.000000, 0.000000)" fill="#00A6ED">
                    <path d="M31.8798,0 L-0.0002,11.288 L32.9938,18.165 L61.2298,9.068 L31.8798,0 Z M11.1048,10.538 L31.9438,3.16 L51.2608,9.128 L32.8298,15.067 L11.1048,10.538 Z" id="Fill-1"></path>
                    <polygon id="Fill-2" points="48.5701 23.3273 47.9521 12.7473 32.1261 10.5843 32.5321 7.6113 50.8031 10.1083 51.5641 23.1523"></polygon>
                    <g id="Group-7" transform="translate(15.000000, 13.371600)">
                        <path d="M15.8992,23.9996 C9.3632,23.9996 1.9152,17.6566 1.6002,17.3876 L0.8982,16.7826 L4.8882,0.8846 L7.7982,1.6146 L4.2672,15.6856 C6.1652,17.1666 11.5032,20.9996 15.8992,20.9996 C19.9392,20.9996 25.3152,17.5246 27.8422,15.5896 L23.4722,1.4336 L26.3392,0.5486 L31.3052,16.6356 L30.5402,17.2756 C30.2122,17.5506 22.4232,23.9996 15.8992,23.9996" id="Fill-3"></path>
                        <path d="M34.823,7.1246 L34.943,7.9206 L34.989,7.1246 L34.823,7.1246 Z M37.577,14.2916 L32.872,14.2916 L31.335,4.1246 L38.169,4.1246 L37.577,14.2916 Z" id="Fill-5"></path>
                    </g>
                </g>
                <g id="Group-3" transform="translate(28.000000, 186.000000)">
                    <mask id="mask-16" fill="white">
                        <use xlink:href="#path-15"></use>
                    </mask>
                    <g id="Clip-2"></g>
                    <path d="M6.9197,12.9083 C6.3297,12.9083 5.7717,12.9973 5.2787,13.2093 C4.1487,13.6943 3.4297,14.8253 3.0797,16.6683 C2.8037,18.1273 3.2967,18.8093 3.6917,19.1973 C6.1877,21.6383 14.5987,21.0823 20.0267,20.0783 C20.5027,14.3593 20.4667,5.5973 18.4397,3.3513 C18.1597,3.0423 17.9457,3.0003 17.7737,3.0003 L17.7717,3.0003 C17.2457,3.0003 16.8677,3.1723 16.5447,3.5583 C15.0237,5.3743 15.2957,10.7263 15.8247,13.6743 L16.4327,17.0653 L13.5347,15.2003 C12.3777,14.4553 9.3737,12.9083 6.9197,12.9083 M11.2737,23.9413 C7.4857,23.9413 3.6487,23.3523 1.5937,21.3413 C0.6497,20.4173 -0.3703,18.7593 0.1327,16.1083 C0.6757,13.2483 2.0117,11.3453 4.1017,10.4493 C6.8687,9.2643 10.2097,10.2463 12.5037,11.2633 C12.2667,8.3123 12.3137,3.9403 14.2417,1.6353 C15.1367,0.5653 16.3577,0.0003 17.7717,0.0003 L17.7747,0.0003 C18.8757,0.0013 19.8757,0.4653 20.6667,1.3433 C24.4227,5.5053 23.0757,19.8603 22.9087,21.4833 L22.7977,22.5723 L21.7287,22.7993 C20.8497,22.9853 16.1007,23.9413 11.2737,23.9413" id="Fill-1" fill="#00A6ED" mask="url(#mask-16)"></path>
                </g>
                <rect id="Rectangle" fill="#FFFDF7" fill-rule="nonzero" transform="translate(180.332788, 224.536559) rotate(-44.440000) translate(-180.332788, -224.536559) " x="179.332788" y="214.961559" width="2" height="19.15"></rect>
                <rect id="Rectangle" fill="#0057C3" fill-rule="nonzero" transform="translate(31.823935, 162.607365) rotate(-43.650000) translate(-31.823935, -162.607365) " x="23.8239351" y="161.107365" width="16" height="3"></rect>
                <rect id="Rectangle" fill="#0057C3" fill-rule="nonzero" x="149" y="51" width="16" height="3"></rect>
                <rect id="Rectangle-Copy" fill="#0057C3" fill-rule="nonzero" x="12" y="31" width="16" height="3"></rect>
                <g id="Group" transform="translate(131.785714, 10.500000) scale(-1, 1) translate(-131.785714, -10.500000) translate(120.000000, 3.000000)" fill="#0057C3" fill-rule="nonzero">
                    <polygon id="Path" points="23.2953357 0 19.7233842 5.23255814 23.5714286 10.7142857 20.1202677 10.7142857 17.6699435 7.20930233 15.4439448 10.7142857 11.7857143 10.7142857 15.5647354 5.21594684 12.0272955 4.72121419e-14 15.4784564 4.72121419e-14 17.6526877 3.32225914 19.7061284 4.72121419e-14"></polygon>
                    <path d="M4.78530437,12.1371162 L0,0 L3.1282025,0 L5.69840131,7.4989435 L8.57296577,0 L11.7857143,0 L7.27095716,10.698267 L7.57532281,11.307662 C7.80735215,11.897221 8.3796898,12.2814424 9.01260504,12.2725373 C9.5432564,12.2590773 10.0497772,12.0477969 10.4329781,11.68007 L11.7518959,13.9483735 C10.9273549,14.6494594 9.87430876,15.0229454 8.79278541,14.997887 C6.96582905,15.0566283 5.3251156,13.8853925 4.78530437,12.1371162 L4.78530437,12.1371162 Z" id="Path"></path>
                </g>
                <path d="M13.936,41 L9,52.44 L11.992,52.44 L12.825,50.331 L17.826,50.331 L18.643,52.44 L21.747,52.44 L21.747,52.438 L16.928,41 L13.936,41 Z M15.341,43.893 L16.976,48.125 L13.674,48.125 L15.341,43.893 Z" id="Fill-1" fill="#0057C3"></path>
                <polygon id="+" fill="#0057C3" fill-rule="nonzero" points="186 196.394584 180.993952 196.394584 180.993952 202 178.032258 202 178.032258 196.394584 173 196.394584 173 193.578337 178.032258 193.578337 178.032258 188 180.993952 188 180.993952 193.578337 186 193.578337"></polygon>
                <path d="M71.4517647,206 C72.8007911,206 73.879996,206.429996 74.6894118,207.29 C75.4988276,208.150004 75.9035294,209.288228 75.9035294,210.704706 C75.9035294,212.121184 75.4988276,213.259407 74.6894118,214.119412 C73.879996,214.979416 72.8007911,215.409412 71.4517647,215.409412 C70.1196012,215.409412 69.0446119,214.979416 68.2267647,214.119412 C67.4089175,213.259407 67,212.121184 67,210.704706 C67,209.288228 67.4089175,208.150004 68.2267647,207.29 C69.0446119,206.429996 70.1196012,206 71.4517647,206 Z M81.8729412,206.252941 L84.6552941,206.252941 L73.3994118,222.947059 L70.6170588,222.947059 L81.8729412,206.252941 Z M71.4517647,208.402941 C70.8784285,208.402941 70.4400015,208.605292 70.1364706,209.01 C69.8329397,209.414708 69.6811765,209.979604 69.6811765,210.704706 C69.6811765,211.429808 69.8329397,211.990488 70.1364706,212.386765 C70.4400015,212.783041 70.8784285,212.981176 71.4517647,212.981176 C72.0251009,212.981176 72.4635279,212.783041 72.7670588,212.386765 C73.0705898,211.990488 73.2223529,211.429808 73.2223529,210.704706 C73.2223529,209.979604 73.0705898,209.414708 72.7670588,209.01 C72.4635279,208.605292 72.0251009,208.402941 71.4517647,208.402941 Z M83.7952941,213.790588 C85.1274576,213.790588 86.2024469,214.220584 87.0202941,215.080588 C87.8381413,215.940593 88.2470588,217.078816 88.2470588,218.495294 C88.2470588,219.911772 87.8381413,221.049996 87.0202941,221.91 C86.2024469,222.770004 85.1274576,223.2 83.7952941,223.2 C82.4462678,223.2 81.3670629,222.770004 80.5576471,221.91 C79.7482312,221.049996 79.3435294,219.911772 79.3435294,218.495294 C79.3435294,217.078816 79.7482312,215.940593 80.5576471,215.080588 C81.3670629,214.220584 82.4462678,213.790588 83.7952941,213.790588 Z M83.7952941,216.218824 C83.2219579,216.218824 82.7835309,216.416959 82.48,216.813235 C82.1764691,217.209512 82.0247059,217.770192 82.0247059,218.495294 C82.0247059,219.220396 82.1764691,219.785292 82.48,220.19 C82.7835309,220.594708 83.2219579,220.797059 83.7952941,220.797059 C84.3686303,220.797059 84.8070573,220.594708 85.1105882,220.19 C85.4141192,219.785292 85.5658824,219.220396 85.5658824,218.495294 C85.5658824,217.770192 85.4141192,217.209512 85.1105882,216.813235 C84.8070573,216.416959 84.3686303,216.218824 83.7952941,216.218824 Z" id="%" fill="#0057C3" fill-rule="nonzero"></path>
                <g id="Group-122" transform="translate(31.000000, 27.000000)">
                    <g id="Group-3" transform="translate(12.000000, 34.173000)">
                        <mask id="mask-18" fill="white">
                            <use xlink:href="#path-17"></use>
                        </mask>
                        <g id="Clip-2"></g>
                        <path d="M143.9632,71.6815 C143.9632,111.2045 111.9232,143.2445 72.4012,143.2445 C32.8782,143.2445 0.8382,111.2045 0.8382,71.6815 C0.8382,32.1585 32.8782,0.1195 72.4012,0.1195 C111.9232,0.1195 143.9632,32.1585 143.9632,71.6815" id="Fill-1" fill="#E3E8F2" mask="url(#mask-18)"></path>
                    </g>
                    <g id="Group-6" transform="translate(0.000000, 0.173000)">
                        <mask id="mask-20" fill="white">
                            <use xlink:href="#path-19"></use>
                        </mask>
                        <g id="Clip-5"></g>
                        <path d="M75.8367,176.7513 C75.8367,176.7513 71.7487,158.8363 73.5577,158.0623 C75.3667,157.2883 78.7987,176.2663 78.7987,176.2663 L81.3247,176.5083 C81.3247,176.5083 78.5167,153.2813 72.5277,158.0623 C66.5387,162.8433 74.7937,178.3023 74.7937,178.3023 L75.8367,176.7513 Z" id="Fill-4" fill="#15497C" mask="url(#mask-20)"></path>
                    </g>
                    <g id="Group-9" transform="translate(97.000000, 163.173000)">
                        <mask id="mask-22" fill="white">
                            <use xlink:href="#path-21"></use>
                        </mask>
                        <g id="Clip-8"></g>
                        <path d="M0.43,9.092 C1.389,9.427 2.437,10.628 3.606,12.401 L3.606,12.401 C5.762,11.902 7.881,11.305 9.958,10.616 L9.958,10.616 C9.193,9.176 8.574,8.022 8.125,7.312 L8.125,7.312 C5.212,2.698 2.218,0.784 2.218,0.784 L2.218,0.784 C2.218,0.784 -0.624,5.087 0.43,9.092" id="Fill-7" fill="url(#linearGradient-23)" mask="url(#mask-22)"></path>
                    </g>
                    <g id="Group-22" transform="translate(0.000000, 0.173000)">
                        <g id="Group-12">
                            <mask id="mask-25" fill="white">
                                <use xlink:href="#path-24"></use>
                            </mask>
                            <g id="Clip-11"></g>
                            <path d="M67.5359,181.4803 C66.8049,182.4593 65.6859,185.5533 64.3399,189.9833 C70.5689,191.3353 77.0669,192.0223 83.6339,191.9963 C83.8459,178.7003 84.0279,169.8563 84.0279,169.8563 C84.0279,169.8563 71.7069,175.8963 67.5359,181.4803" id="Fill-10" fill="#15497C" mask="url(#mask-25)"></path>
                        </g>
                        <g id="Group-15">
                            <mask id="mask-27" fill="white">
                                <use xlink:href="#path-26"></use>
                            </mask>
                            <g id="Clip-14"></g>
                            <path d="M92.0955,144.575 L86.4305,164.484 C86.4305,164.484 90.5575,166.912 94.1995,165.941 C97.8415,164.97 99.2175,163.784 99.2175,163.784 L101.5785,146.7 L92.0955,144.575 Z" id="Fill-13" fill="#915513" mask="url(#mask-27)"></path>
                        </g>
                        <g id="Group-18">
                            <mask id="mask-29" fill="white">
                                <use xlink:href="#path-28"></use>
                            </mask>
                            <g id="Clip-17"></g>
                            <path d="M97.9612,190.8035 C98.1902,176.1055 99.2172,163.7835 99.2172,163.7835 L86.4302,164.4845 C86.4302,164.4845 83.1302,168.7005 79.8332,180.3145 C78.9262,183.5105 78.0172,187.4275 77.1802,191.7935 C84.0382,192.2555 91.0442,191.9485 97.9612,190.8035" id="Fill-16" fill="#E6E6E6" mask="url(#mask-29)"></path>
                        </g>
                        <g id="Group-21">
                            <mask id="mask-31" fill="white">
                                <use xlink:href="#path-30"></use>
                            </mask>
                            <g id="Clip-20"></g>
                            <path d="M95.0901,177.3992 C98.3801,177.3992 99.2171,163.7842 99.2171,163.7842 C99.2171,163.7842 92.0141,159.9922 86.4301,164.4842 C86.4301,164.4842 90.5581,177.3992 95.0901,177.3992" id="Fill-19" fill="#915513" mask="url(#mask-31)"></path>
                        </g>
                    </g>
                    <g id="Group-25" transform="translate(73.000000, 164.173000)">
                        <mask id="mask-33" fill="white">
                            <use xlink:href="#path-32"></use>
                        </mask>
                        <g id="Clip-24"></g>
                        <path d="M4.204,5.844 C3.262,7.059 1.915,9.331 0.391,12.402 L0.391,12.402 C2.907,12.79 5.467,13.048 8.062,13.167 L8.062,13.167 C9.419,9.75 10.328,7.646 10.328,7.646 L10.328,7.646 C10.328,7.646 13.135,2.629 13.431,0.484 L13.431,0.484 C13.431,0.484 8.332,0.52 4.204,5.844" id="Fill-23" fill="url(#linearGradient-34)" mask="url(#mask-33)"></path>
                    </g>
                    <g id="Group-32" transform="translate(0.000000, 0.173000)">
                        <g id="Group-28">
                            <mask id="mask-36" fill="white">
                                <use xlink:href="#path-35"></use>
                            </mask>
                            <g id="Clip-27"></g>
                            <path d="M81.2991,166.1702 C81.2991,166.1702 81.4541,178.1502 81.0991,191.9712 C83.4741,192.0282 85.8611,191.9912 88.2511,191.8602 C88.2141,183.5332 87.6701,174.1932 86.1811,164.4982 C83.0241,164.8322 81.2991,166.1702 81.2991,166.1702" id="Fill-26" fill="#00A6ED" mask="url(#mask-36)"></path>
                        </g>
                        <g id="Group-31">
                            <mask id="mask-38" fill="white">
                                <use xlink:href="#path-37"></use>
                            </mask>
                            <g id="Clip-30"></g>
                            <path d="M99.2176,163.784 C99.2176,163.784 98.8056,176.764 98.3486,190.735 C99.1726,190.595 99.9946,190.446 100.8156,190.282 L100.9376,165.185 L99.2176,163.784 Z" id="Fill-29" fill="#00A6ED" mask="url(#mask-38)"></path>
                        </g>
                    </g>
                    <g id="Group-35" transform="translate(99.000000, 158.173000)">
                        <mask id="mask-40" fill="white">
                            <use xlink:href="#path-39"></use>
                        </mask>
                        <g id="Clip-34"></g>
                        <path d="M0.067,5.708 L1.394,17.086 C1.394,17.086 1.56,17.337 2.301,17.236 L2.301,17.236 C2.525,17.182 2.745,17.128 2.969,17.071 L2.969,17.071 C2.804,11.16 1.008,0.062 1.008,0.062 L1.008,0.062 L0.067,5.708 Z" id="Fill-33" fill="url(#radialGradient-41)" mask="url(#mask-40)"></path>
                    </g>
                    <g id="Group-42" transform="translate(0.000000, 0.173000)">
                        <g id="Group-38">
                            <mask id="mask-43" fill="white">
                                <use xlink:href="#path-42"></use>
                            </mask>
                            <g id="Clip-37"></g>
                            <path d="M100.9041,184.0023 C103.6951,183.8823 105.8471,181.2323 105.7111,178.0843 C105.5751,174.9363 103.2031,172.4813 100.4121,172.6013 C97.6221,172.7223 95.4691,175.3713 95.6061,178.5203 C95.7411,181.6683 98.1131,184.1233 100.9041,184.0023" id="Fill-36" fill="#2B1A05" mask="url(#mask-43)"></path>
                        </g>
                        <g id="Group-41">
                            <mask id="mask-45" fill="white">
                                <use xlink:href="#path-44"></use>
                            </mask>
                            <g id="Clip-40"></g>
                            <path d="M98.1839,184.1199 C100.4569,182.4959 100.8149,179.1019 98.9829,176.5369 C97.1509,173.9739 93.8239,173.2109 91.5509,174.8339 C89.2779,176.4579 88.9199,179.8519 90.7519,182.4169 C92.5839,184.9809 95.9109,185.7439 98.1839,184.1199" id="Fill-39" fill="#422808" mask="url(#mask-45)"></path>
                        </g>
                    </g>
                    <g id="Group-45" transform="translate(84.000000, 157.173000)">
                        <mask id="mask-47" fill="white">
                            <use xlink:href="#path-46"></use>
                        </mask>
                        <g id="Clip-44"></g>
                        <path d="M0.913,5.289 C0.913,5.289 -0.216,12.566 6.739,19.967 L6.739,19.967 C8.033,19.853 9.316,19.705 10.59,19.524 L10.59,19.524 C8.427,15.713 4.021,7.043 4.465,0.337 L4.465,0.337 C3.569,0.903 0.913,5.289 0.913,5.289" id="Fill-43" fill="url(#radialGradient-48)" mask="url(#mask-47)"></path>
                    </g>
                    <g id="Group-121" transform="translate(0.000000, 0.173000)">
                        <g id="Group-48">
                            <mask id="mask-50" fill="white">
                                <use xlink:href="#path-49"></use>
                            </mask>
                            <g id="Clip-47"></g>
                            <path d="M84.077,138.1815 C84.077,138.1815 51.709,141.2855 30.119,113.7855 C27.931,110.9975 26.142,107.8765 24.541,104.6445 C24.248,104.0525 23.964,103.4555 23.688,102.8525 C20.083,99.8655 17.539,96.3705 16.522,92.5815 C15.283,87.9645 15.764,81.4135 17.352,77.6895 C17.287,76.8235 17.237,75.9565 17.201,75.0895 C13.631,67.3365 12.392,57.9975 14.22,51.0635 C15.773,45.1735 21.459,40.7045 26.46,36.9935 C27.108,35.9795 27.789,34.9945 28.505,34.0405 C28.905,31.2805 31.805,27.1705 33.033,26.0965 C53.549,8.1295 80.524,14.6275 99.049,26.1155 C101.937,27.9065 104.487,29.9335 106.582,32.1605 C122.121,48.6705 121.951,78.0365 117.181,88.6045 C106.826,75.3785 101.578,69.7935 101.578,69.7935 L80.118,81.9335 C80.118,81.9335 85.217,103.0565 80.118,113.0115 C75.019,122.9665 84.077,138.1815 84.077,138.1815" id="Fill-46" fill="#170F0A" mask="url(#mask-50)"></path>
                        </g>
                        <g id="Group-51">
                            <mask id="mask-52" fill="white">
                                <use xlink:href="#path-51"></use>
                            </mask>
                            <g id="Clip-50"></g>
                            <path d="M77.0843,111.0853 C76.7893,110.7823 69.7853,103.6723 63.1393,103.6703 L63.1353,103.6703 C58.0423,103.6703 54.5943,105.8443 53.1983,106.9213 C51.6693,105.6223 47.7013,102.5003 43.9813,101.6843 C39.9613,100.8013 36.1193,103.6103 34.7883,104.7253 C32.9893,103.9983 27.4703,101.9813 23.7003,102.8423 C23.9773,103.4463 24.2563,104.0483 24.5503,104.6413 C27.6943,104.1523 32.6883,105.9093 34.5833,106.7453 L35.1783,107.0053 L35.6463,106.5573 C35.6863,106.5193 39.7193,102.7403 43.5653,103.5813 C47.6803,104.4833 52.4783,108.8723 52.5263,108.9173 L53.2053,109.5423 L53.8643,108.8973 C53.8973,108.8643 57.2893,105.6133 63.1353,105.6133 L63.1393,105.6133 C68.9633,105.6143 75.6273,112.3733 75.6933,112.4413 L77.0843,111.0853 Z" id="Fill-49" fill="#45331A" mask="url(#mask-52)"></path>
                        </g>
                        <g id="Group-54">
                            <mask id="mask-54" fill="white">
                                <use xlink:href="#path-53"></use>
                            </mask>
                            <g id="Clip-53"></g>
                            <path d="M92.7103,71.9412 L94.5923,71.4622 C94.4143,70.7612 90.1623,54.2662 84.8733,49.9842 C80.2653,46.2542 71.5533,43.3682 69.3553,42.6782 C68.8023,40.9512 67.1903,36.5042 64.9903,35.5272 C62.8133,34.5592 57.5093,35.2192 56.1173,35.4142 C54.4063,34.6902 45.0063,30.8562 38.7883,31.3192 C35.5433,31.5592 31.6783,32.8052 28.5113,34.0452 C27.7953,34.9982 27.1193,35.9872 26.4713,37.0012 C29.7573,35.5592 34.9423,33.5512 38.9323,33.2552 C45.1643,32.7892 55.4953,37.2592 55.5983,37.3042 L55.8553,37.4162 L56.1313,37.3752 C58.5073,37.0162 62.8013,36.6782 64.2023,37.3012 C65.4243,37.8452 66.9533,41.3892 67.6483,43.7312 L67.7983,44.2362 L68.3013,44.3862 C68.4063,44.4172 78.7633,47.5372 83.6523,51.4952 C88.4413,55.3722 92.6683,71.7752 92.7103,71.9412" id="Fill-52" fill="#45331A" mask="url(#mask-54)"></path>
                        </g>
                        <g id="Group-57">
                            <mask id="mask-56" fill="white">
                                <use xlink:href="#path-55"></use>
                            </mask>
                            <g id="Clip-56"></g>
                            <path d="M106.3699,31.95 C104.3159,29.809 101.8379,27.861 99.0459,26.129 C110.6109,36.201 107.1409,47.752 106.9799,48.258 L106.8619,48.627 L107.0309,48.977 C108.1659,51.33 111.0059,58.036 110.5209,60.767 C109.9059,64.229 106.4479,71.199 106.4119,71.268 L108.1519,72.135 C108.2989,71.839 111.7679,64.844 112.4329,61.107 C113.0639,57.556 109.7859,50.268 108.9359,48.46 C109.3609,46.741 110.7109,39.615 106.3699,31.95" id="Fill-55" fill="#45331A" mask="url(#mask-56)"></path>
                        </g>
                        <g id="Group-60">
                            <mask id="mask-58" fill="white">
                                <use xlink:href="#path-57"></use>
                            </mask>
                            <g id="Clip-59"></g>
                            <path d="M68.7615,75.4676 C67.6975,75.8006 62.8305,75.2666 59.4855,74.7556 C58.2035,73.1076 53.1055,66.8896 49.1045,67.3616 C45.5395,67.7846 38.9765,70.9486 37.3335,71.7616 C35.3725,71.0936 27.9335,68.6526 25.2565,69.1256 C23.2475,69.4806 19.6595,72.6906 17.2145,75.0886 C17.2505,75.9556 17.3005,76.8216 17.3655,77.6886 C20.1135,74.8886 24.0455,71.3126 25.5945,71.0386 C27.4105,70.7146 33.6085,72.5186 37.0835,73.7306 L37.4735,73.8656 L37.8425,73.6786 C37.9195,73.6396 45.6655,69.7266 49.3345,69.2906 C51.7435,68.9956 56.0415,73.3996 58.1745,76.2386 L58.4115,76.5536 L58.7995,76.6146 C60.2185,76.8386 67.3945,77.9286 69.3245,77.3256 C70.3015,77.1486 74.9775,79.4666 78.7395,81.7576 L79.7505,80.0986 C77.1215,78.4976 70.7975,74.8356 68.7615,75.4676" id="Fill-58" fill="#45331A" mask="url(#mask-58)"></path>
                        </g>
                        <g id="Group-63">
                            <mask id="mask-60" fill="white">
                                <use xlink:href="#path-59"></use>
                            </mask>
                            <g id="Clip-62"></g>
                            <path d="M75.5047,112.7694 C75.5047,112.7694 76.9617,156.5934 109.7387,150.5634 C147.1887,143.6754 128.7117,102.3084 117.9937,85.5754 C106.0967,67.0014 102.4627,64.4524 102.4627,64.4524 L77.9327,80.2334 C77.9327,80.2334 84.1237,104.1494 75.5047,112.7694" id="Fill-61" fill="#AD6916" mask="url(#mask-60)"></path>
                        </g>
                        <g id="Group-66">
                            <mask id="mask-62" fill="white">
                                <use xlink:href="#path-61"></use>
                            </mask>
                            <g id="Clip-65"></g>
                            <path d="M91.2864,99.4149 L102.5534,90.0729 C102.5534,90.0729 101.4354,83.4319 99.6224,79.6669 C94.4424,83.5519 89.3444,98.0389 89.3444,98.0389 L91.2864,99.4149 Z" id="Fill-64" fill="#170F0A" mask="url(#mask-62)"></path>
                        </g>
                        <g id="Group-69">
                            <mask id="mask-64" fill="white">
                                <use xlink:href="#path-63"></use>
                            </mask>
                            <g id="Clip-68"></g>
                            <path d="M112.1668,86.9515 L111.0518,76.9615 C111.0518,76.9615 118.4978,77.2655 119.6988,85.3325 C119.7718,86.5215 119.8538,88.6045 119.8538,88.6045 C119.8538,88.6045 118.1328,84.6105 112.1668,86.9515" id="Fill-67" fill="#170F0A" mask="url(#mask-64)"></path>
                        </g>
                        <g id="Group-72">
                            <mask id="mask-66" fill="white">
                                <use xlink:href="#path-65"></use>
                            </mask>
                            <g id="Clip-71"></g>
                            <path d="M100.4319,113.0116 L92.0959,112.4106 L92.0959,110.4216 C92.0959,110.4216 94.3619,104.3516 101.7269,102.3286 L102.1309,103.8656 L99.8649,104.8376 L100.4319,113.0116 Z" id="Fill-70" fill="#170F0A" mask="url(#mask-66)"></path>
                        </g>
                        <g id="Group-75">
                            <mask id="mask-68" fill="white">
                                <use xlink:href="#path-67"></use>
                            </mask>
                            <g id="Clip-74"></g>
                            <path d="M118.1561,107.7928 C118.1561,107.7928 121.3931,104.6408 121.3931,104.3978 C121.3931,104.1548 121.0961,101.4388 120.0311,99.4148 C120.9891,98.8488 121.3931,98.4438 121.3931,98.4438 L121.3931,97.4728 C121.3931,97.4728 118.9651,98.2008 117.1851,101.1148 C117.1041,104.9178 118.1561,107.7928 118.1561,107.7928" id="Fill-73" fill="#170F0A" mask="url(#mask-68)"></path>
                        </g>
                        <g id="Group-78">
                            <mask id="mask-70" fill="white">
                                <use xlink:href="#path-69"></use>
                            </mask>
                            <g id="Clip-77"></g>
                            <path d="M96.681,126.3148 C94.913,130.0188 102.798,142.0968 116.782,137.9858 C126.589,135.1028 128.215,123.5178 125.063,119.7928 C122.02,116.1978 119.79,122.9818 114.445,124.8438 C108.001,127.0878 99.386,120.6498 96.681,126.3148" id="Fill-76" fill="#FFFFFF" mask="url(#mask-70)"></path>
                        </g>
                        <g id="Group-81">
                            <mask id="mask-72" fill="white">
                                <use xlink:href="#path-71"></use>
                            </mask>
                            <g id="Clip-80"></g>
                            <path d="M76.6375,113.0116 C76.6375,113.0116 68.5445,105.3236 60.3705,111.4736 C52.2965,117.5496 56.6475,128.5506 63.2025,130.8976 C69.7585,133.2446 80.1175,130.8976 80.1175,130.8976 L76.6375,113.0116 Z" id="Fill-79" fill="#AD6916" mask="url(#mask-72)"></path>
                        </g>
                        <g id="Group-84">
                            <mask id="mask-74" fill="white">
                                <use xlink:href="#path-73"></use>
                            </mask>
                            <g id="Clip-83"></g>
                            <path d="M74.1263,127.0389 C74.1263,127.0389 64.3473,123.6199 65.7643,120.4629 C67.1823,117.3069 75.5043,117.3879 75.5043,117.3879 L60.8883,113.8879 L58.9513,124.1859 L74.1263,127.0389 Z" id="Fill-82" fill="#915513" mask="url(#mask-74)"></path>
                        </g>
                        <g id="Group-87">
                            <mask id="mask-76" fill="white">
                                <use xlink:href="#path-75"></use>
                            </mask>
                            <g id="Clip-86"></g>
                            <path d="M114.4446,124.8441 C108.8406,126.7951 101.5976,122.1851 98.0256,124.6741 C99.4996,124.6301 102.3956,124.7191 106.0396,125.7141 C111.3816,127.1701 116.8656,127.6561 121.0026,122.0721 C124.4996,117.3511 126.0256,124.1971 126.4136,126.4271 C126.7556,123.6931 126.2446,121.1901 125.0626,119.7931 C122.0206,116.1981 119.7896,122.9821 114.4446,124.8441" id="Fill-85" fill="#D9D9D9" mask="url(#mask-76)"></path>
                        </g>
                        <g id="Group-90">
                            <mask id="mask-78" fill="white">
                                <use xlink:href="#path-77"></use>
                            </mask>
                            <g id="Clip-89"></g>
                            <path d="M103.7733,131.4598 C103.7733,131.4598 104.1013,131.4998 104.6753,131.5708 C105.2463,131.6508 106.0693,131.6968 107.0473,131.7588 C107.5383,131.7678 108.0663,131.8088 108.6273,131.8008 C109.1863,131.8118 109.7743,131.7958 110.3813,131.7678 C110.9903,131.7678 111.6113,131.6678 112.2453,131.6268 C112.8763,131.5558 113.5133,131.4518 114.1453,131.3378 C114.7653,131.1788 115.4113,131.0998 116.0043,130.8818 C116.6003,130.6778 117.2113,130.5368 117.7503,130.2698 C118.3033,130.0338 118.8493,129.8238 119.3173,129.5308 C119.7943,129.2528 120.2793,129.0368 120.6553,128.7298 C121.0463,128.4438 121.4173,128.1918 121.7483,127.9678 C122.0433,127.6998 122.2993,127.4658 122.5103,127.2738 C122.9383,126.8888 123.1973,126.6738 123.1973,126.6738 C123.1973,126.6738 123.0073,126.9418 122.6493,127.4018 C122.4683,127.6318 122.2483,127.9118 121.9953,128.2318 C121.7033,128.5148 121.3703,128.8348 120.9943,129.1728 C120.6393,129.5408 120.1693,129.8248 119.6893,130.1528 C119.2193,130.5038 118.6723,130.7798 118.0973,131.0508 C117.5353,131.3558 116.9123,131.5628 116.2813,131.7778 C115.6553,132.0178 114.9833,132.1168 114.3293,132.2918 C112.9993,132.5188 111.6533,132.6568 110.3953,132.6208 C109.7663,132.6258 109.1603,132.5818 108.5883,132.5218 C108.0143,132.4878 107.4803,132.3798 106.9853,132.3108 C105.9993,132.1368 105.1953,131.9178 104.6373,131.7548 C104.0793,131.5908 103.7733,131.4598 103.7733,131.4598" id="Fill-88" fill="#D9D9D9" mask="url(#mask-78)"></path>
                        </g>
                        <g id="Group-93">
                            <mask id="mask-80" fill="white">
                                <use xlink:href="#path-79"></use>
                            </mask>
                            <g id="Clip-92"></g>
                            <path d="M103.8445,118.3773 C103.8445,118.6453 103.3375,118.8623 102.7115,118.8623 C102.0855,118.8623 101.5785,118.6453 101.5785,118.3773 C101.5785,118.1083 102.0855,117.8913 102.7115,117.8913 C103.3375,117.8913 103.8445,118.1083 103.8445,118.3773" id="Fill-91" fill="#855011" mask="url(#mask-80)"></path>
                        </g>
                        <g id="Group-96">
                            <mask id="mask-82" fill="white">
                                <use xlink:href="#path-81"></use>
                            </mask>
                            <g id="Clip-95"></g>
                            <path d="M99.1234,120.2772 C99.0284,120.4662 98.6204,120.4532 98.2104,120.2472 C97.8014,120.0422 97.5464,119.7222 97.6414,119.5332 C97.7364,119.3442 98.1444,119.3582 98.5544,119.5632 C98.9634,119.7682 99.2184,120.0882 99.1234,120.2772" id="Fill-94" fill="#855011" mask="url(#mask-82)"></path>
                        </g>
                        <g id="Group-99">
                            <mask id="mask-84" fill="white">
                                <use xlink:href="#path-83"></use>
                            </mask>
                            <g id="Clip-98"></g>
                            <path d="M122.4012,108.932 C122.5782,109.048 122.5192,109.452 122.2692,109.836 C122.0182,110.219 121.6722,110.436 121.4952,110.321 C121.3182,110.205 121.3772,109.801 121.6282,109.417 C121.8782,109.034 122.2242,108.817 122.4012,108.932" id="Fill-97" fill="#855011" mask="url(#mask-84)"></path>
                        </g>
                        <g id="Group-102">
                            <mask id="mask-86" fill="white">
                                <use xlink:href="#path-85"></use>
                            </mask>
                            <g id="Clip-101"></g>
                            <path d="M106.6717,119.3983 C106.8007,119.5653 106.6117,119.9283 106.2497,120.2083 C105.8867,120.4883 105.4887,120.5793 105.3597,120.4123 C105.2307,120.2453 105.4197,119.8823 105.7817,119.6023 C106.1437,119.3223 106.5427,119.2313 106.6717,119.3983" id="Fill-100" fill="#855011" mask="url(#mask-86)"></path>
                        </g>
                        <g id="Group-105">
                            <mask id="mask-88" fill="white">
                                <use xlink:href="#path-87"></use>
                            </mask>
                            <g id="Clip-104"></g>
                            <path d="M92.4661,121.1947 C92.3711,121.3827 92.1291,121.4537 91.9241,121.3507 C91.7191,121.2477 91.6301,121.0117 91.7251,120.8227 C91.8201,120.6337 92.0631,120.5637 92.2671,120.6667 C92.4721,120.7687 92.5611,121.0057 92.4661,121.1947" id="Fill-103" fill="#855011" mask="url(#mask-88)"></path>
                        </g>
                        <g id="Group-108">
                            <mask id="mask-90" fill="white">
                                <use xlink:href="#path-89"></use>
                            </mask>
                            <g id="Clip-107"></g>
                            <path d="M125.598,110.723 C125.747,110.872 125.738,111.125 125.576,111.286 C125.414,111.449 125.161,111.459 125.012,111.309 C124.862,111.16 124.872,110.908 125.035,110.745 C125.196,110.583 125.449,110.574 125.598,110.723" id="Fill-106" fill="#855011" mask="url(#mask-90)"></path>
                        </g>
                        <g id="Group-111">
                            <mask id="mask-92" fill="white">
                                <use xlink:href="#path-91"></use>
                            </mask>
                            <g id="Clip-110"></g>
                            <path d="M95.4017,117.9945 C95.4017,118.2055 95.0307,118.3775 94.5727,118.3775 C94.1147,118.3775 93.7437,118.2055 93.7437,117.9945 C93.7437,117.7835 94.1147,117.6115 94.5727,117.6115 C95.0307,117.6115 95.4017,117.7835 95.4017,117.9945" id="Fill-109" fill="#855011" mask="url(#mask-92)"></path>
                        </g>
                        <g id="Group-114">
                            <mask id="mask-94" fill="white">
                                <use xlink:href="#path-93"></use>
                            </mask>
                            <g id="Clip-113"></g>
                            <path d="M99.2112,116.2362 C99.2112,116.4472 98.8402,116.6192 98.3822,116.6192 C97.9242,116.6192 97.5532,116.4472 97.5532,116.2362 C97.5532,116.0252 97.9242,115.8532 98.3822,115.8532 C98.8402,115.8532 99.2112,116.0252 99.2112,116.2362" id="Fill-112" fill="#855011" mask="url(#mask-94)"></path>
                        </g>
                        <g id="Group-117">
                            <mask id="mask-96" fill="white">
                                <use xlink:href="#path-95"></use>
                            </mask>
                            <g id="Clip-116"></g>
                            <path d="M125.931,107.6468 C126.027,107.7278 125.905,108.0308 125.657,108.3248 C125.41,108.6178 125.132,108.7908 125.036,108.7098 C124.94,108.6288 125.062,108.3258 125.309,108.0318 C125.556,107.7378 125.835,107.5658 125.931,107.6468" id="Fill-115" fill="#855011" mask="url(#mask-96)"></path>
                        </g>
                        <g id="Group-120">
                            <mask id="mask-98" fill="white">
                                <use xlink:href="#path-97"></use>
                            </mask>
                            <g id="Clip-119"></g>
                            <path d="M115.1683,120.619 C115.1683,120.619 126.3193,114.807 123.3353,110.664 C120.3523,106.522 114.5953,113.821 114.5953,113.821 C114.5953,113.821 111.0193,104.652 111.1483,94.669 C108.6063,97.715 102.1333,119.972 115.1683,120.619" id="Fill-118" fill="#A36017" mask="url(#mask-98)"></path>
                        </g>
                    </g>
                </g>
            </g>
        </g>
    </g>
</svg>