<?xml version="1.0" encoding="UTF-8"?>
<svg width="344px" height="261px" viewBox="0 0 344 261" version="1.1" xmlns="http://www.w3.org/2000/svg" xmlns:xlink="http://www.w3.org/1999/xlink">
    <!-- Generator: Sketch 53 (72520) - https://sketchapp.com -->
    <title>Group 179</title>
    <desc>Created with Sketch.</desc>
    <defs>
        <polygon id="path-1" points="0 0.874865084 343.31103 0.874865084 343.31103 37.2855858 0 37.2855858"></polygon>
        <polygon id="path-3" points="0.0883956843 0.65841115 74.6065125 0.65841115 74.6065125 43.8821558 0.0883956843 43.8821558"></polygon>
        <path d="M32.3226,0.725244444 L15.7905,3.33375556 C13.0473,3.76744444 10.7775,5.72542222 9.9225,8.39953333 L9.9225,8.39953333 L0.765,36.9911111 C0.2115,38.7185778 1.6524,40.4296444 3.4254,40.1499333 L3.4254,40.1499333 L20.8476,37.4020222 C23.1165,37.0439556 24.9921,35.4249111 25.7004,33.2136444 L25.7004,33.2136444 L35.0631,3.97973333 C35.5914,2.32971111 34.3548,0.694266667 32.7159,0.694266667 L32.7159,0.694266667 C32.5872,0.694266667 32.4558,0.704288889 32.3226,0.725244444" id="path-5"></path>
        <linearGradient x1="55.8508252%" y1="129.539958%" x2="46.6674201%" y2="4.84475218%" id="linearGradient-7">
            <stop stop-color="#E6E6E6" offset="0%"></stop>
            <stop stop-color="#C8C8C8" offset="100%"></stop>
        </linearGradient>
        <path d="M0.285083333,0.576837209 C0.22275,0.542372093 0.163166667,0.514255814 0.105416667,0.495209302 L0.105416667,0.495209302 L0.285083333,0.576837209 Z M22.1145833,57.8188605 C25.0534167,69.0073256 23.8635833,72.8982558 23.3896667,75.2446047 L23.3896667,75.2446047 L30.1363333,77.7805116 C31.6653333,74.8691163 34.1788333,67.8101163 31.1703333,56.5572558 L31.1703333,56.5572558 C23.4263333,27.5920465 9.5755,5.09086047 8.68083333,4.42060465 L8.68083333,4.42060465 L0.285083333,0.576837209 C4.38441667,2.90776744 17.2388333,39.2512326 22.1145833,57.8188605 L22.1145833,57.8188605 Z" id="path-8"></path>
        <linearGradient x1="53.8449837%" y1="51.9832026%" x2="42.3970614%" y2="46.9460166%" id="linearGradient-10">
            <stop stop-color="#DFA300" offset="0%"></stop>
            <stop stop-color="#D48300" offset="100%"></stop>
        </linearGradient>
        <path d="M36.535493,1.29470588 C33.5848592,2.92676471 -13.6133803,76.6347353 4.73859155,88.7885588 L4.73859155,88.7885588 C17.1947887,97.0391176 63.0875352,88.1357353 63.0875352,88.1357353 L63.0875352,88.1357353 C66.693662,84.2187941 62.1042958,15.9358235 56.8594366,9.59541176 L56.8594366,9.59541176 C52.4669014,4.28438235 43.2451408,0.902647059 38.6319718,0.902647059 L38.6319718,0.902647059 C37.7366197,0.902647059 37.0152113,1.02938235 36.535493,1.29470588" id="path-11"></path>
        <linearGradient x1="49.519917%" y1="57.2936296%" x2="39.572933%" y2="22.8628495%" id="linearGradient-13">
            <stop stop-color="#DFA307" offset="0%"></stop>
            <stop stop-color="#FFBA07" offset="100%"></stop>
        </linearGradient>
        <path d="M1.42908451,2.44259259 C-0.314929577,10.9490741 0.248098592,17.7055556 4.73309859,20.7231481 L4.73309859,20.7231481 C17.1892958,29.1018519 63.0820423,20.0601852 63.0820423,20.0601852 L63.0820423,20.0601852 C64.2483803,18.7740741 64.5569014,10.6527778 64.2648592,0.0361111111 L64.2648592,0.0361111111 C54.4782394,1.31851852 20.868662,5.31018519 1.42908451,2.44259259" id="path-14"></path>
        <linearGradient x1="50.9947799%" y1="50.1079761%" x2="53.0266081%" y2="57.4072281%" id="linearGradient-16">
            <stop stop-color="#934F00" offset="0%"></stop>
            <stop stop-color="#AF5D00" offset="100%"></stop>
        </linearGradient>
    </defs>
    <g id="Page-2" stroke="none" stroke-width="1" fill="none" fill-rule="evenodd">
        <g id="Artboard" transform="translate(-259.000000, -119.000000)">
            <g id="Group-179" transform="translate(259.000000, 119.000000)">
                <g id="Group-125">
                    <g id="Group-3" transform="translate(0.000000, 223.714286)">
                        <mask id="mask-2" fill="white">
                            <use xlink:href="#path-1"></use>
                        </mask>
                        <g id="Clip-2"></g>
                        <path d="M-0.000182010582,16.6264275 C-0.000182010582,31.9690443 39.852855,15.3450721 62.3311619,16.3908909 C73.9407069,16.9319885 53.6865693,39.8508805 99.2192466,37.0480861 C154.133659,33.6669084 245.199014,10.9999223 272.252157,10.722553 C299.304389,10.446093 343.184411,20.1531105 343.310908,8.85644843 C343.436495,-2.44021359 246.892622,1.56390836 173.081871,1.56390836 C99.2711196,1.56390836 99.9900614,4.22483519 77.5572571,4.22483519 C55.1244529,4.22483519 -0.000182010582,-2.70757944 -0.000182010582,16.6264275" id="Fill-1" fill="#E3E8F2" mask="url(#mask-2)"></path>
                    </g>
                    <path d="M60.4330646,227.70313 C59.614927,216.136374 68.2185672,89.0466523 106.45353,56.8799937 C122.033636,43.7717916 192.252408,16.2012794 228.185848,47.491269 C264.120197,78.7821679 268.242737,171.140701 270.459625,171.09614 C272.676514,171.051579 315.110461,162.884189 313.632535,227.910475 C238.255583,249.367039 60.4330646,227.70313 60.4330646,227.70313" id="Fill-4" fill="#15497C"></path>
                    <path d="M281.850485,182.668807 C265.539606,167.595375 247.848178,178.163602 247.671628,178.272731 L246.718802,176.722191 C246.908093,176.606696 265.77349,165.335497 283.086337,181.332887 L281.850485,182.668807 Z" id="Fill-6" fill="#113A5B"></path>
                    <path d="M179.834372,192.293978 C179.137272,191.008076 162.335875,160.746626 125.202986,155.990424 L125.43414,154.187069 C163.481632,159.059675 180.719854,190.108671 181.434246,191.428222 L179.834372,192.293978 Z" id="Fill-8" fill="#113A5B"></path>
                    <path d="M190.45196,183.495641 C190.433759,183.495641 190.416468,183.495641 190.399177,183.493822 L190.508383,181.678644 C189.962351,181.641359 189.642013,182.087878 189.617441,182.344331 C189.975092,178.677599 172.074351,101.146048 126.272298,82.4040659 L126.962119,80.7207523 C151.41797,90.7278742 167.676976,117.222557 177.010478,137.686048 C187.274965,160.192069 191.82341,180.850174 191.399325,182.708094 C191.273738,183.255557 190.831452,183.495641 190.45196,183.495641" id="Fill-10" fill="#113A5B"></path>
                    <path d="M243.464271,128.583878 C243.464271,128.583878 232.820292,131.77408 225.590832,134.613251 C219.849308,121.311345 210.76243,106.498003 210.76243,106.498003 L202.189731,110.792226 C202.189731,110.792226 213.934874,142.877948 215.256271,146.494662 C216.196356,149.066467 218.364102,150.578812 220.663805,150.958944 C224.746303,151.905638 236.262112,147.26493 245.086895,130.686429 C243.79189,127.610812 243.464271,128.583878 243.464271,128.583878" id="Fill-12" fill="#9E6749"></path>
                    <path d="M198.417198,90.5797317 C199.333621,89.9777038 201.539589,89.6048467 203.306912,91.3272648 C210.48632,98.323338 215.032944,108.074916 219.570468,117.720094 C220.185663,119.026913 215.173092,126.50861 203.43523,126.533164 C200.133558,118.855944 197.94215,103.345087 196.650785,95.2140732 C196.252182,92.7004704 197.223208,91.3627317 198.417198,90.5797317" id="Fill-14" fill="#099ACC"></path>
                    <path d="M224.516787,167.380664 C224.516787,167.380664 224.999115,168.840263 225.485084,171.477546 C227.746565,183.728176 218.423983,191.403577 204.894226,193.896263 C191.36538,196.389859 179.916004,192.543065 177.655433,180.292434 C177.168554,177.655152 177.09757,176.120072 177.09757,176.120072 L224.516787,167.380664 Z" id="Fill-19" fill="#168698"></path>
                    <path d="M209.171566,185.920122 L207.234063,175.42101 L209.023228,175.090895 L210.601259,183.638418 C210.914317,183.43562 211.260138,183.120965 211.534063,182.638979 C212.147439,181.558602 212.536032,179.38239 210.902487,175.146369 L212.600646,174.492505 C214.131354,178.46116 214.294254,181.522226 213.085704,183.58931 C211.975439,185.489062 210.118021,185.781892 210.039757,185.792805 L209.171566,185.920122 Z" id="Fill-21" fill="#116A78"></path>
                    <path d="M182.554794,0.949785366 C201.199958,0.949785366 211.772042,8.60154146 217.185037,34.2841233 C222.598942,59.9667052 217.357947,84.946315 179.846476,84.946315 C142.335005,84.946315 127.251788,67.8912836 136.345037,34.341416 C142.749079,10.7150049 163.412741,0.949785366 182.554794,0.949785366" id="Fill-23" fill="#170F0A"></path>
                    <path d="M202.812753,77.9390561 L201.20469,77.0869411 C212.593092,55.6203732 200.726912,37.5431676 200.605875,37.3621955 L202.114743,36.3454777 C202.24215,36.5346345 214.726256,55.4812338 202.812753,77.9390561" id="Fill-25" fill="#3B271A"></path>
                    <path d="M161.036593,85.3195359 L160.192063,83.7089749 C175.924148,75.4715603 169.875026,48.217522 169.812233,47.9428808 L171.585926,47.5363756 C171.65327,47.8282955 173.222201,54.7852641 172.766265,62.9308286 C172.152889,73.8810063 168.096783,81.6227937 161.036593,85.3195359" id="Fill-27" fill="#3B271A"></path>
                    <path d="M138.140844,71.5256404 L137.599363,69.7895812 C154.446262,64.5386613 156.726855,33.3587101 156.747786,33.0440551 L158.564252,33.1659157 C158.541501,33.4978495 157.988188,41.3887798 155.244379,50.09363 C151.564125,61.774062 145.649691,69.1857345 138.140844,71.5256404" id="Fill-29" fill="#3B271A"></path>
                    <path d="M177.203319,74.0868962 L175.412334,90.7336035 C175.412334,90.7336035 182.358768,99.9868265 191.599446,99.7994885 C200.585308,99.6185164 197.261795,92.3741749 196.938726,90.1443073 C196.887763,89.7969136 194.351446,73.803161 194.351446,73.803161 L177.203319,74.0868962 Z" id="Fill-31" fill="#915C44"></path>
                    <path d="M186.874815,79.1331084 C212.191577,79.1331084 227.476825,60.8267321 221.685249,43.5643557 C219.882434,38.1879376 219.588487,32.6942059 217.972233,28.295401 C213.048847,14.8916415 204.014751,7.95467979 185.386878,7.95467979 C168.700148,7.95467979 150.625587,16.7541084 148.61164,42.6331223 C146.597693,68.5121362 170.11528,79.1331084 186.874815,79.1331084" id="Fill-33" fill="#9E6749"></path>
                    <path d="M150.742893,42.8140944 L143.46247,41.7309899 C143.46247,41.7309899 139.244375,51.544408 148.79993,51.544408 C151.955994,46.6372443 150.742893,42.8140944 150.742893,42.8140944" id="Fill-35" fill="#9E6749"></path>
                    <path d="M174.411822,36.6990554 C174.411822,36.6990554 175.999865,27.7377523 187.212626,28.4161704 C187.282701,30.084024 187.44196,31.0689125 188.81978,28.9472645 C191.445283,29.8566721 195.057283,33.5852436 193.086108,41.2433655 C193.086108,41.2433655 191.611822,32.5039578 184.948415,31.3717453 C177.872753,30.1695084 174.411822,36.6990554 174.411822,36.6990554" id="Fill-37" fill="#72441B"></path>
                    <path d="M193.120326,40.4854652 C193.120326,45.5790575 188.970485,48.0590122 184.230929,48.0590122 C179.490463,48.0590122 174.189405,43.6920366 174.189405,38.5984443 C174.189405,33.5039425 178.704178,30.170054 183.444643,30.170054 C188.184199,30.170054 193.120326,35.3909634 193.120326,40.4854652" id="Fill-39" fill="#FFFFFF"></path>
                    <path d="M181.375911,42.9481411 C181.375911,39.6187997 183.946811,36.9205871 187.117435,36.9205871 C190.288059,36.9205871 192.858959,39.6187997 192.858959,42.9481411 C192.858959,46.2774826 190.288059,48.9756951 187.117435,48.9756951 C183.946811,48.9756951 181.375911,46.2774826 181.375911,42.9481411" id="Fill-41" fill="#000000"></path>
                    <path d="M218.260538,36.6990554 C218.260538,36.6990554 220.013299,27.583153 212.10949,28.4161704 C211.699966,29.1173237 211.344135,29.1173237 210.829956,28.9472645 C208.483839,29.1446059 202.903395,32.9368359 203.384813,41.2433655 C203.384813,41.2433655 204.558781,32.5039578 209.86712,31.3717453 C215.503077,30.1695084 218.260538,36.6990554 218.260538,36.6990554" id="Fill-43" fill="#72441B"></path>
                    <path d="M203.357602,40.4854652 C203.357602,45.5799669 206.662914,48.0599216 210.438724,48.0599216 C214.214533,48.0599216 218.437179,43.6920366 218.437179,38.5984443 C218.437179,33.5039425 214.84065,30.170054 211.06484,30.170054 C207.289031,30.170054 203.357602,35.3909634 203.357602,40.4854652" id="Fill-45" fill="#FFFFFF"></path>
                    <path d="M215.498891,42.9481411 C215.498891,39.6187997 213.287462,36.9205871 210.559124,36.9205871 C207.831695,36.9205871 205.620267,39.6187997 205.620267,42.9481411 C205.620267,46.2774826 207.831695,48.9756951 210.559124,48.9756951 C213.287462,48.9756951 215.498891,46.2774826 215.498891,42.9481411" id="Fill-47" fill="#000000"></path>
                    <path d="M201.512106,49.0253488 L206.06146,45.9197216 C206.06146,45.9197216 209.130159,50.9769376 205.913122,52.3637843 C202.672423,53.7615439 199.395323,52.5502129 199.395323,52.5502129 L197.749037,29.7540909 L199.86582,28.5791362 L201.512106,49.0253488 Z" id="Fill-49" fill="#915C44"></path>
                    <path d="M176.944226,23.2591014 L177.908883,25.77907 C177.908883,25.77907 184.840756,25.4553209 187.729263,23.6983453 C190.617771,21.9413697 190.782491,19.6569376 190.782491,19.6569376 C190.782491,19.6569376 177.290047,23.0390247 176.944226,23.2591014" id="Fill-51" fill="#170F0A"></path>
                    <path d="M207.575879,16.7760251 C207.575879,16.7760251 207.672345,19.0650042 209.839181,20.8820007 C212.006017,22.6999066 217.255202,23.169161 217.255202,23.169161 L218.016916,20.6710181 C217.757551,20.4436662 207.575879,16.7760251 207.575879,16.7760251" id="Fill-53" fill="#170F0A"></path>
                    <path d="M200.438971,59.0710296 L200.385278,59.0710296 C195.898717,59.0328345 191.631479,56.4492073 191.452199,56.339169 L192.144749,55.2096847 C192.185702,55.2342387 196.28458,57.7105557 200.396199,57.7460226 C200.41076,57.7460226 200.424411,57.7460226 200.438061,57.7460226 C203.114527,57.7460226 204.37586,55.5470749 204.427733,55.4534059 L205.588961,56.0927195 C205.521617,56.2154895 203.914463,59.0710296 200.438971,59.0710296" id="Fill-55" fill="#7A4C39"></path>
                    <path d="M190.674559,57.0319557 C190.674559,57.0319557 190.487998,54.3737571 193.10895,54.6984157 C192.507405,55.5250672 190.674559,57.0319557 190.674559,57.0319557" id="Fill-57" fill="#7A4C39"></path>
                    <path d="M144.900444,41.9446098 L143.462561,41.730899 C143.462561,41.730899 143.323323,42.0573763 143.153143,42.587561 C144.160571,42.9476864 145.00237,43.6333798 145.67672,44.4163798 C144.274328,44.9092787 143.27509,45.7395679 142.549778,46.6580697 C142.58709,47.2928362 142.709037,47.9266934 142.946561,48.5187178 C143.582688,47.314662 144.672021,46.0969652 146.534899,45.576784 C147.41219,46.9472613 147.837185,48.2368014 147.847196,48.2668118 L149.147661,47.852122 C148.581608,46.0760488 147.148275,43.3842021 144.900444,41.9446098" id="Fill-59" fill="#915C44"></path>
                    <g id="Group-63" transform="translate(145.608466, 0.000000)">
                        <mask id="mask-4" fill="white">
                            <use xlink:href="#path-3"></use>
                        </mask>
                        <g id="Clip-62"></g>
                        <path d="M73.3782032,30.8709345 C72.9595788,29.9342446 72.5864571,29.0884955 72.2588381,28.3336871 C72.0768275,28.7520146 71.6673037,29.0248369 70.9483619,29.0612132 C66.9987323,29.2521889 58.5261397,21.676823 58.5261397,21.676823 C58.5261397,21.676823 60.1915365,27.1514571 55.2590497,26.1056383 C50.654182,25.1325721 44.1837058,15.8566139 37.685928,15.8566139 C26.1828593,15.8566139 19.2846582,32.235046 12.8414836,38.8373456 C9.9657164,41.7838265 5.62476402,43.5207951 2.83090159,43.8299937 C1.79344127,43.9482167 0.965293122,43.86637 0.501166138,43.5753596 C0.209949206,43.4025721 0.0643407407,43.147938 0.091642328,42.8114571 C1.55682751,24.9234084 6.56211852,14.1105512 14.5432825,7.92657909 C15.0893143,7.49915749 15.6535471,7.08992404 16.235981,6.70797282 C23.1068804,2.15184042 31.9525947,0.587659233 42.4455048,0.660411847 C76.2721714,0.887763763 76.435981,37.7642446 73.3782032,30.8709345" id="Fill-61" fill="#170F0A" mask="url(#mask-4)"></path>
                    </g>
                    <path d="M148.439367,43.8299937 C147.401907,43.9482167 146.573759,43.86637 146.109632,43.5753596 C159.532912,31.6348369 160.52487,15.4110042 160.151748,7.92657909 C160.115346,7.12630035 160.060743,6.42605645 160.00614,5.84403554 L161.698838,5.08922718 C161.753441,5.54393101 161.798944,6.08957561 161.844447,6.70797282 C162.354076,13.7558822 161.962753,30.9164049 148.439367,43.8299937" id="Fill-64" fill="#3B271A"></path>
                    <path d="M182.968959,0.770359233 C181.316303,0.854934146 179.710969,0.991345296 178.153869,1.18504913 C194.790546,5.1327878 201.621403,15.8910805 204.235985,22.0868749 C204.182292,21.8386066 204.134059,21.6767321 204.134059,21.6767321 C204.134059,21.6767321 205.217022,22.6416136 206.777763,23.8684045 C205.947795,21.3984533 204.217784,17.3343105 200.856049,13.1092024 C197.44517,8.8222547 191.823774,3.83051603 182.968959,0.770359233" id="Fill-66" fill="#3B271A"></path>
                    <path d="M218.410787,20.9949491 C211.957602,10.0074857 202.128121,4.1809108 193.960396,1.10620348 C192.115719,0.829743554 190.150004,0.674234843 188.054152,0.660593728 C187.526322,0.656956098 187.006681,0.660593728 186.487951,0.665140767 C196.176375,2.97776446 213.049666,9.70647178 220.188121,28.8949735 C220.074364,26.9251965 219.552904,24.1033045 218.410787,20.9949491" id="Fill-68" fill="#3B271A"></path>
                    <path d="M211.46317,177.419706 C222.98899,174.705124 226.603721,174.43503 225.992165,170.991103 C225.38061,167.548086 219.620885,158.095703 213.68461,147.211912 C211.204715,136.151696 210.93898,127.457759 209.788673,118.985717 C207.987678,105.729281 204.351107,94.3225808 204.250091,93.5941453 C203.960694,91.4961418 202.387213,90.0338143 200.248588,90.0774659 C199.725308,90.0874693 198.513117,90.1120233 196.938726,90.1438526 C197.315488,95.1028526 196.83862,99.1515355 193.009117,99.2288352 C187.253943,99.34433 180.069075,94.7409084 175.433266,90.5785495 C173.679594,90.5412638 171.089583,90.666762 170.565393,90.6776749 C168.426768,90.7204171 167.020737,92.257316 166.709498,94.3535007 C165.571022,102.034358 164.926705,127.410469 166.815065,148.523278 C167.757879,159.055128 175.00008,176.690361 177.978684,183.20263 C178.25261,183.801929 179.108059,176.583051 184.558366,176.413901 C192.102705,176.179274 200.523424,179.996968 211.46317,177.419706" id="Fill-70" fill="#00A6ED"></path>
                    <path d="M193.406538,102.489516 C195.248485,102.452231 196.71185,101.756534 197.75386,100.421523 C199.874284,97.7060321 199.664061,92.9380077 199.2964,90.0961087 C198.746728,90.1070216 198.189776,90.1188439 197.691067,90.1288474 C198.039617,92.7042899 198.303532,97.134924 196.498897,99.4448195 C195.755384,100.396969 194.733395,100.87259 193.373776,100.899872 C185.564612,101.058109 177.261289,93.7610216 174.01695,90.5771854 C173.248866,90.5871889 172.46804,90.6108334 171.831913,90.6326592 C173.973268,92.9025408 183.772717,102.68413 193.406538,102.489516" id="Fill-75" fill="#099ACC"></path>
                    <path d="M209.727517,193.651815 C203.803073,193.945553 199.473041,189.988721 200.725274,183.244553 C202.072152,175.989299 216.894184,172.980978 225.992893,170.991194 C233.396174,169.371539 250.514269,166.515999 253.80866,167.380846 C257.116703,168.248421 258.584618,172.344393 259.14157,175.989299 C259.596597,178.963971 258.011285,182.756201 254.49484,184.7087 C250.978396,186.661198 232.183983,192.535971 209.727517,193.651815" id="Fill-77" fill="#302F2E"></path>
                    <polygon id="Fill-79" fill="#161616" points="211.749382 184.142139 211.459075 182.346059 247.050334 176.599511 247.340641 178.395592"></polygon>
                    <path d="M195.964241,115.475676 C195.995183,115.599355 200.202358,115.154655 200.631903,114.108836 C201.061448,113.063017 198.740813,111.374247 198.740813,111.374247 C198.740813,111.374247 195.481913,113.545913 195.964241,115.475676" id="Fill-81" fill="#915C44"></path>
                    <path d="M186.199465,106.989902 L201.446491,112.787376 L202.949898,114.22424 L200.979634,114.597097 L185.138343,109.366184 C185.138343,109.366184 184.038089,107.251811 186.199465,106.989902" id="Fill-83" fill="#F0F0F0"></path>
                    <path d="M148.589526,118.171888 C147.958859,118.878498 148.794288,121.015606 155.19742,124.719623 C161.201039,128.192651 163.900256,128.719198 164.458119,127.457849 C165.014161,126.195592 161.882669,122.922633 157.480743,120.460867 C153.077907,117.9991 149.35306,117.315226 148.589526,118.171888" id="Fill-85" fill="#0586A3"></path>
                    <path d="M195.747467,108.63202 C194.737308,108.559267 189.816652,109.345905 189.43807,110.21257 C189.059488,111.079236 189.055848,117.265026 189.055848,118.756455 C187.54425,120.187863 157.767319,140.105709 159.195192,136.529918 C160.623065,132.954128 168.301181,111.329323 168.301181,111.329323 L159.85862,106.784103 C159.85862,106.784103 149.270154,116.733023 144.580652,136.51173 C143.290197,141.954535 144.55244,151.095901 157.157583,151.495131 C177.592821,152.143539 191.228144,123.917344 192.123636,120.995417 C192.145477,120.922664 192.160948,120.858096 192.180059,120.788981 C192.180969,120.788981 192.180969,120.788981 192.181879,120.788981 C195.570916,119.222981 197.149858,114.223967 197.149858,114.223967 C197.149858,114.223967 200.349604,112.666152 200.345964,112.339675 C200.323213,110.234396 196.757625,108.704772 195.747467,108.63202" id="Fill-87" fill="#9E6749"></path>
                    <path d="M172.669526,91.2373244 C171.771304,90.6089237 169.578076,90.1705892 167.75979,91.8402617 C160.377441,98.6217146 153.410076,108.665213 148.589526,118.172161 C150.072912,117.81931 160.156298,121.746133 164.458119,127.458122 C167.984574,119.881847 171.835007,103.66529 174.298521,95.9216833 C175.069335,93.496293 173.838944,92.0557913 172.669526,91.2373244" id="Fill-89" fill="#099ACC"></path>
                    <path d="M188.880662,196.559464 C183.950906,196.275729 177.930906,191.201234 177.979139,184.341572 C178.031012,177.021749 184.673488,175.310244 192.368895,174.213499 C198.630059,173.32137 214.431308,172.043652 217.089572,173.224063 C219.757848,174.409931 222.808345,179.832729 222.193149,182.750108 C221.578863,185.666579 221.244874,187.419917 218.174356,189.022293 C215.103837,190.624669 207.567689,197.630746 188.880662,196.559464" id="Fill-91" fill="#302F2E"></path>
                    <path d="M183.727852,188.312591 C182.713143,188.312591 181.867704,188.002483 181.168783,187.39318 C179.535238,185.969957 179.38781,183.399062 179.382349,183.289933 L181.199725,183.198083 C181.229757,183.727358 181.497312,185.271532 182.369143,186.02634 C182.793228,186.393741 183.320148,186.541975 183.981757,186.486501 L206.035069,183.000741 L206.319005,184.797731 L184.201989,188.291675 C184.04,188.305316 183.881651,188.312591 183.727852,188.312591" id="Fill-93" fill="#161616"></path>
                    <path d="M203.185602,183.705168 C203.599676,189.875499 206.651994,193.537684 213.541094,192.0699 C219.262597,190.852203 223.205856,187.32552 222.273962,180.998771 C221.341158,174.672022 217.986703,172.953241 214.684121,172.747715 C211.380629,172.542189 202.63411,175.467754 203.185602,183.705168" id="Fill-95" fill="#161616"></path>
                    <path d="M216.559558,174.383285 C213.803917,173.344741 209.298246,174.165937 207.472679,178.584748 C205.646203,183.002651 206.600849,192.168571 213.054034,191.108201 C218.649949,190.18879 222.523134,186.609362 221.735939,181.756762 C221.07888,177.708079 219.315198,175.422738 216.559558,174.383285" id="Fill-97" fill="#0E5561"></path>
                    <path d="M245.570588,178.405049 C246.133911,184.569924 248.86407,188.04659 252.809149,187.408185 C258.415075,186.500597 260.197869,182.56559 259.52261,173.979872 C259.239583,170.382255 258.130229,167.93322 257.022694,167.221154 C256.489403,166.877398 252.813699,166.737349 250.899858,166.763722 C249.100684,166.788276 244.841636,170.42045 245.570588,178.405049" id="Fill-99" fill="#161616"></path>
                    <path d="M211.373439,174.562256 C209.788127,175.228852 208.332042,176.503842 207.472042,178.584567 C206.165206,181.746577 206.283513,187.339434 208.822561,189.875772 C213.148952,188.914528 218.60927,184.983159 219.405566,183.546295 C220.517651,181.537413 214.244656,174.12756 214.244656,174.12756 C213.97619,174.120284 212.700296,174.12756 211.373439,174.562256" id="Fill-101" fill="#9E6749"></path>
                    <polygon id="Fill-103" fill="#161616" points="183.57196 186.688298 181.934775 185.894385 186.933695 175.592615 188.57179 176.386528"></polygon>
                    <path d="M245.436356,185.326006 C245.436356,185.326006 224.88099,185.326006 194.169435,189.875772 C189.056758,190.633309 184.576567,191.33719 180.634218,191.861918 C167.055319,193.667093 179.824271,210.35927 179.824271,210.35927 C187.752652,215.951218 231.215869,228.218218 243.060207,193.667093 C243.689054,191.408124 244.883953,187.169375 245.436356,185.326006" id="Fill-105" fill="#15497C"></path>
                    <path d="M249.515668,173.201692 C249.171668,174.222047 245.484133,183.624413 241.856662,198.365911 C239.532387,207.813747 239.116493,216.446754 234.285932,233.134385 C234.162165,234.075622 234.480684,234.95411 235.502673,235.311507 C236.522842,235.667085 237.188091,235.034138 237.382842,234.334803 C238.103604,231.747538 247.286038,212.026124 251.146483,202.981155 C256.027096,191.542625 260.515477,180.197765 261.471033,177.377692 C262.655012,173.885566 261.76316,170.086061 257.743456,168.662838 C254.014059,167.342378 250.776091,169.466754 249.515668,173.201692" id="Fill-107" fill="#9E6749"></path>
                    <path d="M235.306739,234.100903 C235.306739,234.100903 239.886125,231.326301 241.86913,231.026196 C244.027776,230.700628 238.286252,234.880266 238.286252,234.880266 L235.306739,234.100903 Z" id="Fill-109" fill="#302F2E"></path>
                    <path d="M232.171788,234.835432 C232.171788,234.835432 233.132804,233.280345 234.514265,233.519519 C235.895725,233.757784 246.394095,236.754282 246.98745,237.327209 C247.580804,237.901045 247.259556,240.106359 247.259556,240.106359 L232.171788,234.835432 Z" id="Fill-111" fill="#161616"></path>
                    <polygon id="Fill-113" fill="#161616" points="247.516463 240.33362 247.531934 238.944045 232.388654 234.20694 231.81168 234.847163"></polygon>
                    <path d="M244.706311,234.624904 C244.195771,235.864427 250.416893,240.161378 253.854163,238.626298 C256.846417,237.291287 257.92483,235.810772 257.0712,234.848618 C256.21848,233.886465 245.675517,232.268629 244.706311,234.624904" id="Fill-115" fill="#161616"></path>
                    <path d="M244.896967,234.688836 C244.416459,235.874703 250.874195,239.201316 253.72357,237.997261 C256.573856,236.792295 257.379253,235.83287 256.575676,234.91164 C255.771189,233.99132 245.80975,232.434414 244.896967,234.688836" id="Fill-117" fill="#161616"></path>
                    <path d="M219.748292,177.526289 C220.291594,178.452066 225.303255,189.835122 231.521647,202.346752 C236.05098,211.460836 241.142726,221.636198 247.955382,232.998338 C248.354895,233.851362 248.308483,234.769864 247.422091,235.390989 C246.53752,236.011205 245.702091,235.599244 245.304398,234.992669 C243.831932,232.750069 229.370281,216.207944 223.16008,208.180602 C215.526557,198.315348 211.604229,188.944811 209.380969,184.796094 C207.638218,181.544052 207.407065,177.290752 211.068207,175.084529 C214.356229,173.10293 217.875403,174.335177 219.748292,177.526289" id="Fill-119" fill="#9E6749"></path>
                    <path d="M246.569098,235.698642 C246.569098,235.698642 246.406199,232.456603 247.346284,232.259262 C248.286368,232.061921 248.83968,234.02806 248.83968,234.02806 C248.83968,234.02806 249.952675,236.261565 246.569098,235.698642" id="Fill-121" fill="#302F2E"></path>
                    <path d="M247.735513,126.36456 C247.395153,126.661936 246.102878,127.770504 245.980931,127.512232 C245.858984,127.25396 245.60963,125.947141 245.764339,125.70342 C245.919958,125.460608 246.969249,125.186877 246.969249,125.186877 L247.735513,126.36456 Z" id="Fill-123" fill="#915C44"></path>
                </g>
                <g id="Group-128" transform="translate(217.000000, 107.000000)">
                    <mask id="mask-6" fill="white">
                        <use xlink:href="#path-5"></use>
                    </mask>
                    <g id="Clip-127"></g>
                    <path d="M32.3226,0.725244444 L15.7905,3.33375556 C13.0473,3.76744444 10.7775,5.72542222 9.9225,8.39953333 L9.9225,8.39953333 L0.765,36.9911111 C0.2115,38.7185778 1.6524,40.4296444 3.4254,40.1499333 L3.4254,40.1499333 L20.8476,37.4020222 C23.1165,37.0439556 24.9921,35.4249111 25.7004,33.2136444 L25.7004,33.2136444 L35.0631,3.97973333 C35.5914,2.32971111 34.3548,0.694266667 32.7159,0.694266667 L32.7159,0.694266667 C32.5872,0.694266667 32.4558,0.704288889 32.3226,0.725244444" id="Fill-126" fill="url(#linearGradient-7)" mask="url(#mask-6)"></path>
                </g>
                <g id="Group-139" transform="translate(85.000000, 121.000000)">
                    <path d="M149.421584,5.48086479 L148.316407,8.43332958 C148.254451,8.5968507 148.252629,8.74492817 148.312762,8.84304085 C148.501362,9.15009718 149.003384,9.76693521 149.960962,9.67790704 C150.892118,9.59160423 151.865184,8.96386479 152.314362,8.63773099 C152.474718,8.5214493 152.606829,8.34520986 152.675162,8.16261127 L153.826807,5.08478028 C153.893318,4.91035775 154.033629,4.74320282 154.189429,4.65417465 L155.995251,3.62399155 C156.226673,3.4922662 156.360607,3.16613239 156.23214,3.04712535 L153.574429,0.579773239 C153.515207,0.525266197 153.412251,0.532533803 153.306562,0.597942254 L148.445784,3.6267169 C148.216184,3.77025211 148.095918,4.09456901 148.233496,4.2017662 L149.378762,5.09659014 C149.468051,5.16563239 149.484451,5.31280141 149.421584,5.48086479" id="Fill-129" fill="#FFFFFF"></path>
                    <path d="M163.257809,2.77940493 C162.773098,2.46144718 160.529942,2.04537676 160.529942,2.04537676 C160.529942,2.04537676 160.012431,3.40351056 160.259342,3.85773592 C160.652942,4.58177113 161.308031,4.2947007 162.072453,4.45186268 C162.207298,5.21677817 162.79952,5.88085563 163.290609,5.40755282 C163.780787,4.93425 163.74252,3.09736268 163.257809,2.77940493" id="Fill-131" fill="#9E6749"></path>
                    <path d="M161.742996,5.56952958 C161.371262,5.49594507 159.342218,6.65240282 159.342218,6.65240282 C159.342218,6.65240282 159.657462,7.73890986 160.871973,7.75798732 C160.230551,8.14589577 159.014218,9.04798732 159.014218,9.04798732 C159.014218,9.04798732 159.236529,9.43952958 159.58184,9.69117042 C159.183684,9.97551549 158.859329,10.2162549 158.859329,10.2162549 C158.859329,10.2162549 159.576373,11.5289662 160.48384,10.8930507 C161.704729,10.0381986 161.974418,10.4115718 162.12384,9.71569859 C162.187618,9.42499437 162.094684,9.20060704 161.937973,9.03890282 C162.119284,8.95169155 162.213129,8.85267042 162.278729,8.54833944 C162.376218,8.09593099 162.101973,7.80522676 161.78764,7.6644169 C162.716062,7.49726197 163.129707,7.23562817 163.250884,6.82864225 C163.396662,6.33535352 163.213529,5.8620507 161.742996,5.56952958" id="Fill-133" fill="#9E6749"></path>
                    <path d="M9.34900222,45.6784458 C9.34900222,45.6784458 13.4107356,30.5618261 7.72540222,28.2516359 C2.04006889,25.9423542 0.257935556,42.6342275 0.257935556,42.6342275 L2.93842444,43.683488 C2.93842444,43.683488 4.00533556,29.7705655 6.61566889,29.6061359 C8.89891333,29.4616923 7.52678,44.9889317 7.52678,44.9889317 L9.34900222,45.6784458 Z" id="Fill-135" fill="#C76A00"></path>
                    <path d="M36.0007333,120.396699 C36.0007333,120.396699 35.9278444,125.57396 32.8227778,126.831256 C30.5431778,127.75515 24.2082222,128.262974 21.0166,128.094911 C18.0882889,127.939565 19.0941556,126.67046 19.0941556,126.67046 C19.0941556,126.67046 26.1361333,126.294361 28.6918,125.563967 C31.0342667,124.894439 31.9991333,123.315551 33.0122889,119.956101 C36.4289556,119.956101 36.0007333,120.396699 36.0007333,120.396699" id="Fill-137" fill="#F5C800"></path>
                </g>
                <g id="Group-142" transform="translate(92.000000, 169.000000)">
                    <mask id="mask-9" fill="white">
                        <use xlink:href="#path-8"></use>
                    </mask>
                    <g id="Clip-141"></g>
                    <path d="M0.285083333,0.576837209 C0.22275,0.542372093 0.163166667,0.514255814 0.105416667,0.495209302 L0.105416667,0.495209302 L0.285083333,0.576837209 Z M22.1145833,57.8188605 C25.0534167,69.0073256 23.8635833,72.8982558 23.3896667,75.2446047 L23.3896667,75.2446047 L30.1363333,77.7805116 C31.6653333,74.8691163 34.1788333,67.8101163 31.1703333,56.5572558 L31.1703333,56.5572558 C23.4263333,27.5920465 9.5755,5.09086047 8.68083333,4.42060465 L8.68083333,4.42060465 L0.285083333,0.576837209 C4.38441667,2.90776744 17.2388333,39.2512326 22.1145833,57.8188605 L22.1145833,57.8188605 Z" id="Fill-140" fill="url(#linearGradient-10)" mask="url(#mask-9)"></path>
                </g>
                <g id="Group-145" transform="translate(44.000000, 162.000000)">
                    <mask id="mask-12" fill="white">
                        <use xlink:href="#path-11"></use>
                    </mask>
                    <g id="Clip-144"></g>
                    <path d="M36.535493,1.29470588 C33.5848592,2.92676471 -13.6133803,76.6347353 4.73859155,88.7885588 L4.73859155,88.7885588 C17.1947887,97.0391176 63.0875352,88.1357353 63.0875352,88.1357353 L63.0875352,88.1357353 C66.693662,84.2187941 62.1042958,15.9358235 56.8594366,9.59541176 L56.8594366,9.59541176 C52.4669014,4.28438235 43.2451408,0.902647059 38.6319718,0.902647059 L38.6319718,0.902647059 C37.7366197,0.902647059 37.0152113,1.02938235 36.535493,1.29470588" id="Fill-143" fill="url(#linearGradient-13)" mask="url(#mask-12)"></path>
                </g>
                <g id="Group-148" transform="translate(44.000000, 230.000000)">
                    <mask id="mask-15" fill="white">
                        <use xlink:href="#path-14"></use>
                    </mask>
                    <g id="Clip-147"></g>
                    <path d="M1.42908451,2.44259259 C-0.314929577,10.9490741 0.248098592,17.7055556 4.73309859,20.7231481 L4.73309859,20.7231481 C17.1892958,29.1018519 63.0820423,20.0601852 63.0820423,20.0601852 L63.0820423,20.0601852 C64.2483803,18.7740741 64.5569014,10.6527778 64.2648592,0.0361111111 L64.2648592,0.0361111111 C54.4782394,1.31851852 20.868662,5.31018519 1.42908451,2.44259259" id="Fill-146" fill="url(#linearGradient-16)" mask="url(#mask-15)"></path>
                </g>
                <g id="Group-178" transform="translate(37.000000, 48.000000)">
                    <path d="M67.1360408,186.768269 L66.8828306,184.964705 C68.5123019,184.73516 69.4340599,184.590329 69.438614,184.590329 L69.7200599,186.39025 C69.7200599,186.39025 68.7864611,186.535992 67.1360408,186.768269 L67.1360408,186.768269 Z M61.9834866,187.449616 L61.7594229,185.642408 C62.6839134,185.526725 63.5410025,185.416507 64.3215822,185.312665 L64.5602191,187.119873 C63.7750854,187.222804 62.913442,187.333933 61.9834866,187.449616 L61.9834866,187.449616 Z M56.8263783,188.056269 L56.6259962,186.245418 C57.5158752,186.146131 58.3729643,186.048665 59.1936204,185.952111 L59.4058433,187.762051 C58.5815439,187.858606 57.7208115,187.956982 56.8263783,188.056269 L56.8263783,188.056269 Z M51.659251,188.589141 L51.4861936,186.775556 C52.363321,186.691754 53.221321,186.606131 54.0565503,186.520507 L54.2441809,188.332269 C53.4034866,188.418804 52.5409325,188.504428 51.659251,188.589141 L51.659251,188.589141 Z M12.6849197,188.862408 C11.7822892,188.720309 10.9106268,188.559081 10.0927032,188.38419 L10.4725185,186.602487 C11.2585631,186.770091 12.0992573,186.924943 12.9690981,187.062487 L12.6849197,188.862408 Z M46.4857478,189.044586 L46.3400153,187.22918 C47.2098561,187.159952 48.0687669,187.087081 48.9140153,187.013299 L49.0734102,188.827794 C48.2236076,188.902487 47.3601427,188.975358 46.4857478,189.044586 L46.4857478,189.044586 Z M41.3031363,189.415319 L41.1901936,187.596269 C42.0545694,187.543438 42.9143911,187.485141 43.7651045,187.425022 L43.8953529,189.24225 C43.0382637,189.302368 42.1729771,189.361576 41.3031363,189.415319 L41.3031363,189.415319 Z M17.8884803,189.47817 C17.0022446,189.403477 16.1324038,189.316943 15.2853338,189.217655 L15.495735,187.408626 C16.3245885,187.50518 17.1743911,187.589893 18.0414994,187.661853 L17.8884803,189.47817 Z M36.1132382,189.684943 L36.0385503,187.864982 C36.898372,187.829457 37.7572828,187.788467 38.6134611,187.743834 L38.7081873,189.562883 C37.8465439,189.609339 36.9803465,189.649418 36.1132382,189.684943 L36.1132382,189.684943 Z M23.1002382,189.779675 C22.2203783,189.747794 21.3505376,189.709537 20.4952701,189.661259 L20.5981936,187.84221 C21.4407096,187.889576 22.2968879,187.927834 23.1630854,187.958804 L23.1002382,189.779675 Z M30.9105885,189.837061 L30.8796204,188.015279 C31.7376204,188.001616 32.5992637,187.981576 33.460907,187.956982 L33.513735,189.777853 C32.6448051,189.802448 31.7758752,189.823398 30.9105885,189.837061 L30.9105885,189.837061 Z M28.0678943,189.861655 C27.2718306,189.861655 26.485786,189.85619 25.7042955,189.843438 L25.7316204,188.021655 C26.5040025,188.034408 27.2809389,188.039873 28.0633401,188.039873 L28.3065312,188.038962 L28.3065312,189.860745 L28.0678943,189.861655 Z" id="Fill-149" fill="#FFCF2F"></path>
                    <path d="M42.8492669,174.469418 C42.8492669,174.469418 16.3742287,171.452547 6.12741338,172.630329 C0.176973885,181.907754 0.101375159,199.462448 1.73631146,201.050131 C3.78931783,203.04316 24.4186618,210.077061 42.2690694,206.10922 C43.0915471,187.098923 42.8492669,174.469418 42.8492669,174.469418" id="Fill-151" fill="#F2B207"></path>
                    <path d="M33.3762911,139.667002 C31.9125904,143.584745 32.2332019,147.323042 34.0922019,148.018051 C35.9512019,148.713061 38.6445204,146.099715 40.108221,142.182883 C41.5719217,138.265141 41.2513102,134.525933 39.3923102,133.831834 C37.5333102,133.137735 34.8399917,135.749259 33.3762911,139.667002" id="Fill-153" fill="#B05E00"></path>
                    <path d="M41.5741987,118.12625 C42.2946637,118.115319 43.0160395,118.164507 43.664549,118.244665 C49.3827274,118.948784 57.202186,122.482131 60.8573389,128.575992 C66.0080713,137.16023 67.7031223,182.043477 67.7723452,183.949972 L65.9516,184.016467 C65.9352051,183.554646 64.2073643,137.698566 59.2961796,129.513299 C56.1028166,124.190051 48.9036318,120.725022 43.442307,120.052784 C41.9722306,119.871517 40.9010968,119.938012 40.179721,120.107438 C40.6925172,119.359596 41.1579503,118.700111 41.5741987,118.12625" id="Fill-155" fill="#B05E00"></path>
                    <path d="M50.9910675,120.068634 L50.6185389,122.652832 C50.6185389,122.652832 45.3548637,120.536832 45.3730803,120.480356 C45.3922076,120.423881 46.2155962,118.476396 46.2155962,118.476396 L50.9910675,120.068634 Z" id="Fill-157" fill="#9C5300"></path>
                    <polygon id="Fill-162" fill="#C76A00" points="30.8430051 183.050832 31.3284764 192.059545 28.6907185 192.059545 29.408451 182.968851"></polygon>
                    <polygon id="Fill-164" fill="#C76A00" points="50.0567401 121.212075 50.300842 129.798135 47.621186 129.798135 48.961014 120.6036"></polygon>
                    <polygon id="Fill-166" fill="#C76A00" points="47.6212771 120.054788 42.6891433 129.311263 40.1798121 127.849283 46.1603089 119.689521"></polygon>
                    <path d="M130.950018,158.318863 L129.168439,157.939022 C132.334477,143.075101 141.774299,143.702705 142.173241,143.733675 L142.024776,145.549992 C141.688681,145.522665 133.765388,145.099101 130.950018,158.318863" id="Fill-168" fill="#113A5B"></path>
                    <path d="M82.7388892,189.788238 L81.4746599,207.419446 C81.4746599,207.419446 91.2232522,210.642178 99.4662459,207.718218 C99.158386,197.730297 98.9580038,189.788238 98.9580038,189.788238 L82.7388892,189.788238 Z" id="Fill-170" fill="#6BC8D6"></path>
                    <path d="M82.7388892,189.788238 C82.5485261,192.00899 99.0600166,193.248713 98.9580038,189.788238 C98.8550803,186.328673 83.0121376,186.603762 82.7388892,189.788238" id="Fill-172" fill="#6FC1CF"></path>
                    <path d="M82.4244713,206.731358 C84.6605541,207.291556 91.9571975,208.831873 98.5297325,207.041972 C98.3666943,202.635081 98.2601274,198.296507 98.1654013,194.445259 C97.9076369,184.001893 97.663535,174.136943 96.4129682,172.418091 C94.8499873,170.268388 93.8936178,167.015596 93.5256433,165.580032 L89.1345414,165.580032 C88.7884268,166.974606 87.8912611,170.109893 86.2727197,172.828903 C84.661465,175.53425 83.1085032,194.300428 82.4244713,206.731358 M91.6274777,209.716349 C86.0468344,209.716349 81.489051,208.375517 81.2130701,208.292626 L80.5272166,208.085853 L80.5654713,207.371715 C80.736707,204.165378 82.3069745,175.928665 84.7070064,171.897061 C86.6570892,168.622408 87.5096242,164.527952 87.5178217,164.486962 L87.6662866,163.75825 L94.978414,163.75825 L95.1341656,164.476943 C95.1432739,164.521576 96.101465,168.892032 97.8866879,171.345972 C99.4004841,173.427358 99.6473185,180.682606 99.9861465,194.399715 C100.090892,198.650844 100.19928,203.045893 100.375981,207.68324 L100.402395,208.381893 L99.7356688,208.587754 C97.0305096,209.426685 94.2178726,209.716349 91.6274777,209.716349" id="Fill-174" fill="#FFFDF7"></path>
                    <path d="M91.3601497,170.326867 C88.8754108,170.326867 87.3397548,169.802194 87.2450287,169.768491 L87.8461752,168.048729 C87.8762325,168.059659 90.9247739,169.078036 95.362328,168.023224 L95.7831306,169.795818 C94.1099395,170.193877 92.6143599,170.326867 91.3601497,170.326867" id="Fill-176" fill="#FFFDF7"></path>
                    <circle id="Oval" fill="#D8D8D8" cx="110" cy="1.5" r="1"></circle>
                </g>
            </g>
        </g>
    </g>
</svg>